<?xml version="1.0" encoding="utf-8"?>
<!-- Generator: Adobe Illustrator 27.8.1, SVG Export Plug-In . SVG Version: 6.00 Build 0)  -->
<svg version="1.1" id="Capa_1" xmlns="http://www.w3.org/2000/svg" xmlns:xlink="http://www.w3.org/1999/xlink" x="0px" y="0px"
	 viewBox="0 0 270 70" style="enable-background:new 0 0 270 70;" xml:space="preserve">
<style type="text/css">
	.st0{fill:#FFFFFF;}
	.st1{fill-rule:evenodd;clip-rule:evenodd;fill:#FFFFFF;}
	.st2{fill-rule:evenodd;clip-rule:evenodd;fill:#1D1D1C;}
</style>
<g>
	<path class="st0" d="M110.74,21.09l-2.2,4.22l-0.34,0.66l-0.56-0.48l0,0l-0.01-0.01c-0.08-0.07-0.17-0.14-0.25-0.21
		c-0.09-0.07-0.18-0.14-0.29-0.21c-0.55-0.37-1.27-0.75-2.17-1.13l0,0l0,0l0,0c-0.16-0.07-0.33-0.14-0.51-0.2
		c-0.16-0.06-0.32-0.12-0.49-0.17c-0.8-0.26-1.5-0.39-2.1-0.39c-1.38,0-2.6,0.23-3.68,0.69l0,0c-1.07,0.46-1.99,1.15-2.77,2.06
		c-0.79,0.93-1.39,2.01-1.79,3.26c-0.4,1.27-0.6,2.7-0.6,4.3v0c0,1.52,0.2,2.87,0.59,4.07c0.06,0.18,0.13,0.37,0.21,0.57
		c0.38,0.95,0.89,1.79,1.53,2.53c0.77,0.88,1.67,1.53,2.71,1.97h0c1.05,0.44,2.25,0.66,3.59,0.66c1.63,0,2.97-0.41,4.04-1.23V37.1
		h-3.51h-0.59v-0.59v-4.49v-0.59h0.59h9.36h0.59v0.59v13.27v0.27l-0.21,0.18l0,0l-0.01,0.01c-0.2,0.16-0.39,0.31-0.58,0.44h0
		c-0.19,0.13-0.4,0.27-0.62,0.41v0c-1.09,0.67-2.37,1.22-3.85,1.65l0,0l-0.01,0l0,0c-0.3,0.09-0.58,0.16-0.85,0.23
		c-0.28,0.07-0.56,0.13-0.85,0.19c-1.46,0.3-2.91,0.46-4.35,0.46c-2.2,0-4.18-0.36-5.93-1.09c-1.77-0.73-3.3-1.82-4.6-3.28l-0.01,0
		c-0.36-0.4-0.69-0.82-1.01-1.28c-0.31-0.44-0.6-0.9-0.86-1.38c-1.34-2.45-2.01-5.38-2.01-8.76v0c0-2.35,0.35-4.49,1.06-6.41
		c0.12-0.32,0.24-0.63,0.37-0.93c0.69-1.56,1.62-2.96,2.8-4.21c1.42-1.49,3.08-2.61,4.98-3.36c1.89-0.74,4.02-1.11,6.39-1.11
		c1.69,0,3.26,0.25,4.7,0.76c1.45,0.51,2.77,1.27,3.97,2.29l0.36,0.3L110.74,21.09L110.74,21.09z M78.74,47.77l-2.92-8.12H62.09
		l-2.79,8.12h-7.9L67.37,7.14h3.12l16.1,40.62H78.74L78.74,47.77z M68.93,19.4l-4.82,14.8h9.63L68.93,19.4L68.93,19.4z M134.1,24.92
		c-1.22-0.8-2.55-1.2-4.01-1.2c-1.58,0-2.98,0.72-4.21,2.15c-1.23,1.44-1.84,3.19-1.84,5.27v16.63h-6.81V18.56h6.81v2.67
		c1.91-2.14,4.44-3.21,7.6-3.21c2.33,0,4.11,0.35,5.35,1.06L134.1,24.92L134.1,24.92z M136.72,33.19c0-4.46,1.29-8.08,3.86-10.88
		c2.57-2.8,5.97-4.2,10.18-4.2c4.44,0,7.88,1.34,10.34,4.03c2.45,2.69,3.68,6.38,3.68,11.05c0,4.65-1.25,8.35-3.75,11.09
		c-2.49,2.75-5.92,4.12-10.27,4.12c-4.43,0-7.88-1.39-10.35-4.16C137.95,41.48,136.72,37.79,136.72,33.19L136.72,33.19z
		 M143.81,33.19c0,6.43,2.32,9.65,6.95,9.65c2.13,0,3.82-0.84,5.06-2.51c1.24-1.67,1.86-4.05,1.86-7.14c0-6.35-2.31-9.52-6.92-9.52
		c-2.12,0-3.82,0.84-5.07,2.51C144.44,27.86,143.81,30.2,143.81,33.19L143.81,33.19z M175.26,33.36v14.4h-6.95V8.64
		c4.63-0.2,7.34-0.29,8.13-0.29c6.18,0,10.7,0.95,13.56,2.85c2.85,1.9,4.29,4.85,4.29,8.88c0,8.98-5.29,13.46-15.87,13.46
		C177.63,33.55,176.58,33.49,175.26,33.36L175.26,33.36z M175.26,14.65v12.53c1.18,0.13,2.11,0.19,2.78,0.19
		c3.17,0,5.48-0.53,6.95-1.6c1.46-1.06,2.19-2.78,2.19-5.17c0-4.06-3.27-6.09-9.81-6.09C176.65,14.52,175.94,14.56,175.26,14.65
		L175.26,14.65z M197.36,9.76l6.69-1.6v32.17c0,3.53,1.05,5.63,3.16,6.3c-1.04,1.96-2.8,2.95-5.29,2.95c-3.03,0-4.55-2.11-4.55-6.31
		V9.76L197.36,9.76z M226.11,45.34c-0.61,0.99-1.67,1.81-3.17,2.44c-1.51,0.63-3.07,0.95-4.72,0.95c-3.08,0-5.5-0.78-7.27-2.32
		c-1.76-1.54-2.65-3.73-2.65-6.56c0-3.31,1.25-5.91,3.73-7.78c2.49-1.87,6.02-2.8,10.6-2.8c0.78,0,1.71,0.13,2.77,0.4
		c0-3.37-2.13-5.05-6.38-5.05c-2.51,0-4.62,0.42-6.3,1.26l-1.44-5.19c2.3-1.1,5.03-1.65,8.2-1.65c4.37,0,7.56,0.99,9.6,2.97
		c2.02,1.99,3.05,5.76,3.05,11.29v6.12c0,3.81,0.77,6.21,2.3,7.19c-0.56,0.97-1.17,1.56-1.84,1.78c-0.68,0.22-1.46,0.34-2.33,0.34
		c-0.97,0-1.82-0.36-2.59-1.08C226.89,46.94,226.37,46.17,226.11,45.34L226.11,45.34z M225.46,34.72c-1.14-0.23-1.99-0.35-2.56-0.35
		c-5.27,0-7.91,1.73-7.91,5.19c0,2.56,1.49,3.85,4.46,3.85c4.01,0,6.01-2.01,6.01-6.02V34.72L225.46,34.72z M256.31,47.77V31.23
		c0-2.44-0.47-4.22-1.4-5.35c-0.93-1.12-2.46-1.69-4.58-1.69c-0.99,0-2.02,0.27-3.14,0.83c-1.11,0.55-1.99,1.24-2.61,2.05v20.69
		h-6.68V19.14h4.81l1.23,2.67c1.82-2.13,4.5-3.2,8.04-3.2c3.41,0,6.09,1.02,8.06,3.06c1.97,2.04,2.95,4.89,2.95,8.54v17.56H256.31
		L256.31,47.77z"/>
	<path class="st1" d="M10.66,54.29l-0.11,1.01c-0.24-0.11-0.48-0.19-0.71-0.24C9.6,55,9.37,54.97,9.14,54.97
		c-0.34,0-0.6,0.06-0.79,0.19c-0.19,0.12-0.28,0.3-0.28,0.52c0,0.28,0.34,0.59,1.03,0.94c0.07,0.03,0.12,0.06,0.15,0.08
		c0.64,0.32,1.07,0.63,1.31,0.92c0.23,0.29,0.35,0.64,0.35,1.04c0,0.59-0.22,1.08-0.67,1.45c-0.45,0.38-1.04,0.56-1.78,0.56
		c-0.3,0-0.81-0.11-1.52-0.32c-0.08-0.02-0.13-0.04-0.17-0.06l0.12-1.09c0.36,0.18,0.66,0.3,0.91,0.38
		c0.24,0.08,0.46,0.11,0.67,0.11c0.34,0,0.61-0.08,0.83-0.24c0.21-0.16,0.32-0.36,0.32-0.6c0-0.31-0.34-0.65-1.03-1.03l-0.11-0.06
		c-0.03-0.02-0.07-0.04-0.13-0.07c-0.51-0.27-0.86-0.52-1.07-0.74C7.11,56.8,7,56.63,6.92,56.43c-0.08-0.2-0.12-0.41-0.12-0.63
		c0-0.54,0.21-0.98,0.64-1.32c0.42-0.33,0.99-0.5,1.7-0.5c0.28,0,0.68,0.07,1.21,0.22C10.49,54.24,10.6,54.27,10.66,54.29
		L10.66,54.29z M12.14,59.33h1.2v1.2h-1.2V59.33L12.14,59.33z M17.29,55.19l-1.07,2.88h2.1L17.29,55.19L17.29,55.19z M16.55,54.12
		h1.52l2.47,6.4h-1.36l-0.53-1.51h-2.79l-0.55,1.51h-1.25L16.55,54.12L16.55,54.12z M21.32,59.33h1.2v1.2h-1.2V59.33L21.32,59.33z
		 M27.99,55.07v4.46h0.73c0.71,0,1.26-0.2,1.65-0.59c0.39-0.39,0.59-0.94,0.59-1.65c0-0.72-0.2-1.27-0.59-1.65
		c-0.39-0.38-0.96-0.57-1.69-0.57H27.99L27.99,55.07z M26.72,54.12h1.83c0.54,0,1.01,0.04,1.39,0.11c0.39,0.08,0.7,0.19,0.95,0.35
		c0.46,0.29,0.8,0.66,1.03,1.12c0.23,0.46,0.34,0.99,0.34,1.61c0,0.62-0.12,1.15-0.35,1.61c-0.23,0.45-0.58,0.83-1.05,1.11
		c-0.26,0.17-0.59,0.29-0.98,0.37c-0.4,0.08-0.87,0.12-1.44,0.12h-1.73V54.12L26.72,54.12z M33.37,54.12h3.91v0.92h-2.65v1.7h2.51
		v0.94h-2.51v1.87h2.74v0.97h-4V54.12L33.37,54.12z M43.82,55.19l-1.07,2.88h2.1L43.82,55.19L43.82,55.19z M43.08,54.12h1.52
		l2.47,6.4h-1.36l-0.53-1.51h-2.79l-0.55,1.51h-1.25L43.08,54.12L43.08,54.12z M47.62,54.12h1.26v2.59h2.49v-2.59h1.27v6.4h-1.27
		v-2.83h-2.49v2.83h-1.26V54.12L47.62,54.12z M56.82,54.93c-0.52,0-0.94,0.22-1.26,0.65c-0.32,0.43-0.48,1.01-0.48,1.72
		c0,0.72,0.16,1.3,0.48,1.73c0.32,0.43,0.74,0.65,1.27,0.65c0.52,0,0.95-0.22,1.27-0.65c0.32-0.44,0.48-1.01,0.48-1.73
		c0-0.71-0.16-1.29-0.48-1.72C57.77,55.15,57.35,54.93,56.82,54.93L56.82,54.93z M56.82,53.98c0.94,0,1.68,0.3,2.22,0.89
		c0.54,0.59,0.81,1.41,0.81,2.45c0,1.04-0.27,1.85-0.81,2.45c-0.54,0.59-1.28,0.89-2.23,0.89c-0.94,0-1.68-0.3-2.22-0.89
		c-0.54-0.59-0.81-1.41-0.81-2.45c0-1.04,0.27-1.86,0.81-2.45C55.14,54.28,55.88,53.98,56.82,53.98L56.82,53.98z M62.24,55.02v1.93
		h0.65c0.41,0,0.72-0.08,0.95-0.25c0.22-0.17,0.33-0.41,0.33-0.72c0-0.33-0.11-0.57-0.33-0.73c-0.22-0.16-0.57-0.23-1.04-0.23H62.24
		L62.24,55.02z M61,54.12h2.1c0.78,0,1.37,0.14,1.76,0.41c0.39,0.28,0.59,0.69,0.59,1.24c0,0.41-0.12,0.75-0.35,1.02
		c-0.23,0.27-0.56,0.45-0.99,0.54c0.18,0.06,0.33,0.15,0.44,0.27c0.11,0.12,0.24,0.35,0.38,0.7l0.89,2.22h-1.33l-0.72-1.94
		c-0.1-0.28-0.23-0.47-0.4-0.58c-0.16-0.11-0.4-0.16-0.72-0.16h-0.4v2.68H61V54.12L61,54.12z M67.87,55.02v1.93h0.65
		c0.41,0,0.72-0.08,0.95-0.25c0.22-0.17,0.33-0.41,0.33-0.72c0-0.33-0.11-0.57-0.33-0.73c-0.22-0.16-0.57-0.23-1.04-0.23H67.87
		L67.87,55.02z M66.63,54.12h2.1c0.78,0,1.37,0.14,1.76,0.41c0.39,0.28,0.59,0.69,0.59,1.24c0,0.41-0.12,0.75-0.35,1.02
		c-0.23,0.27-0.56,0.45-0.99,0.54c0.18,0.06,0.33,0.15,0.44,0.27c0.11,0.12,0.24,0.35,0.38,0.7l0.89,2.22H70.1l-0.72-1.94
		c-0.1-0.28-0.23-0.47-0.4-0.58c-0.16-0.11-0.4-0.16-0.72-0.16h-0.4v2.68h-1.24V54.12L66.63,54.12z M75,54.93
		c-0.52,0-0.94,0.22-1.26,0.65c-0.32,0.43-0.48,1.01-0.48,1.72c0,0.72,0.16,1.3,0.48,1.73c0.32,0.43,0.74,0.65,1.27,0.65
		c0.52,0,0.95-0.22,1.27-0.65c0.32-0.44,0.48-1.01,0.48-1.73c0-0.71-0.16-1.29-0.48-1.72C75.95,55.15,75.52,54.93,75,54.93L75,54.93
		z M75,53.98c0.94,0,1.68,0.3,2.22,0.89c0.54,0.59,0.81,1.41,0.81,2.45c0,1.04-0.27,1.85-0.81,2.45c-0.54,0.59-1.28,0.89-2.23,0.89
		c-0.94,0-1.68-0.3-2.22-0.89c-0.54-0.59-0.81-1.41-0.81-2.45c0-1.04,0.27-1.86,0.81-2.45C73.32,54.28,74.06,53.98,75,53.98
		L75,53.98z M81,54.12h1.45l1.56,2.89l1.56-2.89h1.36l-2.34,3.86v2.53h-1.27v-2.52L81,54.12L81,54.12z M91.45,55.02v2.16h0.52
		c0.41,0,0.73-0.09,0.95-0.28c0.22-0.18,0.33-0.45,0.33-0.79c0-0.35-0.1-0.62-0.31-0.81c-0.21-0.19-0.5-0.28-0.89-0.28H91.45
		L91.45,55.02z M90.19,54.12h1.9c0.83,0,1.44,0.16,1.84,0.49c0.4,0.33,0.6,0.83,0.6,1.5c0,0.62-0.21,1.11-0.63,1.45
		c-0.42,0.35-1.01,0.52-1.77,0.52h-0.68v2.44h-1.26V54.12L90.19,54.12z M96.7,55.02v1.93h0.65c0.41,0,0.72-0.08,0.95-0.25
		c0.22-0.17,0.33-0.41,0.33-0.72c0-0.33-0.11-0.57-0.33-0.73c-0.22-0.16-0.57-0.23-1.04-0.23H96.7L96.7,55.02z M95.45,54.12h2.1
		c0.78,0,1.37,0.14,1.76,0.41c0.39,0.28,0.59,0.69,0.59,1.24c0,0.41-0.12,0.75-0.35,1.02c-0.23,0.27-0.56,0.45-0.99,0.54
		c0.18,0.06,0.33,0.15,0.44,0.27c0.11,0.12,0.24,0.35,0.38,0.7l0.89,2.22h-1.33l-0.72-1.94c-0.1-0.28-0.23-0.47-0.4-0.58
		c-0.16-0.11-0.4-0.16-0.72-0.16h-0.4v2.68h-1.24V54.12L95.45,54.12z M101.08,54.12h3.91v0.92h-2.65v1.7h2.51v0.94h-2.51v1.87h2.74
		v0.97h-4V54.12L101.08,54.12z M103.2,51.86h1.05l-1.38,1.62h-0.57L103.2,51.86L103.2,51.86z M110.06,54.29l-0.11,1.01
		c-0.24-0.11-0.48-0.19-0.71-0.24c-0.24-0.05-0.47-0.08-0.7-0.08c-0.34,0-0.6,0.06-0.79,0.19c-0.19,0.12-0.28,0.3-0.28,0.52
		c0,0.28,0.34,0.59,1.03,0.94c0.07,0.03,0.12,0.06,0.15,0.08c0.64,0.32,1.07,0.63,1.31,0.92c0.23,0.29,0.35,0.64,0.35,1.04
		c0,0.59-0.22,1.08-0.67,1.45c-0.45,0.38-1.04,0.56-1.78,0.56c-0.3,0-0.81-0.11-1.52-0.32c-0.08-0.02-0.13-0.04-0.17-0.06l0.12-1.09
		c0.36,0.18,0.66,0.3,0.91,0.38c0.24,0.08,0.46,0.11,0.67,0.11c0.34,0,0.61-0.08,0.83-0.24c0.21-0.16,0.32-0.36,0.32-0.6
		c0-0.31-0.34-0.65-1.03-1.03l-0.11-0.06c-0.03-0.02-0.07-0.04-0.13-0.07c-0.51-0.27-0.86-0.52-1.07-0.74
		c-0.15-0.16-0.26-0.33-0.34-0.53c-0.08-0.2-0.12-0.41-0.12-0.63c0-0.54,0.21-0.98,0.64-1.32c0.42-0.33,0.99-0.5,1.7-0.5
		c0.28,0,0.68,0.07,1.21,0.22C109.89,54.24,109.99,54.27,110.06,54.29L110.06,54.29z M110.87,54.12h4.66v0.99h-1.71v5.41h-1.27
		v-5.41h-1.68V54.12L110.87,54.12z M118.48,55.19l-1.07,2.88h2.1L118.48,55.19L118.48,55.19z M117.74,54.12h1.52l2.47,6.4h-1.36
		l-0.53-1.51h-2.79l-0.55,1.51h-1.25L117.74,54.12L117.74,54.12z M122.29,54.12h1.92l1.55,4.45c0.04,0.13,0.08,0.28,0.11,0.46
		c0.03,0.18,0.06,0.38,0.07,0.59c0.02-0.23,0.04-0.44,0.07-0.61c0.03-0.18,0.06-0.32,0.11-0.45l1.6-4.45h1.89v6.4h-1.21v-4.73
		c0-0.19,0.01-0.38,0.02-0.57c0.01-0.19,0.03-0.38,0.06-0.57c-0.05,0.2-0.1,0.38-0.14,0.55c-0.04,0.17-0.08,0.3-0.11,0.38
		l-1.79,4.95h-1.13l-1.75-4.9c-0.04-0.14-0.09-0.29-0.13-0.45c-0.04-0.17-0.08-0.34-0.11-0.52c0.03,0.37,0.05,0.63,0.06,0.8
		c0.01,0.16,0.02,0.28,0.02,0.35v4.72h-1.12V54.12L122.29,54.12z M133.77,54.93c-0.52,0-0.94,0.22-1.26,0.65
		c-0.32,0.43-0.48,1.01-0.48,1.72c0,0.72,0.16,1.3,0.48,1.73c0.32,0.43,0.74,0.65,1.27,0.65c0.52,0,0.95-0.22,1.27-0.65
		c0.32-0.44,0.48-1.01,0.48-1.73c0-0.71-0.16-1.29-0.48-1.72C134.71,55.15,134.29,54.93,133.77,54.93L133.77,54.93z M133.77,53.98
		c0.94,0,1.68,0.3,2.22,0.89c0.54,0.59,0.81,1.41,0.81,2.45c0,1.04-0.27,1.85-0.81,2.45c-0.54,0.59-1.28,0.89-2.23,0.89
		c-0.94,0-1.68-0.3-2.22-0.89c-0.54-0.59-0.81-1.41-0.81-2.45c0-1.04,0.27-1.86,0.81-2.45C132.09,54.28,132.83,53.98,133.77,53.98
		L133.77,53.98z M141.94,55.02v2.16h0.52c0.41,0,0.73-0.09,0.95-0.28c0.22-0.18,0.33-0.45,0.33-0.79c0-0.35-0.1-0.62-0.31-0.81
		c-0.21-0.19-0.5-0.28-0.89-0.28H141.94L141.94,55.02z M140.68,54.12h1.9c0.83,0,1.44,0.16,1.84,0.49c0.4,0.33,0.6,0.83,0.6,1.5
		c0,0.62-0.21,1.11-0.63,1.45c-0.42,0.35-1.01,0.52-1.77,0.52h-0.68v2.44h-1.26V54.12L140.68,54.12z M147.83,55.19l-1.07,2.88h2.1
		L147.83,55.19L147.83,55.19z M147.09,54.12h1.52l2.47,6.4h-1.36l-0.53-1.51h-2.79l-0.55,1.51h-1.25L147.09,54.12L147.09,54.12z
		 M152.89,55.02v1.93h0.65c0.41,0,0.72-0.08,0.95-0.25c0.22-0.17,0.33-0.41,0.33-0.72c0-0.33-0.11-0.57-0.33-0.73
		c-0.22-0.16-0.57-0.23-1.04-0.23H152.89L152.89,55.02z M151.64,54.12h2.1c0.78,0,1.37,0.14,1.76,0.41
		c0.39,0.28,0.59,0.69,0.59,1.24c0,0.41-0.12,0.75-0.35,1.02c-0.23,0.27-0.56,0.45-0.99,0.54c0.18,0.06,0.33,0.15,0.44,0.27
		c0.11,0.12,0.24,0.35,0.38,0.7l0.89,2.22h-1.33l-0.72-1.94c-0.1-0.28-0.23-0.47-0.4-0.58c-0.16-0.11-0.4-0.16-0.72-0.16h-0.4v2.68
		h-1.24V54.12L151.64,54.12z M159.74,55.19l-1.07,2.88h2.1L159.74,55.19L159.74,55.19z M159,54.12h1.52l2.47,6.4h-1.36l-0.53-1.51
		h-2.79l-0.55,1.51h-1.25L159,54.12L159,54.12z M166.28,54.12H170v0.93h-2.46v1.74h2.35v0.94h-2.35v2.78h-1.27V54.12L166.28,54.12z
		 M171.01,54.12h1.26v6.4h-1.26V54.12L171.01,54.12z M173.71,54.12h1.59l2.35,4.47c0.06,0.12,0.13,0.28,0.2,0.48
		c0.07,0.2,0.15,0.42,0.22,0.68c-0.05-0.3-0.09-0.58-0.12-0.83c-0.03-0.25-0.04-0.46-0.04-0.64v-4.17h1.14v6.4h-1.56l-2.42-4.58
		c-0.06-0.11-0.13-0.26-0.19-0.45c-0.06-0.19-0.13-0.41-0.19-0.66c0.05,0.38,0.09,0.7,0.12,0.97c0.03,0.27,0.04,0.46,0.04,0.57v4.15
		h-1.14V54.12L173.71,54.12z M180.47,54.12h3.91v0.92h-2.65v1.7h2.51v0.94h-2.51v1.87h2.74v0.97h-4V54.12L180.47,54.12z
		 M189.46,54.29l-0.11,1.01c-0.24-0.11-0.48-0.19-0.71-0.24c-0.24-0.05-0.47-0.08-0.7-0.08c-0.34,0-0.6,0.06-0.79,0.19
		c-0.19,0.12-0.28,0.3-0.28,0.52c0,0.28,0.34,0.59,1.03,0.94c0.07,0.03,0.12,0.06,0.15,0.08c0.64,0.32,1.07,0.63,1.31,0.92
		c0.23,0.29,0.35,0.64,0.35,1.04c0,0.59-0.22,1.08-0.67,1.45c-0.45,0.38-1.04,0.56-1.78,0.56c-0.3,0-0.81-0.11-1.52-0.32
		c-0.08-0.02-0.13-0.04-0.17-0.06l0.12-1.09c0.36,0.18,0.66,0.3,0.91,0.38c0.24,0.08,0.46,0.11,0.67,0.11
		c0.34,0,0.61-0.08,0.83-0.24c0.21-0.16,0.32-0.36,0.32-0.6c0-0.31-0.34-0.65-1.03-1.03l-0.11-0.06c-0.03-0.02-0.07-0.04-0.13-0.07
		c-0.51-0.27-0.86-0.52-1.07-0.74c-0.15-0.16-0.26-0.33-0.34-0.53c-0.08-0.2-0.12-0.41-0.12-0.63c0-0.54,0.21-0.98,0.64-1.32
		c0.42-0.33,0.99-0.5,1.7-0.5c0.28,0,0.68,0.07,1.21,0.22C189.29,54.24,189.39,54.27,189.46,54.29L189.46,54.29z M194.88,55.07v4.46
		h0.73c0.71,0,1.26-0.2,1.65-0.59c0.39-0.39,0.59-0.94,0.59-1.65c0-0.72-0.2-1.27-0.59-1.65c-0.39-0.38-0.96-0.57-1.69-0.57H194.88
		L194.88,55.07z M193.61,54.12h1.83c0.54,0,1.01,0.04,1.39,0.11c0.39,0.08,0.7,0.19,0.95,0.35c0.46,0.29,0.8,0.66,1.03,1.12
		c0.23,0.46,0.34,0.99,0.34,1.61c0,0.62-0.12,1.15-0.35,1.61c-0.23,0.45-0.58,0.83-1.05,1.11c-0.26,0.17-0.59,0.29-0.98,0.37
		c-0.4,0.08-0.87,0.12-1.44,0.12h-1.73V54.12L193.61,54.12z M200.25,54.12h3.91v0.92h-2.65v1.7h2.51v0.94h-2.51v1.87h2.74v0.97h-4
		V54.12L200.25,54.12z M204.89,54.12h4.66v0.99h-1.71v5.41h-1.27v-5.41h-1.68V54.12L204.89,54.12z M210.35,54.12h3.91v0.92h-2.65
		v1.7h2.51v0.94h-2.51v1.87h2.74v0.97h-4V54.12L210.35,54.12z M216.84,55.02v1.93h0.65c0.41,0,0.72-0.08,0.95-0.25
		c0.22-0.17,0.33-0.41,0.33-0.72c0-0.33-0.11-0.57-0.33-0.73c-0.22-0.16-0.57-0.23-1.04-0.23H216.84L216.84,55.02z M215.59,54.12
		h2.1c0.78,0,1.37,0.14,1.76,0.41c0.39,0.28,0.59,0.69,0.59,1.24c0,0.41-0.12,0.75-0.35,1.02c-0.23,0.27-0.56,0.45-0.99,0.54
		c0.18,0.06,0.33,0.15,0.44,0.27c0.11,0.12,0.24,0.35,0.38,0.7l0.89,2.22h-1.33l-0.72-1.94c-0.1-0.28-0.23-0.47-0.4-0.58
		c-0.16-0.11-0.4-0.16-0.72-0.16h-0.4v2.68h-1.24V54.12L215.59,54.12z M221.22,54.12h1.92l1.55,4.45c0.04,0.13,0.08,0.28,0.11,0.46
		c0.03,0.18,0.06,0.38,0.07,0.59c0.02-0.23,0.04-0.44,0.07-0.61c0.03-0.18,0.06-0.32,0.11-0.45l1.6-4.45h1.89v6.4h-1.21v-4.73
		c0-0.19,0.01-0.38,0.02-0.57c0.01-0.19,0.03-0.38,0.06-0.57c-0.05,0.2-0.1,0.38-0.14,0.55c-0.04,0.17-0.08,0.3-0.11,0.38
		l-1.79,4.95h-1.13l-1.75-4.9c-0.04-0.14-0.09-0.29-0.13-0.45c-0.04-0.17-0.08-0.34-0.11-0.52c0.03,0.37,0.05,0.63,0.06,0.8
		c0.01,0.16,0.02,0.28,0.02,0.35v4.72h-1.12V54.12L221.22,54.12z M229.95,54.12h1.26v6.4h-1.26V54.12L229.95,54.12z M232.64,54.12
		h1.59l2.35,4.47c0.06,0.12,0.13,0.28,0.2,0.48c0.07,0.2,0.15,0.42,0.22,0.68c-0.05-0.3-0.09-0.58-0.12-0.83
		c-0.03-0.25-0.04-0.46-0.04-0.64v-4.17h1.14v6.4h-1.56l-2.42-4.58c-0.06-0.11-0.13-0.26-0.19-0.45c-0.06-0.19-0.13-0.41-0.19-0.66
		c0.05,0.38,0.09,0.7,0.12,0.97c0.03,0.27,0.04,0.46,0.04,0.57v4.15h-1.14V54.12L232.64,54.12z M241.89,55.19l-1.07,2.88h2.1
		L241.89,55.19L241.89,55.19z M241.15,54.12h1.52l2.47,6.4h-1.36l-0.53-1.51h-2.79l-0.55,1.51h-1.25L241.15,54.12L241.15,54.12z
		 M246.97,55.07v4.46h0.73c0.71,0,1.26-0.2,1.65-0.59c0.39-0.39,0.59-0.94,0.59-1.65c0-0.72-0.2-1.27-0.59-1.65
		c-0.39-0.38-0.96-0.57-1.69-0.57H246.97L246.97,55.07z M245.7,54.12h1.83c0.54,0,1.01,0.04,1.39,0.11c0.39,0.08,0.7,0.19,0.95,0.35
		c0.46,0.29,0.8,0.66,1.03,1.12c0.23,0.46,0.34,0.99,0.34,1.61c0,0.62-0.12,1.15-0.35,1.61c-0.23,0.45-0.58,0.83-1.05,1.11
		c-0.26,0.17-0.59,0.29-0.98,0.37c-0.4,0.08-0.87,0.12-1.44,0.12h-1.73V54.12L245.7,54.12z M255.09,54.93
		c-0.52,0-0.94,0.22-1.26,0.65c-0.32,0.43-0.48,1.01-0.48,1.72c0,0.72,0.16,1.3,0.48,1.73c0.32,0.43,0.74,0.65,1.27,0.65
		c0.52,0,0.95-0.22,1.27-0.65c0.32-0.44,0.48-1.01,0.48-1.73c0-0.71-0.16-1.29-0.48-1.72C256.03,55.15,255.61,54.93,255.09,54.93
		L255.09,54.93z M255.09,53.98c0.94,0,1.68,0.3,2.22,0.89c0.54,0.59,0.81,1.41,0.81,2.45c0,1.04-0.27,1.85-0.81,2.45
		c-0.54,0.59-1.28,0.89-2.23,0.89c-0.94,0-1.68-0.3-2.22-0.89c-0.54-0.59-0.81-1.41-0.81-2.45c0-1.04,0.27-1.86,0.81-2.45
		C253.41,54.28,254.14,53.98,255.09,53.98L255.09,53.98z M263,54.29l-0.11,1.01c-0.24-0.11-0.48-0.19-0.71-0.24
		c-0.24-0.05-0.47-0.08-0.7-0.08c-0.34,0-0.6,0.06-0.79,0.19c-0.19,0.12-0.28,0.3-0.28,0.52c0,0.28,0.34,0.59,1.03,0.94
		c0.07,0.03,0.12,0.06,0.15,0.08c0.64,0.32,1.07,0.63,1.31,0.92c0.23,0.29,0.35,0.64,0.35,1.04c0,0.59-0.22,1.08-0.67,1.45
		c-0.45,0.38-1.04,0.56-1.78,0.56c-0.3,0-0.81-0.11-1.52-0.32c-0.08-0.02-0.13-0.04-0.17-0.06l0.12-1.09
		c0.36,0.18,0.66,0.3,0.91,0.38c0.24,0.08,0.46,0.11,0.67,0.11c0.34,0,0.61-0.08,0.83-0.24c0.21-0.16,0.32-0.36,0.32-0.6
		c0-0.31-0.34-0.65-1.03-1.03l-0.11-0.06c-0.03-0.02-0.07-0.04-0.13-0.07c-0.51-0.27-0.86-0.52-1.07-0.74
		c-0.15-0.16-0.26-0.33-0.34-0.53c-0.08-0.2-0.12-0.41-0.12-0.63c0-0.54,0.21-0.98,0.64-1.32c0.42-0.33,0.99-0.5,1.7-0.5
		c0.28,0,0.68,0.07,1.21,0.22C262.83,54.24,262.93,54.27,263,54.29L263,54.29z"/>
	<polygon class="st2" points="6.8,7.32 62.43,7.32 47.26,47.78 6.8,47.78 6.8,7.32 	"/>
	<path class="st1" d="M33.73,14.26c-10.15-6.13-21.04,0.58-22.6,9.91c-0.89,0.73-2.5,2.84-0.02,4.7c0.78,6.07,5.32,9.98,7.79,11.05
		c0.52,1.2,0.46,2.65,0.81,3.46c0.84-0.24,2.31,0.24,3.75,0c0.23-0.32,0.39-2.28,1.95-2.4s6.1-0.36,6.81,0.24
		c0.72,0.6,1,1.36,1.2,2.16c0.74,0.4,3.04-0.12,4.38,0c1.24-4.98,5.34-8.81,10.52-8.81c0.58-0.96,1.36-10.48,0.2-9.84
		c-3.46-0.56-6.2-2.17-8.16-5.7c-0.11-0.18-0.38-0.6-0.82-0.03c-0.65,1.09-0.36,1.95-0.33,1.81c-1.1-1.96,0.85-7.93,3.33-10.12
		C39.22,10.44,34.69,13.43,33.73,14.26L33.73,14.26z"/>
</g>
</svg>
