<?xml version="1.0" encoding="utf-8"?>
<!-- Generator: Adobe Illustrator 27.8.1, SVG Export Plug-In . SVG Version: 6.00 Build 0)  -->
<svg version="1.1" id="Capa_1" xmlns="http://www.w3.org/2000/svg" xmlns:xlink="http://www.w3.org/1999/xlink" x="0px" y="0px"
	 viewBox="0 0 270 160" style="enable-background:new 0 0 270 160;" xml:space="preserve">
<style type="text/css">
	.st0{fill:#D10A11;}
	.st1{fill-rule:evenodd;clip-rule:evenodd;}
	.st2{fill:#FFFFFF;}
	.st3{fill:#2A4270;}
	.st4{fill:#B6ABB1;}
	.st5{fill:#E41D29;}
	.st6{fill:#F4D624;}
	.st7{fill:#282626;}
	.st8{fill:#DC292C;}
	.st9{fill:#666666;}
	.st10{fill:#F1B426;}
	.st11{fill:#0890A0;}
	.st12{fill-rule:evenodd;clip-rule:evenodd;fill:#1D1D1B;}
	.st13{fill-rule:evenodd;clip-rule:evenodd;fill:#FFFFFF;}
	.st14{fill-rule:evenodd;clip-rule:evenodd;fill:#179AD7;}
	.st15{fill:none;}
	.st16{fill-rule:evenodd;clip-rule:evenodd;fill:#272526;}
	
		.st17{clip-path:url(#SVGID_00000124123232014725576330000003482791855393392282_);fill:url(#SVGID_00000098927929116197048880000005537517825380121477_);}
	
		.st18{clip-path:url(#SVGID_00000005252653191132693110000012819180484908280200_);fill:url(#SVGID_00000134963548413828904900000000325733588583944637_);}
	
		.st19{clip-path:url(#SVGID_00000071521663928591709000000012676866412031584901_);fill:url(#SVGID_00000015313771072350054060000005144276916440031133_);}
	
		.st20{clip-path:url(#SVGID_00000176723010340225029340000009115839985400502444_);fill:url(#SVGID_00000163033757740185457440000001110602113082602916_);}
	.st21{fill-rule:evenodd;clip-rule:evenodd;fill:#E5282D;}
	.st22{fill-rule:evenodd;clip-rule:evenodd;fill:#FFEC08;}
	.st23{fill:#6D6E70;}
	.st24{fill:#6E6F71;}
	.st25{fill:#6F7072;}
	.st26{fill:#707173;}
	.st27{fill:#717274;}
	.st28{fill:#727375;}
	.st29{fill:#737476;}
	.st30{fill:#747577;}
	.st31{fill:#757678;}
	.st32{fill:#767779;}
	.st33{fill:#77787A;}
	.st34{fill:#78797B;}
	.st35{fill:#797A7C;}
	.st36{fill:#7A7B7D;}
	.st37{fill:#7B7C7E;}
	.st38{fill:#7C7D7F;}
	.st39{fill:#7D7E80;}
	.st40{fill:#7E7F81;}
	.st41{fill:#7F8082;}
	.st42{fill:#808183;}
	.st43{fill:#818284;}
	.st44{fill:#828385;}
	.st45{fill:#838486;}
	.st46{fill:#848587;}
	.st47{fill:#858688;}
	.st48{fill:#868789;}
	.st49{fill:#87888A;}
	.st50{fill:#88898B;}
	.st51{fill:#898A8C;}
	.st52{fill:#8A8B8D;}
	.st53{fill:#8B8C8E;}
	.st54{fill:#8C8D8F;}
	.st55{fill:#8D8E90;}
	.st56{fill:#8E8F91;}
	.st57{fill:#8F9092;}
	.st58{fill:#909193;}
	.st59{fill:#919294;}
	.st60{fill:#929395;}
	.st61{fill:#939496;}
	.st62{fill:#949597;}
	.st63{fill:#959698;}
	.st64{fill:#969799;}
	.st65{fill:#97989A;}
	.st66{fill:#98999B;}
	.st67{fill:#999A9C;}
	.st68{fill:#9A9B9D;}
	.st69{fill:#9B9C9E;}
	.st70{fill:#9C9D9F;}
	.st71{fill:#9D9EA0;}
	.st72{fill:#9E9FA1;}
	.st73{fill:#9FA0A2;}
	.st74{fill:#A0A1A3;}
	.st75{fill:#A1A2A4;}
	.st76{fill:#A2A3A5;}
	.st77{fill:#A3A4A6;}
	.st78{fill:#A4A5A7;}
	.st79{fill:#A5A6A8;}
	.st80{fill:#A6A7A9;}
	.st81{fill:#A7A8AA;}
	.st82{fill:#A8A9AB;}
	.st83{fill:#A9AAAC;}
	.st84{fill:#AAABAD;}
	.st85{fill:#ABACAE;}
	.st86{fill:#ACADAF;}
	.st87{fill:#ADAEB0;}
	.st88{fill:#AEAFB1;}
	.st89{fill:#AFB0B2;}
	.st90{fill:#B0B1B3;}
	.st91{fill:#B1B2B4;}
	.st92{fill:#B2B3B5;}
	.st93{fill:#B3B4B6;}
	.st94{fill:#B4B5B7;}
	.st95{fill:#B5B6B8;}
	.st96{fill:#B6B7B9;}
	.st97{fill:#B7B8BA;}
	.st98{fill:#B8B9BB;}
	.st99{fill:#B9BABC;}
	.st100{fill:#BABBBD;}
	.st101{fill:#BBBCBE;}
	.st102{fill:#BCBDBF;}
	.st103{fill:#BDBEC0;}
	.st104{fill:#BEBFC1;}
	.st105{fill:#BFC0C2;}
	.st106{fill:#C0C1C3;}
	.st107{fill:#C1C2C4;}
	.st108{fill:#C2C3C5;}
	.st109{fill:#C3C4C6;}
	.st110{fill:#C4C5C7;}
	.st111{fill:#C5C6C8;}
	.st112{fill:#C6C7C9;}
	.st113{fill:#C7C8CA;}
	.st114{fill:#C8C9CB;}
	.st115{fill:#9C212D;}
	.st116{fill:#939698;}
	.st117{fill:#1C3F84;}
	.st118{fill-rule:evenodd;clip-rule:evenodd;fill:#020202;}
	.st119{fill-rule:evenodd;clip-rule:evenodd;fill:#E1242C;}
	.st120{fill-rule:evenodd;clip-rule:evenodd;fill:#C5C6C8;}
	.st121{fill-rule:evenodd;clip-rule:evenodd;fill:#1B1918;}
	.st122{fill:#1280AC;}
	.st123{fill:none;stroke:#1280AC;stroke-width:1.0977;stroke-miterlimit:10;}
	.st124{fill:#F2E632;}
	.st125{fill:#8B8A8D;}
	.st126{fill:#1C171C;}
	.st127{fill:#159947;}
	.st128{fill:#003E92;}
	.st129{fill:#1C1C1C;}
	.st130{fill:#E9580C;}
</style>
<g>
	<polygon class="st127" points="137.95,83.32 132.23,109.11 214.02,109.11 219.73,83.32 	"/>
	<path class="st2" d="M150.54,94.05c-0.19,0.89-0.77,1.36-2.06,1.36h-0.24l0.56-2.63h0.52C150.4,92.78,150.73,93.16,150.54,94.05
		 M151.73,89.92h-7.32l-2.67,12.59h4.99l0.91-4.24h1.64c3.52,0,5.51-1.71,6.05-4.22C155.82,91.68,154.76,89.92,151.73,89.92"/>
	<polygon class="st2" points="168.96,102.51 159.39,102.51 162.05,89.92 167.04,89.92 165.09,99.13 169.67,99.13 	"/>
	<path class="st2" d="M183.6,92.67h0.03l-0.02,4.74h-2.13L183.6,92.67z M188.92,102.51l-1.38-12.59h-6.47l-6.69,12.59h4.78
		l0.94-2.02h3.61l0.05,2.02H188.92z"/>
	<polygon class="st2" points="207.78,102.51 201.8,102.51 200.77,94.84 200.74,94.84 199.1,102.51 195.05,102.51 197.72,89.92 
		203.7,89.92 204.77,97.54 204.8,97.54 206.4,89.92 210.45,89.92 	"/>
	<polygon class="st127" points="48.75,50.89 58.44,50.89 54.65,68.78 63.56,68.78 62.17,75.35 43.57,75.35 	"/>
	<path class="st127" d="M76.37,50.89h12.57l2.68,24.46H81.59l-0.1-3.93h-7.01l-1.83,3.93h-9.28L76.37,50.89z M81.32,65.46l0.03-9.21
		h-0.07l-4.1,9.21H81.32z"/>
	<polygon class="st127" points="120.54,57.87 120.48,57.87 113.29,75.35 104.42,75.35 104.69,57.87 104.62,57.87 100.89,75.35 
		92.7,75.35 97.88,50.89 111.33,50.89 110.92,65.46 110.99,65.46 116.75,50.89 130.2,50.89 125.02,75.35 116.82,75.35 	"/>
	<path class="st127" d="M133.65,50.89h14.53c5.28,0,7.39,2.24,6.54,6.34c-0.51,2.37-1.93,4.47-5.76,5.32v0.07
		c3.66,0.51,4.57,3.12,4.03,5.73c-0.88,4.2-4.78,7.01-10.88,7.01h-13.65L133.65,50.89z M138.67,70.13h1.35
		c2.37,0,3.49-0.78,3.86-2.57c0.31-1.49-0.68-2.2-2.95-2.2h-1.25L138.67,70.13z M141.65,56.11l-0.98,4.64h1.29
		c2.24,0,3.15-1.02,3.46-2.44c0.34-1.63-0.58-2.2-2.51-2.2H141.65z"/>
	<polygon class="st127" points="159.33,50.89 177.93,50.89 176.61,57.26 167.29,57.26 166.72,59.87 175.32,59.87 173.97,66.24 
		165.36,66.24 164.78,68.98 174.41,68.98 173.05,75.35 154.15,75.35 	"/>
	<path class="st127" d="M180.67,50.89h14.47c5.25,0,7.99,1.59,7.05,6.2c-0.61,2.81-2.24,4.95-6.1,5.83v0.07
		c2.3,0.2,3.39,1.25,3.46,3.12c0.1,2.1-0.71,5.56-0.37,9.25h-9.49c-0.2-1.83,0.17-4.91,0.27-7.01c0.07-1.22-0.44-1.69-2-1.69h-1.12
		l-1.86,8.71h-9.49L180.67,50.89z M188.8,61.09c1.86,0,3.39-0.64,3.76-2.47c0.37-1.8-0.78-2.17-2.68-2.17H189l-1.02,4.64H188.8z"/>
	<polygon class="st127" points="209.32,57.46 203.29,57.46 204.68,50.89 226.43,50.89 225.04,57.46 219.01,57.46 215.22,75.35 
		205.53,75.35 	"/>
</g>
</svg>
