<?xml version="1.0" encoding="utf-8"?>
<!-- Generator: Adobe Illustrator 27.8.1, SVG Export Plug-In . SVG Version: 6.00 Build 0)  -->
<svg version="1.1" id="Capa_1" xmlns="http://www.w3.org/2000/svg" xmlns:xlink="http://www.w3.org/1999/xlink" x="0px" y="0px"
	 viewBox="0 0 270 160" style="enable-background:new 0 0 270 160;" xml:space="preserve">
<style type="text/css">
	.st0{fill:#D10A11;}
	.st1{fill-rule:evenodd;clip-rule:evenodd;}
	.st2{fill:#FFFFFF;}
	.st3{fill:#2A4270;}
	.st4{fill:#B6ABB1;}
	.st5{fill:#E41D29;}
	.st6{fill:#F4D624;}
	.st7{fill:#282626;}
	.st8{fill:#DC292C;}
	.st9{fill:#666666;}
	.st10{fill:#F1B426;}
	.st11{fill:#0890A0;}
	.st12{fill-rule:evenodd;clip-rule:evenodd;fill:#1D1D1B;}
	.st13{fill-rule:evenodd;clip-rule:evenodd;fill:#FFFFFF;}
	.st14{fill-rule:evenodd;clip-rule:evenodd;fill:#179AD7;}
	.st15{fill:none;}
	.st16{fill-rule:evenodd;clip-rule:evenodd;fill:#272526;}
	
		.st17{clip-path:url(#SVGID_00000158715898475717945390000003236091839266558889_);fill:url(#SVGID_00000002379536474452699090000013942063650220755890_);}
	
		.st18{clip-path:url(#SVGID_00000052791448981881642250000017988421979070230660_);fill:url(#SVGID_00000108283386042948133000000003592235874503092649_);}
	
		.st19{clip-path:url(#SVGID_00000078752156123847232070000004645840888236185752_);fill:url(#SVGID_00000108272822775571903600000004849410525304684728_);}
	
		.st20{clip-path:url(#SVGID_00000148658830978700644610000016742879628153975988_);fill:url(#SVGID_00000026141479934292245190000002051586945068520114_);}
	.st21{fill-rule:evenodd;clip-rule:evenodd;fill:#E5282D;}
	.st22{fill-rule:evenodd;clip-rule:evenodd;fill:#FFEC08;}
	.st23{fill:#6D6E70;}
	.st24{fill:#6E6F71;}
	.st25{fill:#6F7072;}
	.st26{fill:#707173;}
	.st27{fill:#717274;}
	.st28{fill:#727375;}
	.st29{fill:#737476;}
	.st30{fill:#747577;}
	.st31{fill:#757678;}
	.st32{fill:#767779;}
	.st33{fill:#77787A;}
	.st34{fill:#78797B;}
	.st35{fill:#797A7C;}
	.st36{fill:#7A7B7D;}
	.st37{fill:#7B7C7E;}
	.st38{fill:#7C7D7F;}
	.st39{fill:#7D7E80;}
	.st40{fill:#7E7F81;}
	.st41{fill:#7F8082;}
	.st42{fill:#808183;}
	.st43{fill:#818284;}
	.st44{fill:#828385;}
	.st45{fill:#838486;}
	.st46{fill:#848587;}
	.st47{fill:#858688;}
	.st48{fill:#868789;}
	.st49{fill:#87888A;}
	.st50{fill:#88898B;}
	.st51{fill:#898A8C;}
	.st52{fill:#8A8B8D;}
	.st53{fill:#8B8C8E;}
	.st54{fill:#8C8D8F;}
	.st55{fill:#8D8E90;}
	.st56{fill:#8E8F91;}
	.st57{fill:#8F9092;}
	.st58{fill:#909193;}
	.st59{fill:#919294;}
	.st60{fill:#929395;}
	.st61{fill:#939496;}
	.st62{fill:#949597;}
	.st63{fill:#959698;}
	.st64{fill:#969799;}
	.st65{fill:#97989A;}
	.st66{fill:#98999B;}
	.st67{fill:#999A9C;}
	.st68{fill:#9A9B9D;}
	.st69{fill:#9B9C9E;}
	.st70{fill:#9C9D9F;}
	.st71{fill:#9D9EA0;}
	.st72{fill:#9E9FA1;}
	.st73{fill:#9FA0A2;}
	.st74{fill:#A0A1A3;}
	.st75{fill:#A1A2A4;}
	.st76{fill:#A2A3A5;}
	.st77{fill:#A3A4A6;}
	.st78{fill:#A4A5A7;}
	.st79{fill:#A5A6A8;}
	.st80{fill:#A6A7A9;}
	.st81{fill:#A7A8AA;}
	.st82{fill:#A8A9AB;}
	.st83{fill:#A9AAAC;}
	.st84{fill:#AAABAD;}
	.st85{fill:#ABACAE;}
	.st86{fill:#ACADAF;}
	.st87{fill:#ADAEB0;}
	.st88{fill:#AEAFB1;}
	.st89{fill:#AFB0B2;}
	.st90{fill:#B0B1B3;}
	.st91{fill:#B1B2B4;}
	.st92{fill:#B2B3B5;}
	.st93{fill:#B3B4B6;}
	.st94{fill:#B4B5B7;}
	.st95{fill:#B5B6B8;}
	.st96{fill:#B6B7B9;}
	.st97{fill:#B7B8BA;}
	.st98{fill:#B8B9BB;}
	.st99{fill:#B9BABC;}
	.st100{fill:#BABBBD;}
	.st101{fill:#BBBCBE;}
	.st102{fill:#BCBDBF;}
	.st103{fill:#BDBEC0;}
	.st104{fill:#BEBFC1;}
	.st105{fill:#BFC0C2;}
	.st106{fill:#C0C1C3;}
	.st107{fill:#C1C2C4;}
	.st108{fill:#C2C3C5;}
	.st109{fill:#C3C4C6;}
	.st110{fill:#C4C5C7;}
	.st111{fill:#C5C6C8;}
	.st112{fill:#C6C7C9;}
	.st113{fill:#C7C8CA;}
	.st114{fill:#C8C9CB;}
	.st115{fill:#9C212D;}
	.st116{fill:#939698;}
	.st117{fill:#1C3F84;}
	.st118{fill-rule:evenodd;clip-rule:evenodd;fill:#020202;}
	.st119{fill-rule:evenodd;clip-rule:evenodd;fill:#E1242C;}
	.st120{fill-rule:evenodd;clip-rule:evenodd;fill:#C5C6C8;}
	.st121{fill-rule:evenodd;clip-rule:evenodd;fill:#1B1918;}
	.st122{fill:#1280AC;}
	.st123{fill:none;stroke:#1280AC;stroke-width:1.0977;stroke-miterlimit:10;}
	.st124{fill:#F2E632;}
	.st125{fill:#8B8A8D;}
	.st126{fill:#1C171C;}
	.st127{fill:#159947;}
	.st128{fill:#003E92;}
	.st129{fill:#1C1C1C;}
	.st130{fill:#E9580C;}
</style>
<g>
	<path d="M208.37,44.14H61.63c-6.27,0-11.36,5.09-11.36,11.36v49c0,6.27,5.09,11.36,11.36,11.36h146.75
		c6.27,0,11.36-5.09,11.36-11.36v-49C219.73,49.23,214.65,44.14,208.37,44.14z"/>
	<path class="st2" d="M77.9,67.07c-0.93,0-1.83,0-2.79,0c0-1.4,0-2.76,0-4.15c0.13-0.01,0.28-0.03,0.43-0.03
		c3.35-0.02,6.71-0.04,10.06-0.06c1.81-0.01,3.03,0.83,3.45,2.39c0.1,0.38,0.13,0.8,0.13,1.2c0.01,2.91-0.03,5.82,0.02,8.73
		c0.04,2.28-1.59,3.4-3.42,3.39c-7.59-0.06-15.19-0.06-22.78,0c-2.01,0.02-3.41-1.41-3.39-3.42c0.06-6.78,0.02-13.57,0.02-20.35
		c0-2.2,1.18-3.4,3.38-3.4c47.56,0,95.13,0,142.69-0.01c0.5,0,0.67,0.12,0.65,0.64c-0.04,1.17-0.01,2.34-0.01,3.6
		c-0.32,0-0.58,0-0.84,0c-44.29,0-88.58,0-132.86,0c-0.27,0-0.54-0.02-0.81,0.02c-0.5,0.06-0.79,0.36-0.86,0.86
		c-0.02,0.17-0.02,0.35-0.02,0.52c0,5.3,0,10.6,0,15.9c0,1.12,0.31,1.43,1.44,1.43c1.39,0,2.78,0,4.16,0c1.04,0,1.37-0.33,1.37-1.39
		c0-1.75,0-3.51,0-5.26C77.93,67.49,77.91,67.3,77.9,67.07z"/>
	<path class="st11" d="M203.28,82.64c2.89,0,5.71,0,8.6,0c0.01,0.24,0.04,0.46,0.04,0.68c0,8.52,0,17.04,0,25.55
		c0,0.75,0,0.75-0.77,0.76c-2.33,0-4.66-0.01-7,0.01c-0.45,0-0.68-0.15-0.88-0.55c-1.89-3.85-3.8-7.69-5.7-11.53
		c-0.11-0.22-0.26-0.41-0.39-0.62c-0.06,0.02-0.12,0.05-0.18,0.07c-0.01,0.22-0.03,0.44-0.03,0.66c0,3.76-0.01,7.52,0.01,11.27
		c0,0.58-0.18,0.71-0.72,0.7c-1.43-0.03-2.85-0.02-4.28,0c-0.41,0.01-0.62-0.11-0.73-0.53c-0.96-3.52-1.94-7.03-2.9-10.54
		c-0.05-0.18-0.09-0.37-0.09-0.56c-0.01-4.99,0-9.98,0-14.97c0-0.11,0.02-0.23,0.03-0.4c0.21-0.01,0.42-0.03,0.62-0.03
		c2.7,0,5.4,0.01,8.09-0.01c0.46,0,0.68,0.17,0.87,0.56c1.54,3.1,3.1,6.19,4.66,9.28c0.08,0.15,0.14,0.32,0.24,0.46
		c0.07,0.09,0.2,0.14,0.31,0.21c0.06-0.1,0.15-0.2,0.18-0.31c0.03-0.15,0.01-0.31,0.01-0.46c0-2.99,0-5.97,0-8.96
		C203.28,83.13,203.28,82.91,203.28,82.64z"/>
	<path class="st2" d="M136.48,78.52c-3.56,0-7.13,0-10.69,0c-2.1,0-3.31-1.18-3.32-3.28c-0.01-4.68-0.01-9.36,0-14.04
		c0.01-2.08,1.24-3.27,3.34-3.27c7.11,0,14.22,0,21.32,0c2.09,0,3.3,1.19,3.3,3.29c0.01,4.68,0.01,9.36,0,14.04
		c0,2.07-1.2,3.26-3.26,3.26C143.61,78.52,140.04,78.52,136.48,78.52z M139.2,68.27c0-1.64,0-3.27,0-4.91
		c0-0.84-0.34-1.21-1.17-1.23c-1.04-0.02-2.08-0.02-3.12,0c-0.84,0.02-1.19,0.37-1.19,1.21c-0.01,3.25-0.01,6.5,0,9.75
		c0,0.86,0.37,1.22,1.23,1.23c0.98,0.01,1.96,0.01,2.94,0c0.96-0.01,1.3-0.36,1.31-1.33C139.2,71.42,139.2,69.84,139.2,68.27z"/>
	<path class="st2" d="M108.42,78.41c0-0.23,0-0.43,0-0.64c0-2.04,0-4.08,0-6.13c0-0.96-0.36-1.32-1.33-1.33
		c-1.29-0.01-2.58,0-3.94,0c0,2.71,0,5.37,0,8.09c-3.77,0-7.48,0-11.22,0c0-6.81,0-13.6,0-20.47c0.21,0,0.41,0,0.61,0
		c7.92,0,15.83,0,23.75,0c2.18,0,3.43,1.26,3.43,3.45c0,0.92,0.03,1.85-0.01,2.77c-0.01,0.29-0.14,0.64-0.33,0.86
		c-0.75,0.9-1.55,1.75-2.39,2.68c0.34,0.08,0.62,0.12,0.87,0.22c1.22,0.44,1.8,1.4,1.83,2.62c0.06,2.58,0.02,5.16,0.01,7.74
		c0,0.03-0.03,0.07-0.07,0.13C115.94,78.41,112.22,78.41,108.42,78.41z M103.17,66.14c1.51,0,2.99,0.03,4.46-0.02
		c0.54-0.02,0.76-0.48,0.79-0.98c0.02-0.46,0.01-0.92,0.01-1.39c-0.01-0.89-0.36-1.26-1.26-1.27c-0.96-0.02-1.93,0-2.89,0
		c-0.36,0-0.72,0-1.1,0C103.17,63.75,103.17,64.94,103.17,66.14z"/>
	<path class="st11" d="M162.18,109.54c0.29-1.06,0.57-2.08,0.86-3.09c2.16-7.76,4.32-15.53,6.46-23.29
		c0.12-0.44,0.31-0.57,0.75-0.57c3.85,0.02,7.71,0.02,11.56,0c0.42,0,0.61,0.12,0.72,0.53c2.38,8.6,4.77,17.19,7.16,25.79
		c0.06,0.2,0.09,0.4,0.14,0.68c-0.25,0.02-0.46,0.05-0.66,0.05c-2.56,0-5.13-0.01-7.69,0.01c-0.47,0-0.68-0.12-0.77-0.61
		c-0.19-0.98-0.47-1.94-0.69-2.91c-0.09-0.39-0.25-0.58-0.69-0.57c-2.29,0.02-4.59,0.02-6.88,0c-0.42,0-0.58,0.18-0.66,0.54
		c-0.23,1.03-0.45,2.06-0.72,3.08c-0.05,0.18-0.3,0.44-0.46,0.44c-2.7,0.03-5.4,0.02-8.09,0.01
		C162.43,109.62,162.36,109.59,162.18,109.54z M178.28,99.31c-0.01-0.14-0.01-0.26-0.04-0.36c-0.5-2.09-1-4.17-1.5-6.26
		c-0.18-0.76-0.35-1.53-0.56-2.29c-0.05-0.17-0.21-0.32-0.33-0.47c-0.12,0.15-0.24,0.29-0.35,0.44c-0.03,0.04-0.03,0.11-0.05,0.17
		c-0.45,1.92-0.91,3.84-1.36,5.76c-0.23,1-0.46,2-0.7,3.07c1.55,0,3.01,0,4.47,0C178.01,99.37,178.13,99.33,178.28,99.31z"/>
	<path class="st11" d="M122.56,96.07c0-4.28,0.01-8.56-0.01-12.83c0-0.51,0.14-0.65,0.65-0.64c4.3,0.02,8.59-0.02,12.89,0.03
		c1.72,0.02,3.46,0.07,5.09,0.78c1.86,0.8,2.82,2.29,3.14,4.19c0.51,3.02,0.56,6.05-0.08,9.06c-0.53,2.52-2.32,4.24-4.87,4.47
		c-2.31,0.21-4.65,0.19-6.97,0.26c-0.76,0.02-0.76,0.01-0.76,0.76c0,2.29-0.01,4.59,0.01,6.88c0,0.48-0.15,0.63-0.62,0.62
		c-2.62-0.02-5.24-0.02-7.86,0c-0.48,0-0.62-0.15-0.61-0.63C122.57,104.7,122.57,100.38,122.56,96.07z M135.56,91.96
		c-0.05-0.58-0.09-1.23-0.16-1.87c-0.06-0.58-0.37-0.99-0.97-1.04c-0.78-0.07-1.57-0.11-2.36-0.11c-0.14,0-0.4,0.25-0.4,0.39
		c-0.03,1.79-0.03,3.58,0,5.36c0,0.13,0.22,0.37,0.34,0.37c0.65,0.03,1.31,0.05,1.96-0.01c1.06-0.1,1.29-0.34,1.46-1.41
		C135.52,93.11,135.52,92.57,135.56,91.96z"/>
	<path class="st2" d="M180.99,57.95c0,1.39,0,2.73,0,4.14c-0.23,0.01-0.46,0.04-0.68,0.04c-4.84,0-9.67,0-14.51,0
		c-1.14,0-1.55,0.37-1.65,1.53c-0.03,0.34-0.03,0.69,0.01,1.03c0.11,1.07,0.54,1.45,1.6,1.45c3.97,0,7.94,0,11.91,0
		c2.12,0,3.34,1.21,3.34,3.33c0.01,1.91,0.01,3.82,0,5.72c-0.01,2.13-1.21,3.33-3.34,3.33c-8,0-16,0-23.99,0c-0.19,0-0.38,0-0.61,0
		c0-1.39,0-2.75,0-4.19c0.22,0,0.45,0,0.67,0c4.76,0,9.52,0,14.28,0c0.98,0,1.3-0.2,1.49-1.15c0.11-0.53,0.11-1.12,0.02-1.65
		c-0.18-0.97-0.52-1.19-1.52-1.19c-3.91,0-7.82,0-11.74,0c-1.66,0-2.77-0.8-3.15-2.25c-0.07-0.27-0.09-0.57-0.09-0.86
		c-0.01-2.04-0.02-4.09,0-6.13c0.01-1.94,1.25-3.16,3.2-3.16c8.09-0.01,16.19,0,24.28,0C180.66,57.93,180.79,57.94,180.99,57.95z"/>
	<path class="st2" d="M183.77,78.52c0-1.42,0-2.76,0-4.19c0.24,0,0.47,0,0.69,0c4.78,0,9.56,0,14.34,0c0.92,0,1.24-0.19,1.43-1.08
		c0.12-0.53,0.15-1.12,0.05-1.65c-0.18-1.04-0.52-1.27-1.57-1.27c-3.89,0-7.79,0-11.68,0c-1.64,0-2.77-0.79-3.15-2.18
		c-0.06-0.22-0.11-0.45-0.11-0.68c0-2.29-0.05-4.59,0.05-6.87c0.06-1.51,1.26-2.55,2.78-2.66c0.15-0.01,0.31-0.01,0.46-0.01
		c8.02,0,16.03,0,24.05,0c0.17,0,0.34,0,0.56,0c0,1.39,0,2.74,0,4.2c-0.2,0-0.42,0-0.64,0c-4.76,0-9.52,0-14.28,0
		c-1.45,0-2,0.57-1.92,2.05c0.02,0.36,0.1,0.72,0.22,1.07c0.22,0.69,0.51,0.88,1.23,0.88c4.1,0,8.21,0,12.31,0
		c1.52,0,2.64,0.82,3.02,2.2c0.09,0.35,0.11,0.72,0.11,1.08c0.01,1.93,0.01,3.85,0,5.78c-0.01,2.15-1.18,3.32-3.32,3.32
		c-8,0-15.99,0-23.99,0C184.22,78.52,184.03,78.52,183.77,78.52z"/>
	<path class="st11" d="M162.54,102.82c-0.62,2.23-1.19,4.36-1.81,6.48c-0.04,0.15-0.33,0.31-0.51,0.32
		c-0.58,0.04-1.15,0.02-1.73,0.02c-3.91,0-7.82-0.01-11.73,0.01c-0.58,0-0.74-0.16-0.74-0.75c0.02-8.53,0.02-17.07,0-25.6
		c0-0.55,0.14-0.72,0.7-0.71c2.56,0.03,5.12,0.01,7.69,0.01c0.21,0,0.41,0,0.71,0c0,0.31,0,0.55,0,0.79c0,6.22,0,12.45,0,18.67
		c0,0.76,0,0.76,0.75,0.76c1.98,0,3.97,0,5.95,0C162.03,102.82,162.24,102.82,162.54,102.82z"/>
	<path class="st2" d="M212,53.48c0.01,1.27-1.09,2.36-2.36,2.36c-1.25-0.01-2.32-1.06-2.34-2.32c-0.02-1.27,1.05-2.37,2.33-2.39
		C210.89,51.11,211.99,52.2,212,53.48z M211.46,53.5c0.01-0.99-0.78-1.8-1.76-1.82c-1.04-0.02-1.84,0.76-1.85,1.79
		c-0.01,1.02,0.75,1.8,1.76,1.82C210.64,55.3,211.45,54.52,211.46,53.5z"/>
	<path d="M139.2,68.27c0,1.58,0,3.16,0,4.73c0,0.98-0.35,1.33-1.31,1.33c-0.98,0.01-1.96,0.01-2.94,0
		c-0.86-0.01-1.23-0.37-1.23-1.23c-0.01-3.25-0.01-6.5,0-9.75c0-0.84,0.35-1.2,1.19-1.21c1.04-0.02,2.08-0.02,3.12,0
		c0.83,0.02,1.17,0.38,1.17,1.23C139.2,65,139.2,66.63,139.2,68.27z"/>
	<path d="M103.17,66.14c0-1.21,0-2.39,0-3.66c0.38,0,0.74,0,1.1,0c0.96,0,1.93-0.01,2.89,0c0.9,0.01,1.25,0.38,1.26,1.27
		c0,0.46,0.02,0.93-0.01,1.39c-0.02,0.51-0.25,0.97-0.79,0.98C106.16,66.17,104.68,66.14,103.17,66.14z"/>
	<path d="M178.28,99.31c-0.15,0.02-0.28,0.05-0.41,0.05c-1.46,0-2.92,0-4.47,0c0.24-1.08,0.47-2.08,0.7-3.07
		c0.45-1.92,0.91-3.84,1.36-5.76c0.01-0.06,0.01-0.12,0.05-0.17c0.11-0.15,0.23-0.29,0.35-0.44c0.11,0.16,0.28,0.3,0.33,0.47
		c0.2,0.76,0.37,1.53,0.56,2.29c0.5,2.09,1,4.17,1.5,6.26C178.27,99.06,178.27,99.17,178.28,99.31z"/>
	<path d="M135.56,91.96c-0.04,0.61-0.04,1.15-0.13,1.68c-0.17,1.07-0.41,1.31-1.46,1.41c-0.65,0.06-1.31,0.04-1.96,0.01
		c-0.13-0.01-0.34-0.24-0.34-0.37c-0.02-1.79-0.02-3.58,0-5.36c0-0.14,0.26-0.39,0.4-0.39c0.79,0,1.57,0.03,2.36,0.11
		c0.6,0.06,0.91,0.47,0.97,1.04C135.47,90.73,135.51,91.38,135.56,91.96z"/>
	<path d="M211.46,53.5c-0.01,1.02-0.82,1.8-1.85,1.78c-1.01-0.02-1.76-0.8-1.76-1.82c0.01-1.03,0.81-1.81,1.85-1.79
		C210.68,51.69,211.47,52.5,211.46,53.5z M208.76,52.38c0,0.68-0.02,1.28,0.02,1.87c0.01,0.13,0.21,0.25,0.32,0.38
		c0.05-0.03,0.09-0.07,0.14-0.1c0.02-0.18,0.04-0.37,0.07-0.73c0.29,0.19,0.48,0.33,0.68,0.45c0.21,0.13,0.43,0.25,0.65,0.38
		c0.03-0.05,0.07-0.1,0.1-0.15c-0.14-0.21-0.27-0.41-0.41-0.62c0.05,0,0.1,0,0.14,0c0.03-0.35,0.21-0.78,0.06-1.03
		C210.16,52.16,209.45,52.45,208.76,52.38z"/>
	<path class="st2" d="M208.76,52.38c0.69,0.07,1.4-0.22,1.77,0.44c0.14,0.25-0.03,0.68-0.06,1.03c-0.05,0-0.1,0-0.14,0
		c0.14,0.21,0.27,0.41,0.41,0.62c-0.03,0.05-0.07,0.1-0.1,0.15c-0.22-0.13-0.43-0.25-0.65-0.38c-0.2-0.12-0.39-0.26-0.68-0.45
		c-0.04,0.36-0.05,0.54-0.07,0.73c-0.05,0.03-0.09,0.07-0.14,0.1c-0.11-0.12-0.32-0.24-0.32-0.38
		C208.74,53.66,208.76,53.06,208.76,52.38z M209.25,52.77c0.02,0.35,0.04,0.53,0.06,0.83c0.3-0.1,0.54-0.17,0.75-0.27
		c0.04-0.02,0.03-0.28-0.01-0.3C209.82,52.92,209.58,52.87,209.25,52.77z"/>
	<path d="M209.25,52.77c0.34,0.1,0.58,0.15,0.8,0.25c0.04,0.02,0.05,0.28,0.01,0.3c-0.22,0.11-0.46,0.17-0.75,0.27
		C209.28,53.3,209.27,53.12,209.25,52.77z"/>
</g>
</svg>
