<?xml version="1.0" encoding="utf-8"?>
<!-- Generator: Adobe Illustrator 27.8.1, SVG Export Plug-In . SVG Version: 6.00 Build 0)  -->
<svg version="1.1" id="Capa_1" xmlns="http://www.w3.org/2000/svg" xmlns:xlink="http://www.w3.org/1999/xlink" x="0px" y="0px"
	 viewBox="0 0 270 160" style="enable-background:new 0 0 270 160;" xml:space="preserve">
<style type="text/css">
	.st0{fill:#D10A11;}
	.st1{fill-rule:evenodd;clip-rule:evenodd;}
	.st2{fill:#FFFFFF;}
	.st3{fill:#2A4270;}
	.st4{fill:#B6ABB1;}
	.st5{fill:#E41D29;}
	.st6{fill:#F4D624;}
	.st7{fill:#282626;}
	.st8{fill:#DC292C;}
	.st9{fill:#666666;}
	.st10{fill:#F1B426;}
	.st11{fill:#0890A0;}
	.st12{fill-rule:evenodd;clip-rule:evenodd;fill:#1D1D1B;}
	.st13{fill-rule:evenodd;clip-rule:evenodd;fill:#FFFFFF;}
	.st14{fill-rule:evenodd;clip-rule:evenodd;fill:#179AD7;}
	.st15{fill:none;}
	.st16{fill-rule:evenodd;clip-rule:evenodd;fill:#272526;}
	
		.st17{clip-path:url(#SVGID_00000005985396755654194800000006386339983993964162_);fill:url(#SVGID_00000140724460533106356360000011383896681567828158_);}
	
		.st18{clip-path:url(#SVGID_00000112626471818867460780000011328517466292905909_);fill:url(#SVGID_00000152947016114990179980000014746559844642126977_);}
	
		.st19{clip-path:url(#SVGID_00000151509196839448143880000005578604782922283670_);fill:url(#SVGID_00000130645004907070237210000015775533128742991243_);}
	
		.st20{clip-path:url(#SVGID_00000173161667457513091110000012612562183612828085_);fill:url(#SVGID_00000131357944990661695070000010116054322816047014_);}
	.st21{fill-rule:evenodd;clip-rule:evenodd;fill:#E5282D;}
	.st22{fill-rule:evenodd;clip-rule:evenodd;fill:#FFEC08;}
	.st23{fill:#6D6E70;}
	.st24{fill:#6E6F71;}
	.st25{fill:#6F7072;}
	.st26{fill:#707173;}
	.st27{fill:#717274;}
	.st28{fill:#727375;}
	.st29{fill:#737476;}
	.st30{fill:#747577;}
	.st31{fill:#757678;}
	.st32{fill:#767779;}
	.st33{fill:#77787A;}
	.st34{fill:#78797B;}
	.st35{fill:#797A7C;}
	.st36{fill:#7A7B7D;}
	.st37{fill:#7B7C7E;}
	.st38{fill:#7C7D7F;}
	.st39{fill:#7D7E80;}
	.st40{fill:#7E7F81;}
	.st41{fill:#7F8082;}
	.st42{fill:#808183;}
	.st43{fill:#818284;}
	.st44{fill:#828385;}
	.st45{fill:#838486;}
	.st46{fill:#848587;}
	.st47{fill:#858688;}
	.st48{fill:#868789;}
	.st49{fill:#87888A;}
	.st50{fill:#88898B;}
	.st51{fill:#898A8C;}
	.st52{fill:#8A8B8D;}
	.st53{fill:#8B8C8E;}
	.st54{fill:#8C8D8F;}
	.st55{fill:#8D8E90;}
	.st56{fill:#8E8F91;}
	.st57{fill:#8F9092;}
	.st58{fill:#909193;}
	.st59{fill:#919294;}
	.st60{fill:#929395;}
	.st61{fill:#939496;}
	.st62{fill:#949597;}
	.st63{fill:#959698;}
	.st64{fill:#969799;}
	.st65{fill:#97989A;}
	.st66{fill:#98999B;}
	.st67{fill:#999A9C;}
	.st68{fill:#9A9B9D;}
	.st69{fill:#9B9C9E;}
	.st70{fill:#9C9D9F;}
	.st71{fill:#9D9EA0;}
	.st72{fill:#9E9FA1;}
	.st73{fill:#9FA0A2;}
	.st74{fill:#A0A1A3;}
	.st75{fill:#A1A2A4;}
	.st76{fill:#A2A3A5;}
	.st77{fill:#A3A4A6;}
	.st78{fill:#A4A5A7;}
	.st79{fill:#A5A6A8;}
	.st80{fill:#A6A7A9;}
	.st81{fill:#A7A8AA;}
	.st82{fill:#A8A9AB;}
	.st83{fill:#A9AAAC;}
	.st84{fill:#AAABAD;}
	.st85{fill:#ABACAE;}
	.st86{fill:#ACADAF;}
	.st87{fill:#ADAEB0;}
	.st88{fill:#AEAFB1;}
	.st89{fill:#AFB0B2;}
	.st90{fill:#B0B1B3;}
	.st91{fill:#B1B2B4;}
	.st92{fill:#B2B3B5;}
	.st93{fill:#B3B4B6;}
	.st94{fill:#B4B5B7;}
	.st95{fill:#B5B6B8;}
	.st96{fill:#B6B7B9;}
	.st97{fill:#B7B8BA;}
	.st98{fill:#B8B9BB;}
	.st99{fill:#B9BABC;}
	.st100{fill:#BABBBD;}
	.st101{fill:#BBBCBE;}
	.st102{fill:#BCBDBF;}
	.st103{fill:#BDBEC0;}
	.st104{fill:#BEBFC1;}
	.st105{fill:#BFC0C2;}
	.st106{fill:#C0C1C3;}
	.st107{fill:#C1C2C4;}
	.st108{fill:#C2C3C5;}
	.st109{fill:#C3C4C6;}
	.st110{fill:#C4C5C7;}
	.st111{fill:#C5C6C8;}
	.st112{fill:#C6C7C9;}
	.st113{fill:#C7C8CA;}
	.st114{fill:#C8C9CB;}
	.st115{fill:#9C212D;}
	.st116{fill:#939698;}
	.st117{fill:#1C3F84;}
	.st118{fill-rule:evenodd;clip-rule:evenodd;fill:#020202;}
	.st119{fill-rule:evenodd;clip-rule:evenodd;fill:#E1242C;}
	.st120{fill-rule:evenodd;clip-rule:evenodd;fill:#C5C6C8;}
	.st121{fill-rule:evenodd;clip-rule:evenodd;fill:#1B1918;}
	.st122{fill:#1280AC;}
	.st123{fill:none;stroke:#1280AC;stroke-width:1.0977;stroke-miterlimit:10;}
	.st124{fill:#F2E632;}
	.st125{fill:#8B8A8D;}
	.st126{fill:#1C171C;}
	.st127{fill:#159947;}
	.st128{fill:#003E92;}
	.st129{fill:#1C1C1C;}
	.st130{fill:#E9580C;}
</style>
<g>
	<path class="st2" d="M72.73,58.28c-0.6,0-1.19,0.12-1.74,0.35l-12.15,5.06c-1.11,0.46-1.99,1.35-2.45,2.46l-5.05,12.18
		c-0.46,1.11-0.46,2.36,0,3.47l5.06,12.15c0.47,1.11,1.36,1.98,2.47,2.42l12.17,5.01c1.11,0.46,2.36,0.46,3.47,0l12.15-5.01
		c1.11-0.46,1.99-1.34,2.45-2.45l5-12.18c0.47-1.11,0.47-2.36,0-3.47l-5.06-12.15c-0.46-1.11-1.35-1.99-2.46-2.44L74.4,58.62
		C73.87,58.4,73.3,58.28,72.73,58.28z"/>
	<path class="st129" d="M72.78,106.34c-0.81,0-1.62-0.16-2.38-0.46l-14.25-5.87c-1.53-0.62-2.75-1.84-3.39-3.37l-5.93-14.22
		c-0.64-1.52-0.64-3.24,0-4.77l5.85-14.27c0.62-1.53,1.84-2.75,3.37-3.38l14.22-5.89l0.19,0.43l-0.19-0.43
		c1.53-0.63,3.25-0.63,4.78,0L89.29,60c1.53,0.62,2.75,1.84,3.39,3.37l5.93,14.22c0.64,1.52,0.64,3.24,0,4.77l-5.85,14.21
		c-0.62,1.53-1.84,2.75-3.37,3.38l-14.22,5.93C74.42,106.18,73.6,106.35,72.78,106.34z M72.73,54.54c-0.71,0-1.41,0.14-2.06,0.41
		l-14.26,5.93c-1.3,0.54-2.33,1.58-2.86,2.88l-5.86,14.25c-0.55,1.3-0.55,2.76,0,4.06l5.94,14.27c0.54,1.3,1.57,2.33,2.87,2.86
		l14.26,5.86c1.3,0.54,2.76,0.54,4.06,0l14.22-5.93c1.3-0.54,2.33-1.58,2.87-2.88l5.86-14.32c0.55-1.32,0.55-2.8,0-4.12l-5.95-14.14
		c-0.54-1.3-1.57-2.33-2.87-2.86l-14.25-5.86C74.07,54.69,73.4,54.55,72.73,54.54z"/>
	<g>
		<g>
			<g>
				<path class="st129" d="M110.8,100.14v-6.63h2.15c0.81,0,1.35,0.03,1.59,0.1c0.38,0.1,0.7,0.32,0.96,0.65
					c0.26,0.33,0.38,0.76,0.38,1.29c0,0.41-0.07,0.75-0.22,1.03c-0.15,0.28-0.34,0.5-0.56,0.65c-0.23,0.16-0.46,0.26-0.69,0.31
					c-0.32,0.06-0.78,0.1-1.39,0.1h-0.87v2.5H110.8z M112.13,94.63v1.88h0.73c0.53,0,0.88-0.03,1.06-0.1
					c0.18-0.07,0.32-0.18,0.42-0.33c0.1-0.15,0.15-0.32,0.15-0.52c0-0.24-0.07-0.44-0.21-0.6c-0.14-0.16-0.32-0.25-0.54-0.29
					c-0.16-0.03-0.48-0.05-0.96-0.05H112.13z"/>
				<path class="st129" d="M117.94,100.14v-6.58h1.34v5.46h3.33v1.12H117.94z"/>
				<path class="st129" d="M130.47,100.14h-1.46l-0.58-1.51h-2.65l-0.55,1.51h-1.42l2.58-6.63h1.42L130.47,100.14z M128,97.52
					l-0.91-2.46l-0.9,2.46H128z"/>
				<path class="st129" d="M132.12,100.14v-6.63h1.3l2.71,4.43v-4.43h1.24v6.63h-1.34l-2.67-4.32v4.32H132.12z"/>
				<path class="st129" d="M143.22,93.51h2.45c0.55,0,0.97,0.04,1.26,0.13c0.39,0.11,0.72,0.32,1,0.61
					c0.28,0.29,0.49,0.65,0.63,1.07c0.14,0.42,0.22,0.95,0.22,1.57c0,0.55-0.07,1.02-0.2,1.41c-0.17,0.48-0.4,0.87-0.71,1.17
					c-0.23,0.23-0.55,0.4-0.94,0.53c-0.3,0.09-0.69,0.14-1.19,0.14h-2.52V93.51z M144.56,94.63v4.39h1c0.37,0,0.64-0.02,0.81-0.06
					c0.22-0.05,0.4-0.15,0.54-0.28c0.14-0.13,0.26-0.34,0.35-0.64c0.09-0.3,0.14-0.7,0.14-1.21s-0.05-0.91-0.14-1.18
					c-0.09-0.27-0.22-0.49-0.38-0.64c-0.16-0.15-0.37-0.26-0.62-0.31c-0.19-0.04-0.55-0.06-1.1-0.06H144.56z"/>
				<path class="st129" d="M150.84,100.14v-6.63h4.92v1.12h-3.58v1.47h3.33v1.12h-3.33v1.81h3.7v1.12H150.84z"/>
				<path class="st129" d="M167.09,100.14h-1.46l-0.58-1.51h-2.65l-0.55,1.51h-1.42l2.58-6.63h1.42L167.09,100.14z M164.62,97.52
					l-0.91-2.46l-0.9,2.46H164.62z"/>
				<path class="st129" d="M168.73,100.14v-6.63h1.34v2.61h2.62v-2.61h1.34v6.63h-1.34v-2.9h-2.62v2.9H168.73z"/>
				<path class="st129" d="M176.07,96.87c0-0.68,0.1-1.24,0.3-1.7c0.15-0.34,0.36-0.64,0.62-0.91c0.26-0.27,0.55-0.47,0.86-0.6
					c0.41-0.17,0.89-0.26,1.43-0.26c0.98,0,1.76,0.3,2.35,0.91c0.59,0.61,0.88,1.45,0.88,2.53c0,1.07-0.29,1.91-0.87,2.51
					c-0.58,0.61-1.36,0.91-2.33,0.91c-0.99,0-1.77-0.3-2.35-0.9C176.36,98.75,176.07,97.92,176.07,96.87z M177.45,96.82
					c0,0.75,0.17,1.32,0.52,1.71c0.35,0.39,0.79,0.58,1.32,0.58c0.53,0,0.97-0.19,1.31-0.58c0.34-0.38,0.51-0.96,0.51-1.73
					c0-0.76-0.17-1.33-0.5-1.7c-0.33-0.37-0.78-0.56-1.33-0.56c-0.55,0-1,0.19-1.33,0.57C177.62,95.49,177.45,96.06,177.45,96.82z"
					/>
				<path class="st129" d="M184.48,100.14v-6.63h2.82c0.71,0,1.22,0.06,1.55,0.18c0.32,0.12,0.58,0.33,0.77,0.64
					c0.19,0.3,0.29,0.65,0.29,1.05c0,0.5-0.15,0.91-0.44,1.23c-0.29,0.32-0.73,0.53-1.31,0.61c0.29,0.17,0.53,0.35,0.72,0.56
					c0.19,0.2,0.44,0.56,0.76,1.08l0.81,1.29h-1.6l-0.97-1.44c-0.34-0.52-0.58-0.84-0.71-0.97s-0.26-0.23-0.4-0.28
					c-0.14-0.05-0.37-0.07-0.67-0.07h-0.27v2.77H184.48z M185.82,96.31h0.99c0.64,0,1.04-0.03,1.2-0.08
					c0.16-0.05,0.28-0.15,0.37-0.28c0.09-0.13,0.14-0.3,0.14-0.5c0-0.22-0.06-0.4-0.18-0.54c-0.12-0.14-0.29-0.22-0.5-0.26
					c-0.11-0.02-0.43-0.02-0.98-0.02h-1.04V96.31z"/>
				<path class="st129" d="M192.09,100.14v-6.63h2.82c0.71,0,1.22,0.06,1.54,0.18c0.32,0.12,0.58,0.33,0.77,0.64
					c0.19,0.3,0.29,0.65,0.29,1.05c0,0.5-0.15,0.91-0.44,1.23c-0.29,0.32-0.73,0.53-1.31,0.61c0.29,0.17,0.53,0.35,0.72,0.56
					c0.19,0.2,0.44,0.56,0.76,1.08l0.81,1.29h-1.6l-0.97-1.44c-0.34-0.52-0.58-0.84-0.71-0.97c-0.13-0.13-0.26-0.23-0.4-0.28
					c-0.14-0.05-0.37-0.07-0.67-0.07h-0.27v2.77H192.09z M193.43,96.31h0.99c0.64,0,1.04-0.03,1.2-0.08
					c0.16-0.05,0.29-0.15,0.38-0.28c0.09-0.13,0.14-0.3,0.14-0.5c0-0.22-0.06-0.4-0.18-0.54c-0.12-0.14-0.29-0.22-0.5-0.26
					c-0.11-0.02-0.43-0.02-0.98-0.02h-1.05V96.31z"/>
				<path class="st129" d="M199.44,96.87c0-0.68,0.1-1.24,0.3-1.7c0.15-0.34,0.36-0.64,0.62-0.91c0.26-0.27,0.55-0.47,0.86-0.6
					c0.41-0.17,0.89-0.26,1.43-0.26c0.98,0,1.76,0.3,2.34,0.91c0.59,0.61,0.88,1.45,0.88,2.53c0,1.07-0.29,1.91-0.87,2.51
					c-0.58,0.61-1.36,0.91-2.33,0.91c-0.99,0-1.77-0.3-2.35-0.9C199.73,98.75,199.44,97.92,199.44,96.87z M200.82,96.82
					c0,0.75,0.17,1.32,0.52,1.71c0.35,0.39,0.79,0.58,1.32,0.58c0.53,0,0.97-0.19,1.31-0.58c0.34-0.38,0.51-0.96,0.51-1.73
					c0-0.76-0.17-1.33-0.5-1.7c-0.33-0.37-0.78-0.56-1.33-0.56c-0.55,0-1,0.19-1.33,0.57C200.98,95.49,200.82,96.06,200.82,96.82z"
					/>
			</g>
			<path class="st129" d="M114.45,86.44c-1.48-0.74-2.71-1.9-3.54-3.33c-0.85-1.51-1.28-3.22-1.25-4.95v-8.99
				c-0.04-1.73,0.39-3.44,1.25-4.95c0.83-1.43,2.06-2.58,3.54-3.3c1.66-0.81,3.49-1.21,5.33-1.17c1.82-0.04,3.63,0.34,5.28,1.11
				c1.46,0.69,2.69,1.79,3.54,3.16c0.86,1.42,1.3,3.06,1.27,4.73c0,0.24-0.21,0.38-0.63,0.43l-4.12,0.27h-0.21
				c-0.36,0-0.54-0.06-0.54-0.2v-0.23c0.07-1.23-0.37-2.42-1.21-3.31c-1.93-1.65-4.77-1.65-6.7,0c-0.86,0.88-1.32,2.08-1.27,3.31
				v9.38c-0.05,1.22,0.41,2.41,1.27,3.27c1.93,1.65,4.77,1.65,6.7,0c0.86-0.87,1.32-2.05,1.27-3.27c0-0.13,0.06-0.26,0.18-0.33
				c0.14-0.1,0.32-0.13,0.48-0.1l4.17,0.2c0.43,0,0.66,0.12,0.66,0.2v0.2c0.03,1.67-0.41,3.32-1.27,4.76
				c-0.85,1.38-2.08,2.49-3.54,3.19c-1.65,0.78-3.46,1.16-5.28,1.12C117.97,87.67,116.12,87.27,114.45,86.44z"/>
			<path class="st129" d="M133.87,86.66V60.73c-0.04-0.32,0.18-0.62,0.5-0.66c0.06-0.01,0.11-0.01,0.17,0h4.12
				c0.32-0.05,0.62,0.17,0.67,0.49c0.01,0.06,0.01,0.11,0,0.17v25.93c0.04,0.32-0.18,0.62-0.5,0.66c-0.06,0.01-0.11,0.01-0.17,0
				h-4.12c-0.32,0.05-0.62-0.17-0.67-0.49C133.87,86.77,133.87,86.71,133.87,86.66z"/>
			<path class="st129" d="M144.12,86.66V60.73c-0.05-0.31,0.17-0.61,0.48-0.66c0.06-0.01,0.12-0.01,0.18,0h4.01
				c0.32-0.01,0.62,0.15,0.78,0.42l9.73,16.2c0.05,0.1,0.11,0.14,0.18,0.11c0.07-0.04,0.11-0.12,0.1-0.2V60.73
				c-0.05-0.31,0.17-0.61,0.48-0.66c0.06-0.01,0.12-0.01,0.18,0h4.12c0.31-0.05,0.61,0.17,0.66,0.48c0.01,0.06,0.01,0.12,0,0.18
				v25.93c0.05,0.31-0.17,0.61-0.48,0.66c-0.06,0.01-0.12,0.01-0.18,0h-3.97c-0.32-0.01-0.62-0.18-0.77-0.46l-9.78-16.36
				c-0.05-0.1-0.11-0.14-0.18-0.11s-0.09,0.09-0.09,0.2v16.08c0.04,0.32-0.18,0.62-0.5,0.66c-0.06,0.01-0.11,0.01-0.17,0h-4.12
				c-0.31,0.05-0.61-0.17-0.66-0.48C144.11,86.78,144.11,86.72,144.12,86.66z"/>
			<path class="st129" d="M168.61,86.66V82.8c-0.01-0.29,0.08-0.58,0.27-0.81l12.47-16.93c0.03-0.06,0.03-0.13,0-0.2
				c-0.04-0.06-0.12-0.09-0.2-0.08h-11.88c-0.31,0.05-0.61-0.17-0.66-0.48c-0.01-0.06-0.01-0.12,0-0.18v-3.39
				c-0.05-0.31,0.17-0.61,0.48-0.66c0.06-0.01,0.12-0.01,0.18,0h17.64c0.32-0.04,0.62,0.18,0.66,0.5c0.01,0.05,0.01,0.1,0,0.15v3.85
				c0.01,0.3-0.09,0.59-0.28,0.82l-12.46,16.93c-0.03,0.06-0.03,0.13,0,0.2c0.04,0.06,0.12,0.09,0.2,0.08h11.92
				c0.32-0.04,0.62,0.18,0.66,0.5c0.01,0.05,0.01,0.1,0,0.15v3.39c0.04,0.32-0.18,0.62-0.5,0.66c-0.05,0.01-0.1,0.01-0.15,0h-17.69
				c-0.31,0.05-0.61-0.17-0.66-0.48C168.6,86.78,168.6,86.72,168.61,86.66z"/>
			<path class="st129" d="M191.42,86.66V60.73c-0.04-0.32,0.18-0.62,0.5-0.66c0.06-0.01,0.11-0.01,0.17,0h4.12
				c0.32-0.05,0.62,0.17,0.67,0.49c0.01,0.06,0.01,0.11,0,0.17v25.93c0.04,0.32-0.18,0.62-0.5,0.66c-0.06,0.01-0.11,0.01-0.17,0
				h-4.12c-0.32,0.05-0.62-0.17-0.67-0.49C191.41,86.77,191.41,86.71,191.42,86.66z"/>
			<path class="st129" d="M217.84,86.77l-1.09-3.62c-0.02-0.11-0.12-0.19-0.24-0.19h-9.54c-0.11-0.01-0.21,0.07-0.23,0.18
				c0,0,0,0,0,0l-1.09,3.62c-0.09,0.33-0.4,0.56-0.74,0.55h-4.57c-0.19,0.02-0.38-0.06-0.5-0.22c-0.09-0.16-0.09-0.36,0-0.53
				l8.3-25.96c0.08-0.34,0.4-0.57,0.74-0.55h5.72c0.34-0.02,0.65,0.21,0.73,0.55l8.3,25.96c0.02,0.08,0.02,0.16,0,0.24
				c0.01,0.14-0.05,0.28-0.15,0.37c-0.12,0.1-0.28,0.15-0.43,0.13h-4.52C218.2,87.31,217.92,87.09,217.84,86.77z M208.3,78.71h6.89
				c0.15,0,0.23-0.08,0.2-0.27l-3.53-11.89c0-0.1-0.07-0.15-0.14-0.15s-0.11,0.05-0.16,0.15l-3.47,11.88
				c-0.03,0.2,0.04,0.28,0.2,0.28H208.3z"/>
		</g>
	</g>
	<path class="st130" d="M94.62,78.05l-5.15-12.23c-0.51-1.22-1.47-2.18-2.69-2.69l-12.22-5.04c-1.22-0.5-2.58-0.5-3.8,0l-12.24,5.15
		c-1.22,0.51-2.18,1.48-2.68,2.7l-5.04,12.26c-0.5,1.22-0.5,2.58,0,3.8l5.15,12.23c0.51,1.2,1.46,2.16,2.67,2.66l12.25,5.03
		c1.22,0.5,2.59,0.5,3.81,0l12.23-5.15c1.22-0.51,2.18-1.48,2.68-2.7l5.04-12.26C95.12,80.6,95.12,79.25,94.62,78.05z M63.46,91.57
		 M82.69,91.21L82.69,91.21l-5.85-2.44l-3.36-6.18c-0.01-0.03-0.05-0.05-0.08-0.03c-0.01,0.01-0.03,0.02-0.03,0.03l-1.68,3.69
		c-0.11,0.22-0.31,0.38-0.56,0.42l-1.37-0.15c-0.11,0.02-0.21,0.06-0.3,0.12l-6.18,4.88c-0.21-0.05-0.39-0.17-0.5-0.35
		c-0.15-0.22-0.17-0.51-0.06-0.75l9.35-21.54c0.12-0.3,0.41-0.49,0.73-0.48c0.32,0,0.61,0.19,0.73,0.48l9.26,21.54
		C82.9,90.71,82.86,91,82.69,91.21z"/>
</g>
</svg>
