<?xml version="1.0" encoding="utf-8"?>
<!-- Generator: Adobe Illustrator 27.8.1, SVG Export Plug-In . SVG Version: 6.00 Build 0)  -->
<svg version="1.1" id="Capa_1" xmlns="http://www.w3.org/2000/svg" xmlns:xlink="http://www.w3.org/1999/xlink" x="0px" y="0px"
	 viewBox="0 0 270 160" style="enable-background:new 0 0 270 160;" xml:space="preserve">
<style type="text/css">
	.st0{fill:#D10A11;}
	.st1{fill-rule:evenodd;clip-rule:evenodd;}
	.st2{fill:#FFFFFF;}
	.st3{fill:#2A4270;}
	.st4{fill:#B6ABB1;}
	.st5{fill:#E41D29;}
	.st6{fill:#F4D624;}
	.st7{fill:#282626;}
	.st8{fill:#DC292C;}
	.st9{fill:#666666;}
	.st10{fill:#F1B426;}
	.st11{fill:#0890A0;}
	.st12{fill-rule:evenodd;clip-rule:evenodd;fill:#1D1D1B;}
	.st13{fill-rule:evenodd;clip-rule:evenodd;fill:#FFFFFF;}
	.st14{fill-rule:evenodd;clip-rule:evenodd;fill:#179AD7;}
	.st15{fill:none;}
	.st16{fill-rule:evenodd;clip-rule:evenodd;fill:#272526;}
	
		.st17{clip-path:url(#SVGID_00000036960803841613129490000004015730452727876238_);fill:url(#SVGID_00000056425718440986325530000009595242542230166400_);}
	
		.st18{clip-path:url(#SVGID_00000103972883006267814090000016034265818068433578_);fill:url(#SVGID_00000055679844626594340890000014874239435099501713_);}
	
		.st19{clip-path:url(#SVGID_00000179608055313199205490000012757282300295619976_);fill:url(#SVGID_00000150785769108579662790000004301522577596527794_);}
	
		.st20{clip-path:url(#SVGID_00000168815227586985517140000004532913549010455430_);fill:url(#SVGID_00000029037231998946702970000014357421914807675060_);}
	.st21{fill-rule:evenodd;clip-rule:evenodd;fill:#E5282D;}
	.st22{fill-rule:evenodd;clip-rule:evenodd;fill:#FFEC08;}
	.st23{fill:#6D6E70;}
	.st24{fill:#6E6F71;}
	.st25{fill:#6F7072;}
	.st26{fill:#707173;}
	.st27{fill:#717274;}
	.st28{fill:#727375;}
	.st29{fill:#737476;}
	.st30{fill:#747577;}
	.st31{fill:#757678;}
	.st32{fill:#767779;}
	.st33{fill:#77787A;}
	.st34{fill:#78797B;}
	.st35{fill:#797A7C;}
	.st36{fill:#7A7B7D;}
	.st37{fill:#7B7C7E;}
	.st38{fill:#7C7D7F;}
	.st39{fill:#7D7E80;}
	.st40{fill:#7E7F81;}
	.st41{fill:#7F8082;}
	.st42{fill:#808183;}
	.st43{fill:#818284;}
	.st44{fill:#828385;}
	.st45{fill:#838486;}
	.st46{fill:#848587;}
	.st47{fill:#858688;}
	.st48{fill:#868789;}
	.st49{fill:#87888A;}
	.st50{fill:#88898B;}
	.st51{fill:#898A8C;}
	.st52{fill:#8A8B8D;}
	.st53{fill:#8B8C8E;}
	.st54{fill:#8C8D8F;}
	.st55{fill:#8D8E90;}
	.st56{fill:#8E8F91;}
	.st57{fill:#8F9092;}
	.st58{fill:#909193;}
	.st59{fill:#919294;}
	.st60{fill:#929395;}
	.st61{fill:#939496;}
	.st62{fill:#949597;}
	.st63{fill:#959698;}
	.st64{fill:#969799;}
	.st65{fill:#97989A;}
	.st66{fill:#98999B;}
	.st67{fill:#999A9C;}
	.st68{fill:#9A9B9D;}
	.st69{fill:#9B9C9E;}
	.st70{fill:#9C9D9F;}
	.st71{fill:#9D9EA0;}
	.st72{fill:#9E9FA1;}
	.st73{fill:#9FA0A2;}
	.st74{fill:#A0A1A3;}
	.st75{fill:#A1A2A4;}
	.st76{fill:#A2A3A5;}
	.st77{fill:#A3A4A6;}
	.st78{fill:#A4A5A7;}
	.st79{fill:#A5A6A8;}
	.st80{fill:#A6A7A9;}
	.st81{fill:#A7A8AA;}
	.st82{fill:#A8A9AB;}
	.st83{fill:#A9AAAC;}
	.st84{fill:#AAABAD;}
	.st85{fill:#ABACAE;}
	.st86{fill:#ACADAF;}
	.st87{fill:#ADAEB0;}
	.st88{fill:#AEAFB1;}
	.st89{fill:#AFB0B2;}
	.st90{fill:#B0B1B3;}
	.st91{fill:#B1B2B4;}
	.st92{fill:#B2B3B5;}
	.st93{fill:#B3B4B6;}
	.st94{fill:#B4B5B7;}
	.st95{fill:#B5B6B8;}
	.st96{fill:#B6B7B9;}
	.st97{fill:#B7B8BA;}
	.st98{fill:#B8B9BB;}
	.st99{fill:#B9BABC;}
	.st100{fill:#BABBBD;}
	.st101{fill:#BBBCBE;}
	.st102{fill:#BCBDBF;}
	.st103{fill:#BDBEC0;}
	.st104{fill:#BEBFC1;}
	.st105{fill:#BFC0C2;}
	.st106{fill:#C0C1C3;}
	.st107{fill:#C1C2C4;}
	.st108{fill:#C2C3C5;}
	.st109{fill:#C3C4C6;}
	.st110{fill:#C4C5C7;}
	.st111{fill:#C5C6C8;}
	.st112{fill:#C6C7C9;}
	.st113{fill:#C7C8CA;}
	.st114{fill:#C8C9CB;}
	.st115{fill:#9C212D;}
	.st116{fill:#939698;}
	.st117{fill:#1C3F84;}
	.st118{fill-rule:evenodd;clip-rule:evenodd;fill:#020202;}
	.st119{fill-rule:evenodd;clip-rule:evenodd;fill:#E1242C;}
	.st120{fill-rule:evenodd;clip-rule:evenodd;fill:#C5C6C8;}
	.st121{fill-rule:evenodd;clip-rule:evenodd;fill:#1B1918;}
	.st122{fill:#1280AC;}
	.st123{fill:none;stroke:#1280AC;stroke-width:1.0977;stroke-miterlimit:10;}
	.st124{fill:#F2E632;}
	.st125{fill:#8B8A8D;}
	.st126{fill:#1C171C;}
	.st127{fill:#159947;}
	.st128{fill:#003E92;}
	.st129{fill:#1C1C1C;}
	.st130{fill:#E9580C;}
</style>
<g>
	<g>
		<g>
			<path class="st128" d="M130.61,92.43h3.51c1.59,0,2.45,0.88,2.45,2.36s-0.86,2.37-2.45,2.36h-2.44v3.27h-1.06V92.43z
				 M131.67,96.26h2.08c1.2,0.01,1.75-0.52,1.75-1.47c0-0.95-0.55-1.47-1.75-1.47h-2.08V96.26z"/>
			<path class="st128" d="M138.31,92.43h1.06v7.1h4.23v0.9h-5.3V92.43z"/>
			<path class="st128" d="M147.16,92.43h1.18l3.12,8h-1.18l-0.87-2.41h-3.38l-0.9,2.41h-1.1L147.16,92.43z M146.37,97.13h2.71
				l-1.33-3.73h-0.02L146.37,97.13z"/>
			<path class="st128" d="M152.69,92.43h1.13l4.21,6.48h0.02v-6.48h1.01v8h-1.16l-4.18-6.42h-0.02v6.42h-1.01V92.43z"/>
			<path class="st128" d="M164.79,92.43h2.74c2.46,0,3.84,1.23,3.84,3.81c0,2.68-1.18,4.19-3.84,4.19h-2.74V92.43z M165.86,99.53
				h1.77c0.73,0,2.69-0.2,2.69-3.15c0-1.9-0.71-3.06-2.67-3.06h-1.79V99.53z"/>
			<path class="st128" d="M173.13,92.43h5.52v0.9h-4.46v2.54h4.15v0.9h-4.15v2.77h4.49v0.9h-5.55V92.43z"/>
			<path class="st128" d="M186.15,92.43h1.18l3.12,8h-1.18l-0.87-2.41h-3.38l-0.9,2.41h-1.1L186.15,92.43z M185.36,97.13h2.71
				l-1.33-3.73h-0.02L185.36,97.13z"/>
			<path class="st128" d="M191.69,92.43h1.06v3.44h4.21v-3.44h1.06v8h-1.06v-3.66h-4.21v3.66h-1.06V92.43z"/>
			<path class="st128" d="M203.6,92.24c2.54,0,3.83,2.02,3.83,4.19c0,2.17-1.29,4.19-3.83,4.19c-2.54,0-3.83-2.02-3.83-4.19
				C199.77,94.26,201.06,92.24,203.6,92.24z M203.6,99.72c1.95,0,2.77-1.68,2.77-3.29s-0.82-3.29-2.77-3.29
				c-1.95,0-2.77,1.68-2.77,3.29S201.65,99.72,203.6,99.72z"/>
			<path class="st128" d="M209.18,92.43h3.76c1.5,0,2.43,0.82,2.43,2.09c0,0.96-0.43,1.76-1.39,2.03v0.02
				c0.93,0.18,1.12,0.86,1.2,1.65c0.07,0.78,0.02,1.66,0.47,2.21h-1.19c-0.3-0.32-0.13-1.19-0.29-1.97
				c-0.11-0.78-0.3-1.44-1.33-1.44h-2.6v3.42h-1.06V92.43z M212.46,96.12c1,0,1.85-0.26,1.85-1.42c0-0.78-0.43-1.37-1.42-1.37h-2.64
				v2.79H212.46z"/>
			<path class="st128" d="M217.3,92.43h3.76c1.5,0,2.43,0.82,2.43,2.09c0,0.96-0.43,1.76-1.39,2.03v0.02
				c0.93,0.18,1.12,0.86,1.2,1.65c0.07,0.78,0.02,1.66,0.47,2.21h-1.19c-0.3-0.32-0.13-1.19-0.29-1.97
				c-0.11-0.78-0.3-1.44-1.33-1.44h-2.6v3.42h-1.06V92.43z M220.58,96.12c1,0,1.85-0.26,1.85-1.42c0-0.78-0.43-1.37-1.42-1.37h-2.64
				v2.79H220.58z"/>
			<path class="st128" d="M228.8,92.24c2.54,0,3.83,2.02,3.83,4.19c0,2.17-1.29,4.19-3.83,4.19c-2.54,0-3.83-2.02-3.83-4.19
				C224.97,94.26,226.26,92.24,228.8,92.24z M228.8,99.72c1.95,0,2.77-1.68,2.77-3.29s-0.82-3.29-2.77-3.29
				c-1.95,0-2.77,1.68-2.77,3.29S226.86,99.72,228.8,99.72z"/>
		</g>
	</g>
	<g>
		<g>
			<g>
				<path class="st128" d="M55.32,68.48c-0.35-2.52-2.76-4.43-5.53-4.43c-4.99,0-6.87,4.25-6.87,8.68c0,4.21,1.88,8.46,6.87,8.46
					c3.4,0,5.31-2.34,5.74-5.67h5.38c-0.57,6.3-4.92,10.34-11.12,10.34c-7.83,0-12.43-5.84-12.43-13.14
					c0-7.51,4.6-13.35,12.43-13.35c5.56,0,10.24,3.26,10.91,9.1H55.32z"/>
				<path class="st128" d="M75.44,59.38c7.83,0,12.43,5.84,12.43,13.35c0,7.3-4.6,13.14-12.43,13.14c-7.83,0-12.43-5.84-12.43-13.14
					C63.01,65.22,67.61,59.38,75.44,59.38z M75.44,81.2c4.99,0,6.87-4.25,6.87-8.46c0-4.43-1.88-8.68-6.87-8.68
					c-4.99,0-6.87,4.25-6.87,8.68C68.57,76.95,70.45,81.2,75.44,81.2z"/>
				<path class="st128" d="M91.06,59.98h13.64c4.53,0,7.4,3.15,7.4,6.98c0,2.98-1.2,5.21-4,6.34v0.07c2.73,0.71,3.51,3.36,3.68,5.91
					c0.11,1.59,0.07,4.57,1.06,5.99h-5.56c-0.67-1.59-0.6-4.04-0.89-6.06c-0.39-2.66-1.42-3.82-4.21-3.82h-5.56v9.88h-5.56V59.98z
					 M96.62,71.42h6.09c2.48,0,3.83-1.06,3.83-3.61c0-2.44-1.35-3.51-3.83-3.51h-6.09V71.42z"/>
				<path class="st128" d="M116.03,59.98h7.83l5.91,17.39h0.07l5.59-17.39h7.83v25.29h-5.2V67.35h-0.07l-6.2,17.92h-4.29l-6.2-17.74
					h-0.07v17.74h-5.21V59.98z"/>
				<path class="st128" d="M148.15,59.98h18.91v4.68h-13.35v5.42h12.25v4.32h-12.25v6.2h13.64v4.68h-19.2V59.98z"/>
				<path class="st128" d="M176.7,64.66h-7.58v-4.68h20.72v4.68h-7.58v20.61h-5.56V64.66z"/>
				<path class="st128" d="M197.03,59.98h5.7l9.46,25.29h-5.77l-1.91-5.63h-9.46l-1.98,5.63h-5.63L197.03,59.98z M196.5,75.49h6.55
					l-3.19-9.28h-0.07L196.5,75.49z"/>
				<path class="st128" d="M214.38,59.98h5.56v20.61h12.33v4.68h-17.89V59.98z"/>
			</g>
		</g>
	</g>
	<polygon class="st128" points="126.77,100.6 40.5,100.6 37.88,92.27 124.16,92.27 	"/>
</g>
</svg>
