<?xml version="1.0" encoding="utf-8"?>
<!-- Generator: Adobe Illustrator 27.8.1, SVG Export Plug-In . SVG Version: 6.00 Build 0)  -->
<svg version="1.1" id="Capa_1" xmlns="http://www.w3.org/2000/svg" xmlns:xlink="http://www.w3.org/1999/xlink" x="0px" y="0px"
	 viewBox="0 0 270 160" style="enable-background:new 0 0 270 160;" xml:space="preserve">
<style type="text/css">
	.st0{fill:#D10A11;}
	.st1{fill-rule:evenodd;clip-rule:evenodd;}
	.st2{fill:#FFFFFF;}
	.st3{fill:#2A4270;}
	.st4{fill:#B6ABB1;}
	.st5{fill:#E41D29;}
	.st6{fill:#F4D624;}
	.st7{fill:#282626;}
	.st8{fill:#DC292C;}
	.st9{fill:#666666;}
	.st10{fill:#F1B426;}
	.st11{fill:#0890A0;}
	.st12{fill-rule:evenodd;clip-rule:evenodd;fill:#1D1D1B;}
	.st13{fill-rule:evenodd;clip-rule:evenodd;fill:#FFFFFF;}
	.st14{fill-rule:evenodd;clip-rule:evenodd;fill:#179AD7;}
	.st15{fill:none;}
	.st16{fill-rule:evenodd;clip-rule:evenodd;fill:#272526;}
	
		.st17{clip-path:url(#SVGID_00000118358888689980339920000010194099886784989062_);fill:url(#SVGID_00000073722176445846410210000007285158110225514633_);}
	
		.st18{clip-path:url(#SVGID_00000030474352676348791070000017281097785551394491_);fill:url(#SVGID_00000018203687258185864000000018337467027100556416_);}
	
		.st19{clip-path:url(#SVGID_00000060003192607036946190000005790932752049442183_);fill:url(#SVGID_00000089548312083488935000000014700732761158234256_);}
	
		.st20{clip-path:url(#SVGID_00000017500017961951470750000003860705970808857010_);fill:url(#SVGID_00000036237723831792485830000014003076377300192949_);}
	.st21{fill-rule:evenodd;clip-rule:evenodd;fill:#E5282D;}
	.st22{fill-rule:evenodd;clip-rule:evenodd;fill:#FFEC08;}
	.st23{fill:#6D6E70;}
	.st24{fill:#6E6F71;}
	.st25{fill:#6F7072;}
	.st26{fill:#707173;}
	.st27{fill:#717274;}
	.st28{fill:#727375;}
	.st29{fill:#737476;}
	.st30{fill:#747577;}
	.st31{fill:#757678;}
	.st32{fill:#767779;}
	.st33{fill:#77787A;}
	.st34{fill:#78797B;}
	.st35{fill:#797A7C;}
	.st36{fill:#7A7B7D;}
	.st37{fill:#7B7C7E;}
	.st38{fill:#7C7D7F;}
	.st39{fill:#7D7E80;}
	.st40{fill:#7E7F81;}
	.st41{fill:#7F8082;}
	.st42{fill:#808183;}
	.st43{fill:#818284;}
	.st44{fill:#828385;}
	.st45{fill:#838486;}
	.st46{fill:#848587;}
	.st47{fill:#858688;}
	.st48{fill:#868789;}
	.st49{fill:#87888A;}
	.st50{fill:#88898B;}
	.st51{fill:#898A8C;}
	.st52{fill:#8A8B8D;}
	.st53{fill:#8B8C8E;}
	.st54{fill:#8C8D8F;}
	.st55{fill:#8D8E90;}
	.st56{fill:#8E8F91;}
	.st57{fill:#8F9092;}
	.st58{fill:#909193;}
	.st59{fill:#919294;}
	.st60{fill:#929395;}
	.st61{fill:#939496;}
	.st62{fill:#949597;}
	.st63{fill:#959698;}
	.st64{fill:#969799;}
	.st65{fill:#97989A;}
	.st66{fill:#98999B;}
	.st67{fill:#999A9C;}
	.st68{fill:#9A9B9D;}
	.st69{fill:#9B9C9E;}
	.st70{fill:#9C9D9F;}
	.st71{fill:#9D9EA0;}
	.st72{fill:#9E9FA1;}
	.st73{fill:#9FA0A2;}
	.st74{fill:#A0A1A3;}
	.st75{fill:#A1A2A4;}
	.st76{fill:#A2A3A5;}
	.st77{fill:#A3A4A6;}
	.st78{fill:#A4A5A7;}
	.st79{fill:#A5A6A8;}
	.st80{fill:#A6A7A9;}
	.st81{fill:#A7A8AA;}
	.st82{fill:#A8A9AB;}
	.st83{fill:#A9AAAC;}
	.st84{fill:#AAABAD;}
	.st85{fill:#ABACAE;}
	.st86{fill:#ACADAF;}
	.st87{fill:#ADAEB0;}
	.st88{fill:#AEAFB1;}
	.st89{fill:#AFB0B2;}
	.st90{fill:#B0B1B3;}
	.st91{fill:#B1B2B4;}
	.st92{fill:#B2B3B5;}
	.st93{fill:#B3B4B6;}
	.st94{fill:#B4B5B7;}
	.st95{fill:#B5B6B8;}
	.st96{fill:#B6B7B9;}
	.st97{fill:#B7B8BA;}
	.st98{fill:#B8B9BB;}
	.st99{fill:#B9BABC;}
	.st100{fill:#BABBBD;}
	.st101{fill:#BBBCBE;}
	.st102{fill:#BCBDBF;}
	.st103{fill:#BDBEC0;}
	.st104{fill:#BEBFC1;}
	.st105{fill:#BFC0C2;}
	.st106{fill:#C0C1C3;}
	.st107{fill:#C1C2C4;}
	.st108{fill:#C2C3C5;}
	.st109{fill:#C3C4C6;}
	.st110{fill:#C4C5C7;}
	.st111{fill:#C5C6C8;}
	.st112{fill:#C6C7C9;}
	.st113{fill:#C7C8CA;}
	.st114{fill:#C8C9CB;}
	.st115{fill:#9C212D;}
	.st116{fill:#939698;}
	.st117{fill:#1C3F84;}
	.st118{fill-rule:evenodd;clip-rule:evenodd;fill:#020202;}
	.st119{fill-rule:evenodd;clip-rule:evenodd;fill:#E1242C;}
	.st120{fill-rule:evenodd;clip-rule:evenodd;fill:#C5C6C8;}
	.st121{fill-rule:evenodd;clip-rule:evenodd;fill:#1B1918;}
	.st122{fill:#1280AC;}
	.st123{fill:none;stroke:#1280AC;stroke-width:1.0977;stroke-miterlimit:10;}
	.st124{fill:#F2E632;}
	.st125{fill:#8B8A8D;}
	.st126{fill:#1C171C;}
	.st127{fill:#159947;}
	.st128{fill:#003E92;}
	.st129{fill:#1C1C1C;}
	.st130{fill:#E9580C;}
</style>
<g>
	<polygon class="st124" points="160.34,45.59 223.64,45.59 212.16,77.24 148.85,77.24 	"/>
	<polygon class="st7" points="92.59,45.59 160.34,45.59 148.85,77.24 81.1,77.24 	"/>
	<path class="st124" d="M137.54,64.02c0.41-2.58,1.49-4.67,3.26-6.27c1.76-1.61,3.86-2.41,6.28-2.41c2.1,0,3.68,0.61,4.71,1.81
		c1.03,1.21,1.38,2.86,1.05,4.94c-0.4,2.52-1.49,4.58-3.27,6.19c-1.78,1.61-3.88,2.42-6.3,2.42c-2.08,0-3.64-0.6-4.67-1.8
		C137.57,67.69,137.21,66.07,137.54,64.02 M146.45,58.83c-1.05,0-2,0.51-2.85,1.52c-0.85,1.01-1.4,2.26-1.63,3.72
		c-0.16,0.99-0.07,1.76,0.28,2.31c0.34,0.55,0.9,0.82,1.67,0.82c1.05,0,2.01-0.51,2.87-1.53c0.87-1.03,1.43-2.32,1.67-3.88
		c0.15-0.94,0.05-1.66-0.3-2.18C147.8,59.09,147.23,58.83,146.45,58.83 M132.06,64.88c-0.27,0.68-0.63,1.2-1.09,1.58
		c-0.46,0.37-0.96,0.56-1.5,0.56c-0.65,0-1.11-0.23-1.38-0.68c-0.27-0.46-0.33-1.12-0.19-2c0.25-1.56,0.72-2.86,1.44-3.89
		c0.71-1.05,1.48-1.57,2.28-1.57c0.57,0,0.98,0.2,1.24,0.6c0.26,0.41,0.34,0.96,0.25,1.69h4.42c0.26-1.79-0.07-3.19-0.99-4.21
		c-0.91-1.02-2.31-1.52-4.19-1.52c-2.2,0-4.12,0.78-5.77,2.35c-1.65,1.57-2.66,3.57-3.05,6.02c-0.35,2.22-0.08,3.91,0.79,5.07
		c0.88,1.16,2.33,1.74,4.36,1.74c1.84,0,3.49-0.54,4.94-1.6c1.45-1.07,2.42-2.45,2.9-4.14H132.06z M116.44,68.67
		c-0.68,0.59-1.41,1.04-2.17,1.35c-0.76,0.31-1.54,0.46-2.34,0.46c-1.23,0-2.16-0.39-2.79-1.16c-0.63-0.78-0.84-1.81-0.64-3.09
		c0.23-1.41,0.82-2.51,1.79-3.29c0.97-0.78,2.35-1.28,4.16-1.51c0.37-0.05,0.88-0.1,1.53-0.16c1.88-0.18,2.88-0.69,3.02-1.54
		c0.06-0.39-0.04-0.7-0.3-0.95c-0.26-0.25-0.64-0.37-1.12-0.37c-0.58,0-1.04,0.11-1.4,0.33c-0.36,0.22-0.64,0.57-0.87,1.05h-4.19
		c0.57-1.49,1.45-2.6,2.63-3.35c1.19-0.74,2.68-1.12,4.46-1.12c1.82,0,3.18,0.39,4.07,1.19c0.89,0.8,1.22,1.89,1,3.31
		c-0.04,0.27-0.09,0.52-0.15,0.75c-0.06,0.22-0.12,0.42-0.19,0.61l-2.31,6.56c-0.05,0.14-0.09,0.28-0.12,0.43
		c-0.04,0.16-0.07,0.32-0.1,0.49c-0.04,0.24-0.04,0.44-0.01,0.6c0.03,0.15,0.1,0.3,0.2,0.43l-0.07,0.46h-4.32L116.44,68.67z
		 M117.87,63.35c-0.52,0.19-1.25,0.38-2.18,0.55c-1.66,0.31-2.58,0.96-2.74,1.97c-0.07,0.45,0.02,0.82,0.27,1.1
		c0.24,0.3,0.59,0.44,1.05,0.44c0.85,0,1.54-0.29,2.08-0.87C116.87,65.96,117.38,64.9,117.87,63.35"/>
	<path class="st125" d="M196.27,70.16h5.54l3.35-9.31c0.51-1.41,1.19-2.51,2.01-3.29c0.82-0.78,1.73-1.16,2.72-1.16
		c0.64,0,1.09,0.17,1.35,0.51c0.25,0.34,0.32,0.85,0.21,1.55c-0.02,0.17-0.1,0.47-0.23,0.89c-0.13,0.42-0.27,0.88-0.45,1.37
		l-3.38,9.45h5.53l3.55-9.89c0.23-0.63,0.44-1.24,0.6-1.83c0.17-0.59,0.29-1.12,0.36-1.6c0.26-1.61,0.02-2.85-0.7-3.73
		c-0.72-0.87-1.87-1.31-3.47-1.31c-1.05,0-2.09,0.24-3.13,0.74c-1.04,0.5-2.1,1.25-3.18,2.28l0.9-2.52h-5.13L196.27,70.16z
		 M189.58,68.3c-0.85,0.74-1.76,1.31-2.71,1.69c-0.95,0.39-1.92,0.58-2.92,0.58c-1.54,0-2.7-0.48-3.48-1.45
		c-0.78-0.97-1.05-2.26-0.8-3.87c0.28-1.77,1.02-3.13,2.23-4.11c1.21-0.97,2.94-1.6,5.19-1.89c0.47-0.06,1.1-0.12,1.92-0.2
		c2.35-0.23,3.61-0.87,3.77-1.92c0.08-0.48-0.05-0.88-0.38-1.19c-0.33-0.31-0.8-0.46-1.4-0.46c-0.72,0-1.3,0.14-1.75,0.41
		c-0.45,0.27-0.81,0.71-1.08,1.31h-5.24c0.71-1.86,1.81-3.25,3.29-4.18c1.48-0.93,3.34-1.4,5.58-1.4c2.28,0,3.97,0.49,5.09,1.49
		c1.11,0.99,1.52,2.37,1.25,4.13c-0.06,0.34-0.12,0.66-0.19,0.93c-0.07,0.28-0.15,0.53-0.24,0.77l-2.89,8.2
		c-0.06,0.17-0.11,0.34-0.16,0.54c-0.05,0.2-0.09,0.4-0.12,0.61c-0.05,0.31-0.05,0.56-0.02,0.75c0.04,0.19,0.12,0.37,0.25,0.53
		l-0.09,0.58h-5.4L189.58,68.3z M191.37,61.65c-0.65,0.24-1.56,0.47-2.73,0.69c-2.08,0.38-3.22,1.21-3.42,2.46
		c-0.09,0.56,0.02,1.02,0.33,1.38c0.3,0.36,0.74,0.54,1.31,0.54c1.07,0,1.93-0.36,2.6-1.08C190.12,64.91,190.76,63.59,191.37,61.65
		 M170.63,70.16h5.4l8.7-24.19h-5.37L170.63,70.16z M148.7,77.31l9.02-25.01h5.25l-0.85,2.32c0.86-0.97,1.77-1.71,2.74-2.21
		c0.96-0.5,1.96-0.74,3-0.74c1.85,0,3.19,0.65,4.02,1.94c0.83,1.3,1.06,3.12,0.69,5.45c-0.54,3.38-1.78,6.17-3.75,8.38
		c-1.96,2.2-4.17,3.3-6.63,3.3c-1.15,0-2.09-0.29-2.83-0.87c-0.75-0.58-1.26-1.43-1.53-2.53l-3.59,9.98H148.7z M165.03,56.2
		c-1.27,0-2.41,0.6-3.4,1.8c-0.99,1.2-1.64,2.72-1.93,4.55c-0.17,1.06-0.06,1.87,0.32,2.46c0.38,0.59,0.99,0.88,1.84,0.88
		c1.15,0,2.19-0.61,3.15-1.83c0.95-1.23,1.57-2.74,1.86-4.56c0.17-1.06,0.09-1.88-0.22-2.45C166.33,56.49,165.79,56.2,165.03,56.2"
		/>
	<polygon class="st125" points="62.41,76.21 62.41,79.76 62.41,87.29 69.04,87.29 69.04,106.75 79.89,106.75 79.89,87.29 
		96.73,87.29 96.73,76.19 	"/>
	<path class="st125" d="M188.29,96.71c-0.01-0.03-0.09-0.04-0.26-0.04c-0.17,0-0.24,0.01-0.26,0.04c-0.29,0.56-0.39,1.62-0.39,2.88
		h-0.01c0,1.23,0.12,2.26,0.43,2.85c0.03,0.05,0.1,0.08,0.23,0.08v-0.01c0.14,0,0.21-0.03,0.23-0.07c0.31-0.59,0.43-1.62,0.43-2.85
		h-0.01C188.68,98.33,188.58,97.27,188.29,96.71 M124.51,89.51v12.53l7.78-12.53H124.51z M105.91,85.98v-5.19v-3.54h3.38l25.43,0
		h3.38v3.54v4.84h1.42l11.19,0.01v3.54v1.04h1.76v-1.04v-3.54h3.38h0.44l-0.01-0.02h10.25h0.27h1.94l0.97,1.78l1.03,1.88v-0.1v-3.55
		h3.38h4.32h3.38v1.58c1.8-1.41,3.93-2.22,6.23-2.22v-0.01h0h0v0.01c3.26,0,6.17,1.63,8.3,4.29c0.07-0.12,0.16-0.24,0.24-0.36
		c1.45-2.04,3.93-3.59,8.34-4.02l0.21-0.03l0.19,0.01c9.61,0.32,10.5,5.25,11.17,8.96c0.05,0.27,0.08,0.43,0.08,0.47l0.83,4.27
		l-1.6-0.01c0.78,1.53,1.21,3.23,1.24,4.92c0.03,1.3-0.16,2.6-0.59,3.81c-0.43,1.24-1.12,2.42-2.06,3.45
		c-1.82,1.98-4.55,3.34-8.25,3.43h-0.17c-4.4-0.14-7.55-1.59-9.45-4.32c-2.14,2.8-5.13,4.52-8.48,4.52v0.01h0h0v-0.01
		c-2.3,0-4.42-0.81-6.23-2.22v1.48h-4.31h-3.38h-1.9l-0.99-1.74l-1.06-1.86v0.04v3.55h-3.38h-4.56h-3.38v-0.01h-3.01h-3.38v-3.54
		v-8.55h-1.76v8.55v0v3.54h-3.38h-4.39h-3.38h-2.45h-3.38v-3.14h-0.74l-0.84,1.44l-0.99,1.71h-1.89h-4.76h-3.38h-5h-3.38v-3.55
		V89.53h-3.46h-3.38V85.98z"/>
	<path class="st124" d="M198.1,99.99c0.16,0.23,0.33,0.43,0.51,0.63c0.34,0.37,0.7,0.69,1.06,0.98H198
		C198.06,101.08,198.09,100.54,198.1,99.99 M186.31,95.87c0.42-0.69,0.62-0.91,1.73-0.98c1.11,0.07,1.31,0.29,1.73,0.98
		c0.38,0.71,0.62,2.09,0.61,3.73c0.01,1.63-0.24,2.99-0.64,3.72c-0.44,0.7-0.66,0.92-1.7,0.99c-1.03-0.06-1.26-0.29-1.7-0.99
		c-0.4-0.73-0.65-2.09-0.64-3.72C185.69,97.95,185.92,96.57,186.31,95.87 M122.82,108V87.74h12.59L122.82,108z M212.74,97.22
		l-0.09-0.09l-0.1-0.08c-0.12-0.08-0.24-0.16-0.37-0.24l3.16,0.02l-0.41-2.15c-0.24-1.13-0.39-3.14-1.79-4.94
		c-1.43-1.83-3.92-2.97-7.86-3.08h-0.1l-0.1,0.01c-3.53,0.33-5.84,1.48-7.15,3.32c-0.71,1.02-1.05,2.09-1.21,3.11
		c-0.4-0.86-0.87-1.66-1.42-2.38c-1.76-2.36-4.34-3.95-7.25-3.95c-2.91,0-5.48,1.59-7.25,3.95c-0.24,0.31-0.46,0.64-0.67,0.98V87.4
		h-7.69v8.49l-4.66-8.49h-1.24h-4.29h-0.03h-0.28h-1.94h-0.74l-5.09,0.01V92h-5.14v-4.6h-5.83h-6.79v-8.38h-28.8v1.78v6.96h6.84
		v24.12h8.38h0.72h6.68l1.83-3.16h3.37l0,3.16h5.83h7.77v-1.78V99.77h5.14v12.11h7.77v0h6.55v-8.22l4.68,8.22h6.96v-4.18
		c0.21,0.34,0.43,0.67,0.67,0.98c1.76,2.36,4.34,3.96,7.25,3.95h0c2.91,0,5.48-1.59,7.24-3.95c0.55-0.74,1.03-1.54,1.43-2.42
		c0.5,1.51,1.32,2.82,2.45,3.81c1.76,1.55,4.11,2.27,6.86,2.36h0.05h0.04c2.95-0.06,5.32-1.08,6.91-2.72
		c1.59-1.64,2.35-3.83,2.34-5.96C215.37,101.35,214.46,98.97,212.74,97.22"/>
	<polygon class="st125" points="76.77,64.8 71.83,64.8 55.69,64.8 46.36,89.54 55.69,114.27 76.77,114.27 67.63,89.54 	"/>
	<polygon class="st125" points="97.59,89.54 106.73,64.8 101.79,64.8 85.64,64.8 76.31,89.54 85.64,114.27 106.73,114.27 	"/>
	<polygon class="st124" points="74.3,66.58 71.83,66.58 56.83,66.58 48.17,89.54 56.83,112.49 74.31,112.49 65.82,89.54 	"/>
	<polygon class="st124" points="95.77,89.54 104.26,66.58 101.79,66.58 86.79,66.58 78.13,89.54 86.79,112.49 104.26,112.49 	"/>
	<path class="st7" d="M71.83,68.36H57.98l-7.99,21.18l7.99,21.17h13.86l-7.82-21.17L71.83,68.36z M101.79,68.36H87.93l-7.99,21.18
		l7.99,21.17h13.86l-7.82-21.17L101.79,68.36z"/>
	<path class="st126" d="M71.83,68.36v-0.38h-14.1l-8.13,21.56l8.13,21.55h14.63l-7.96-21.55l7.96-21.56h-0.52V68.36l-0.34-0.14
		l-7.88,21.32l7.69,20.79H58.22l-7.84-20.79l7.84-20.81h13.61V68.36l-0.34-0.14L71.83,68.36z M101.79,68.36v-0.38h-14.1l-8.13,21.56
		l8.13,21.55h14.63l-7.96-21.55l7.96-21.56h-0.52V68.36l-0.33-0.14l-7.87,21.32l7.68,20.79H88.18l-7.84-20.79l7.84-20.81h13.61
		V68.36l-0.33-0.14L101.79,68.36z"/>
	<path class="st7" d="M207.87,95.01l5.4,0.03c-0.49-2.55-0.66-6.36-8.05-6.61c-6.6,0.64-6.95,4-7.01,6.98
		c0.62,7.07,8.61,6.2,9.85,8.47c0.09,2.72-4.51,2.36-4.64-0.5h-5.59c0.47,4.68,3.22,7.11,8.24,7.28c8.17-0.2,9.34-8.24,5.49-12.16
		c-1.4-1.06-5.43-1.87-6.84-2.59C201.47,93.69,207.36,91.53,207.87,95.01 M188.04,93.11c-3.2,0-4.02,2.91-4.02,6.48
		c0,3.57,0.93,6.48,4.02,6.48c3.1,0,4.02-2.91,4.02-6.48C192.06,96.02,191.24,93.11,188.04,93.11 M188.04,88.53
		c4.62,0,8.38,5.01,8.38,11.16c0,6.15-3.77,11.16-8.38,11.16c-4.61,0-8.38-5.01-8.38-11.16C179.65,93.55,183.42,88.53,188.04,88.53
		 M162.23,89.18h4.29h0.27l7.33,13.34V89.18h4.32v20.92h-4.32l-7.33-12.87v12.87h-4.56V89.23l-0.03-0.04H162.23z M142.93,89.18
		v20.92h4.39v0V98h8.52v12.11h4.39V89.18h-4.39v4.59h-8.52v-4.59H142.93z M137.1,102.72h-3.55l3.55-6.13V102.72z M123.54,110.1
		l12.99-20.92h4.97v20.92h-4.4v-3.16h-6l-1.83,3.16H123.54z M109.28,80.79v5.19h6.84v24.12h5V85.96h13.58v-5.17L109.28,80.79z"/>
	<path class="st126" d="M207.87,95.01l0,0.38l5.84,0.03l-0.09-0.46c-0.25-1.25-0.41-2.93-1.51-4.34c-0.55-0.7-1.34-1.32-2.45-1.77
		c-1.11-0.45-2.55-0.74-4.42-0.8l-0.02,0l-0.02,0c-1.68,0.16-2.98,0.5-3.99,0.97c-1.51,0.71-2.37,1.75-2.82,2.89
		c-0.45,1.14-0.51,2.36-0.53,3.48v0.02l0,0.02c0.16,1.84,0.81,3.21,1.72,4.21c1.37,1.51,3.25,2.21,4.88,2.77
		c0.81,0.28,1.57,0.52,2.15,0.78c0.59,0.26,0.99,0.56,1.14,0.86l0.31-0.19l-0.36,0.01l0,0.07c-0.01,0.49-0.18,0.8-0.46,1.04
		c-0.28,0.23-0.7,0.36-1.15,0.36c-0.54,0-1.12-0.18-1.56-0.52c-0.43-0.34-0.72-0.82-0.75-1.47l-0.02-0.36h-0.34h-5.59h-0.4
		l0.04,0.42c0.24,2.41,1.08,4.3,2.54,5.58c1.46,1.28,3.48,1.95,6.04,2.03h0.01h0.01c2.69-0.06,4.69-0.97,6.01-2.33
		c1.32-1.36,1.95-3.16,1.94-4.96c0-2.01-0.77-4.04-2.22-5.52l-0.02-0.02l-0.02-0.02c-0.4-0.3-0.93-0.55-1.54-0.8
		c-0.92-0.36-2-0.69-2.99-0.99c-0.98-0.3-1.88-0.59-2.35-0.84l-0.16,0.34l0.19-0.32c-0.32-0.22-0.53-0.43-0.66-0.61
		c-0.12-0.18-0.16-0.32-0.16-0.44c0-0.11,0.03-0.21,0.11-0.33c0.11-0.17,0.32-0.34,0.6-0.46c0.27-0.12,0.61-0.19,0.94-0.19
		c0.42,0,0.82,0.11,1.13,0.35c0.31,0.24,0.54,0.59,0.63,1.16l0.05,0.32l0.31,0L207.87,95.01l0.35-0.06
		c-0.11-0.75-0.46-1.31-0.92-1.66c-0.46-0.35-1.02-0.49-1.55-0.49c-0.57,0-1.13,0.16-1.57,0.44c-0.22,0.14-0.41,0.32-0.56,0.54
		c-0.14,0.22-0.23,0.48-0.23,0.76c0,0.3,0.1,0.6,0.29,0.88c0.19,0.28,0.47,0.55,0.85,0.8l0.02,0.01l0.02,0.01
		c0.39,0.2,0.91,0.39,1.52,0.58c0.91,0.29,1.98,0.6,2.96,0.94c0.98,0.33,1.85,0.69,2.31,1.04l0.21-0.31l-0.25,0.27
		c1.31,1.33,2.01,3.17,2.01,4.98c0,1.62-0.56,3.21-1.73,4.42c-1.17,1.21-2.97,2.05-5.53,2.11l0.01,0.38l0.01-0.38
		c-2.46-0.08-4.31-0.71-5.6-1.85c-1.29-1.14-2.06-2.81-2.29-5.08l-0.36,0.04v0.38h5.59v-0.38l-0.36,0.02
		c0.04,0.89,0.47,1.59,1.04,2.04c0.58,0.45,1.29,0.67,1.99,0.67c0.58,0,1.15-0.16,1.59-0.51c0.45-0.35,0.74-0.93,0.74-1.64l0-0.1
		l0-0.09l-0.04-0.08c-0.2-0.37-0.51-0.64-0.88-0.87c-0.65-0.4-1.49-0.67-2.41-0.99c-1.38-0.46-2.93-1-4.16-1.95
		c-1.23-0.96-2.15-2.3-2.35-4.52l-0.36,0.03l0.36,0.01c0.03-1.48,0.14-2.97,0.98-4.14c0.42-0.59,1.03-1.12,1.95-1.55
		c0.91-0.43,2.14-0.75,3.76-0.91l-0.03-0.38l-0.01,0.38c1.82,0.06,3.17,0.34,4.19,0.75c1.52,0.62,2.27,1.51,2.73,2.49
		c0.46,0.99,0.6,2.08,0.79,3.06l0.35-0.08l0-0.38l-5.4-0.03L207.87,95.01l0.35-0.06L207.87,95.01z M188.04,93.11v-0.38
		c-0.85,0-1.57,0.2-2.16,0.56c-0.89,0.55-1.45,1.47-1.77,2.56c-0.33,1.09-0.45,2.37-0.45,3.73c0,1.82,0.23,3.49,0.9,4.76
		c0.33,0.63,0.78,1.16,1.37,1.53c0.58,0.37,1.29,0.56,2.12,0.56c0.83,0,1.54-0.2,2.12-0.56c0.88-0.55,1.45-1.47,1.79-2.56
		c0.34-1.09,0.48-2.37,0.48-3.74c0-1.81-0.2-3.49-0.85-4.76c-0.33-0.63-0.78-1.17-1.37-1.54c-0.59-0.37-1.31-0.56-2.16-0.56V93.11
		v0.38c0.75,0,1.33,0.17,1.8,0.46c0.69,0.43,1.16,1.16,1.46,2.14c0.3,0.98,0.41,2.19,0.41,3.5c0,1.75-0.23,3.32-0.81,4.39
		c-0.29,0.54-0.65,0.96-1.11,1.25c-0.46,0.29-1.03,0.46-1.75,0.46c-0.72,0-1.29-0.17-1.75-0.46c-0.69-0.43-1.17-1.17-1.48-2.14
		c-0.31-0.98-0.44-2.19-0.44-3.5c0-1.75,0.21-3.32,0.77-4.4c0.28-0.54,0.63-0.96,1.1-1.25c0.47-0.29,1.05-0.46,1.8-0.46V93.11z
		 M188.04,88.53v0.38c2.18,0,4.17,1.18,5.64,3.13c1.46,1.95,2.38,4.66,2.38,7.65c0,2.99-0.92,5.7-2.38,7.65
		c-1.47,1.95-3.46,3.13-5.64,3.13c-2.18,0-4.17-1.18-5.64-3.13c-1.46-1.95-2.38-4.66-2.38-7.65c0-2.99,0.92-5.7,2.38-7.65
		c1.47-1.95,3.46-3.13,5.64-3.13V88.53v-0.38c-2.43,0-4.63,1.33-6.2,3.42c-1.57,2.1-2.54,4.96-2.54,8.12c0,3.15,0.97,6.02,2.54,8.12
		c1.57,2.09,3.77,3.42,6.2,3.42c2.44,0,4.63-1.33,6.2-3.42c1.57-2.1,2.54-4.96,2.54-8.12c0-3.16-0.96-6.02-2.54-8.12
		c-1.57-2.09-3.77-3.42-6.2-3.42V88.53z M162.23,89.18v0.38h4.29h0.06l7.89,14.37V89.56h3.6v20.16h-3.75l-7.89-13.86v13.86h-3.84
		V89.11l-0.09-0.14l-0.3,0.21v0.38h0.03V89.18V88.8h-0.03h-0.66l0.33,0.53v21.14h5.28V98.6l6.76,11.88h4.88V88.8h-5.03v12.31
		L167,88.8h-0.48h-4.29V89.18z M142.93,89.18h-0.36v21.3h5.11v-0.38V98.37h7.8v12.11h5.11V88.8h-5.11v4.59h-7.8V88.8h-5.11v0.38
		H142.93v0.38h4.03v4.59h9.23v-4.59h3.68v20.17h-3.68V97.62h-9.23v12.48v0h0.36v-0.38h-4.03V89.18H142.93v0.38V89.18z M137.1,102.72
		v-0.38h-2.91l2.55-4.41v4.79H137.1v-0.38V102.72h0.36v-7.48l-4.55,7.85h4.55v-0.38H137.1z M123.54,110.1l0.3,0.21l12.88-20.75h4.42
		v20.16h-3.68v-3.16h-6.56l-1.83,3.16h-5.53V110.1l0.3,0.21L123.54,110.1v0.38h5.93l1.83-3.16h5.44v3.16h5.12V88.8h-5.52
		l-13.46,21.68h0.66V110.1z M109.28,80.79h-0.36v5.56h6.84v24.12h5.72V86.33h13.58v-5.92l-26.15,0v0.38H109.28v0.38l25.07,0v4.41
		h-13.58v24.14h-4.28V85.6h-6.84v-4.81H109.28v0.38V80.79z"/>
	<polygon class="st124" points="64.1,77.99 64.1,79.76 64.1,85.52 70.73,85.52 70.73,104.97 78.2,104.97 78.2,85.52 95.05,85.52 
		95.05,77.97 	"/>
	<polygon class="st7" points="65.79,79.77 65.79,83.74 72.42,83.74 72.42,103.19 76.51,103.19 76.51,83.73 93.36,83.73 93.36,79.75 
			"/>
	<polygon class="st126" points="65.79,79.77 65.65,79.77 65.65,83.88 72.29,83.88 72.29,103.33 76.64,103.33 76.64,83.88 
		93.5,83.88 93.5,79.61 65.65,79.62 65.65,79.77 65.79,79.77 65.79,79.91 93.22,79.9 93.22,83.59 76.37,83.59 76.37,103.05 
		72.56,103.05 72.56,83.59 65.92,83.59 65.92,79.77 65.79,79.77 65.79,79.91 	"/>
</g>
</svg>
