<?xml version="1.0" encoding="utf-8"?>
<!-- Generator: Adobe Illustrator 27.8.1, SVG Export Plug-In . SVG Version: 6.00 Build 0)  -->
<svg version="1.1" id="Capa_1" xmlns="http://www.w3.org/2000/svg" xmlns:xlink="http://www.w3.org/1999/xlink" x="0px" y="0px"
	 viewBox="0 0 270 160" style="enable-background:new 0 0 270 160;" xml:space="preserve">
<style type="text/css">
	.st0{fill:#D10A11;}
	.st1{fill-rule:evenodd;clip-rule:evenodd;}
	.st2{fill:#FFFFFF;}
	.st3{fill:#2A4270;}
	.st4{fill:#B6ABB1;}
	.st5{fill:#E41D29;}
	.st6{fill:#F4D624;}
	.st7{fill:#282626;}
	.st8{fill:#DC292C;}
	.st9{fill:#666666;}
	.st10{fill:#F1B426;}
	.st11{fill:#0890A0;}
	.st12{fill-rule:evenodd;clip-rule:evenodd;fill:#1D1D1B;}
	.st13{fill-rule:evenodd;clip-rule:evenodd;fill:#FFFFFF;}
	.st14{fill-rule:evenodd;clip-rule:evenodd;fill:#179AD7;}
	.st15{fill:none;}
	.st16{fill-rule:evenodd;clip-rule:evenodd;fill:#272526;}
	
		.st17{clip-path:url(#SVGID_00000088852238598572436510000006353059426243530939_);fill:url(#SVGID_00000127751541750107249780000002537541585622858121_);}
	
		.st18{clip-path:url(#SVGID_00000169516272841561729020000013489978934491985030_);fill:url(#SVGID_00000005987376580421543070000005487163669954057384_);}
	
		.st19{clip-path:url(#SVGID_00000029021445191568851130000017139902428027317141_);fill:url(#SVGID_00000057110958831039702900000018321829101013373361_);}
	
		.st20{clip-path:url(#SVGID_00000048493436256892069180000012171975485960475298_);fill:url(#SVGID_00000074420877254852629040000008569894074008892336_);}
	.st21{fill-rule:evenodd;clip-rule:evenodd;fill:#E5282D;}
	.st22{fill-rule:evenodd;clip-rule:evenodd;fill:#FFEC08;}
	.st23{fill:#6D6E70;}
	.st24{fill:#6E6F71;}
	.st25{fill:#6F7072;}
	.st26{fill:#707173;}
	.st27{fill:#717274;}
	.st28{fill:#727375;}
	.st29{fill:#737476;}
	.st30{fill:#747577;}
	.st31{fill:#757678;}
	.st32{fill:#767779;}
	.st33{fill:#77787A;}
	.st34{fill:#78797B;}
	.st35{fill:#797A7C;}
	.st36{fill:#7A7B7D;}
	.st37{fill:#7B7C7E;}
	.st38{fill:#7C7D7F;}
	.st39{fill:#7D7E80;}
	.st40{fill:#7E7F81;}
	.st41{fill:#7F8082;}
	.st42{fill:#808183;}
	.st43{fill:#818284;}
	.st44{fill:#828385;}
	.st45{fill:#838486;}
	.st46{fill:#848587;}
	.st47{fill:#858688;}
	.st48{fill:#868789;}
	.st49{fill:#87888A;}
	.st50{fill:#88898B;}
	.st51{fill:#898A8C;}
	.st52{fill:#8A8B8D;}
	.st53{fill:#8B8C8E;}
	.st54{fill:#8C8D8F;}
	.st55{fill:#8D8E90;}
	.st56{fill:#8E8F91;}
	.st57{fill:#8F9092;}
	.st58{fill:#909193;}
	.st59{fill:#919294;}
	.st60{fill:#929395;}
	.st61{fill:#939496;}
	.st62{fill:#949597;}
	.st63{fill:#959698;}
	.st64{fill:#969799;}
	.st65{fill:#97989A;}
	.st66{fill:#98999B;}
	.st67{fill:#999A9C;}
	.st68{fill:#9A9B9D;}
	.st69{fill:#9B9C9E;}
	.st70{fill:#9C9D9F;}
	.st71{fill:#9D9EA0;}
	.st72{fill:#9E9FA1;}
	.st73{fill:#9FA0A2;}
	.st74{fill:#A0A1A3;}
	.st75{fill:#A1A2A4;}
	.st76{fill:#A2A3A5;}
	.st77{fill:#A3A4A6;}
	.st78{fill:#A4A5A7;}
	.st79{fill:#A5A6A8;}
	.st80{fill:#A6A7A9;}
	.st81{fill:#A7A8AA;}
	.st82{fill:#A8A9AB;}
	.st83{fill:#A9AAAC;}
	.st84{fill:#AAABAD;}
	.st85{fill:#ABACAE;}
	.st86{fill:#ACADAF;}
	.st87{fill:#ADAEB0;}
	.st88{fill:#AEAFB1;}
	.st89{fill:#AFB0B2;}
	.st90{fill:#B0B1B3;}
	.st91{fill:#B1B2B4;}
	.st92{fill:#B2B3B5;}
	.st93{fill:#B3B4B6;}
	.st94{fill:#B4B5B7;}
	.st95{fill:#B5B6B8;}
	.st96{fill:#B6B7B9;}
	.st97{fill:#B7B8BA;}
	.st98{fill:#B8B9BB;}
	.st99{fill:#B9BABC;}
	.st100{fill:#BABBBD;}
	.st101{fill:#BBBCBE;}
	.st102{fill:#BCBDBF;}
	.st103{fill:#BDBEC0;}
	.st104{fill:#BEBFC1;}
	.st105{fill:#BFC0C2;}
	.st106{fill:#C0C1C3;}
	.st107{fill:#C1C2C4;}
	.st108{fill:#C2C3C5;}
	.st109{fill:#C3C4C6;}
	.st110{fill:#C4C5C7;}
	.st111{fill:#C5C6C8;}
	.st112{fill:#C6C7C9;}
	.st113{fill:#C7C8CA;}
	.st114{fill:#C8C9CB;}
	.st115{fill:#9C212D;}
	.st116{fill:#939698;}
	.st117{fill:#1C3F84;}
	.st118{fill-rule:evenodd;clip-rule:evenodd;fill:#020202;}
	.st119{fill-rule:evenodd;clip-rule:evenodd;fill:#E1242C;}
	.st120{fill-rule:evenodd;clip-rule:evenodd;fill:#C5C6C8;}
	.st121{fill-rule:evenodd;clip-rule:evenodd;fill:#1B1918;}
	.st122{fill:#1280AC;}
	.st123{fill:none;stroke:#1280AC;stroke-width:1.0977;stroke-miterlimit:10;}
	.st124{fill:#F2E632;}
	.st125{fill:#8B8A8D;}
	.st126{fill:#1C171C;}
	.st127{fill:#159947;}
	.st128{fill:#003E92;}
	.st129{fill:#1C1C1C;}
	.st130{fill:#E9580C;}
</style>
<g>
	<g>
		<g>
			<g>
				<path d="M128.18,93h17.86c0.28-0.04,2.15-0.36,3.2-2.08c0.71-1.17,0.64-2.34,0.6-2.75c0.03-0.27,0.2-1.86-0.93-3.24
					c-1.24-1.51-3.02-1.56-3.27-1.56c-3.56,0-7.12,0-10.68,0c-0.51-0.1-0.89-0.52-0.93-1c-0.04-0.55,0.35-1.08,0.93-1.19
					c3.73,0,7.46,0,11.2,0l1.79-3.57h-13.69c-2.34,0.33-4.06,2.37-4.02,4.69c0.04,2.25,1.75,4.18,4.02,4.5c3.72,0,7.44,0,11.16,0
					c0.52,0.16,0.89,0.6,0.93,1.12c0.05,0.59-0.33,1.15-0.93,1.34c-4.97,0-9.95,0-14.92,0L128.18,93z"/>
				<polygon points="167.77,80.17 167.77,93 185.66,93 185.66,89.25 171.78,89.25 171.78,80.17 				"/>
				<polygon points="179.82,80.17 179.82,84.3 187.19,84.3 187.19,93 190.94,93 190.94,84.3 198.23,84.3 198.23,80.17 				"/>
				<path d="M216.16,81.16c-0.58-0.59-1.27-0.7-1.48-0.73c-4.51,0-9.02,0-13.53,0c-0.26,0.03-1.07,0.18-1.73,0.87
					c-0.48,0.5-0.66,1.04-0.73,1.31v8.68c0.11,0.26,0.36,0.77,0.89,1.2c0.67,0.55,1.39,0.65,1.67,0.67c4.59,0,9.17,0,13.76,0
					c0.18-0.03,0.84-0.17,1.34-0.78c0.44-0.54,0.49-1.12,0.5-1.31c0-2.82,0-5.64,0-8.45C216.83,82.41,216.72,81.74,216.16,81.16z
					 M213.21,88.52c0,0.05,0,0.31-0.22,0.52c-0.2,0.19-0.44,0.19-0.49,0.19c-3.15,0-6.31,0-9.46,0c-0.07,0-0.33-0.02-0.55-0.24
					c-0.18-0.18-0.22-0.38-0.23-0.45c0.01-1.13,0.02-2.27,0.03-3.4c0-0.04-0.03-0.37,0.23-0.63c0.25-0.24,0.56-0.21,0.61-0.21
					c3.04,0,6.08,0,9.12,0c0.06,0,0.45,0,0.73,0.32c0.24,0.27,0.24,0.58,0.24,0.65C213.21,86.35,213.21,87.43,213.21,88.52z"/>
				<path d="M160.36,80.17h-4.87L148.72,93h4.99l0.41-0.97h7.33l0.67,0.97h4.95L160.36,80.17z M155.73,88.33l2.16-4.35l1.99,4.35
					H155.73z"/>
			</g>
			<path class="st122" d="M211.39,61.01l-98.66,14.95l13.54,22.77H232.3L211.39,61.01z M119.28,79.02l90.18-13.62l16.37,29.66
				h-97.39L119.28,79.02z"/>
		</g>
		<g>
			<polygon class="st122" points="54.32,62.31 54.32,98.73 67.85,98.73 67.85,93.57 61.44,93.57 61.44,62.31 			"/>
			<polygon class="st122" points="88.44,98.73 88.44,62.31 98.44,62.31 102.27,86.2 102.27,62.31 107.93,62.31 107.93,98.73 
				99.4,98.73 94.15,70.04 94.15,98.73 			"/>
			<path class="st122" d="M83.06,62.31h-9.42l-5.45,36.42h6.63l0.93-9.99h3.46l0.82,9.99h7.47L83.06,62.31z M76.33,83.6l1.34-14.99
				l1.16,14.99H76.33z"/>
			<path class="st122" d="M51.53,66.26c-2.3-4.14-8.93-3.96-9.59-3.94c-2.22,0-4.44,0-6.66,0v36.41h7.27V84.46
				c0.25,0.04,5.45,0.84,8.21-2.69c0.95-1.22,1.29-2.54,1.41-3.43c0-3.43,0-6.86,0-10.3C52.03,67.32,51.79,66.74,51.53,66.26z
				 M45.06,77.89c-0.05,0.2-0.19,0.67-0.61,1.03c-0.79,0.7-1.85,0.43-1.94,0.4V67.55c0.78-0.21,1.58-0.02,2.07,0.5
				c0.36,0.39,0.45,0.85,0.48,1.06C45.06,72.04,45.06,74.97,45.06,77.89z"/>
		</g>
	</g>
	<polygon class="st123" points="238.4,102.96 31.6,102.96 31.6,57.64 112.74,57.64 112.74,71.9 213.21,57.04 	"/>
</g>
</svg>
