<?xml version="1.0" encoding="utf-8"?>
<!-- Generator: Adobe Illustrator 27.8.1, SVG Export Plug-In . SVG Version: 6.00 Build 0)  -->
<svg version="1.1" id="Capa_1" xmlns="http://www.w3.org/2000/svg" xmlns:xlink="http://www.w3.org/1999/xlink" x="0px" y="0px"
	 viewBox="0 0 270 160" style="enable-background:new 0 0 270 160;" xml:space="preserve">
<style type="text/css">
	.st0{fill:#D10A11;}
	.st1{fill-rule:evenodd;clip-rule:evenodd;}
	.st2{fill:#FFFFFF;}
	.st3{fill:#2A4270;}
	.st4{fill:#B6ABB1;}
	.st5{fill:#E41D29;}
	.st6{fill:#F4D624;}
	.st7{fill:#282626;}
	.st8{fill:#DC292C;}
	.st9{fill:#666666;}
	.st10{fill:#F1B426;}
	.st11{fill:#0890A0;}
	.st12{fill-rule:evenodd;clip-rule:evenodd;fill:#1D1D1B;}
	.st13{fill-rule:evenodd;clip-rule:evenodd;fill:#FFFFFF;}
	.st14{fill-rule:evenodd;clip-rule:evenodd;fill:#179AD7;}
	.st15{fill:none;}
	.st16{fill-rule:evenodd;clip-rule:evenodd;fill:#272526;}
	
		.st17{clip-path:url(#SVGID_00000124149376304686778300000013744251477888008607_);fill:url(#SVGID_00000176037384495606881850000007373359082014081424_);}
	
		.st18{clip-path:url(#SVGID_00000071531417856946421820000001982058754793215893_);fill:url(#SVGID_00000122683348133947778600000001355212075752578723_);}
	
		.st19{clip-path:url(#SVGID_00000124153862035172935020000012113938029107816880_);fill:url(#SVGID_00000155125422491032203150000008377998997689137284_);}
	
		.st20{clip-path:url(#SVGID_00000140732840998530452770000008121627924407046046_);fill:url(#SVGID_00000080207683440122166040000008472487891128060837_);}
	.st21{fill-rule:evenodd;clip-rule:evenodd;fill:#E5282D;}
	.st22{fill-rule:evenodd;clip-rule:evenodd;fill:#FFEC08;}
	.st23{fill:#6D6E70;}
	.st24{fill:#6E6F71;}
	.st25{fill:#6F7072;}
	.st26{fill:#707173;}
	.st27{fill:#717274;}
	.st28{fill:#727375;}
	.st29{fill:#737476;}
	.st30{fill:#747577;}
	.st31{fill:#757678;}
	.st32{fill:#767779;}
	.st33{fill:#77787A;}
	.st34{fill:#78797B;}
	.st35{fill:#797A7C;}
	.st36{fill:#7A7B7D;}
	.st37{fill:#7B7C7E;}
	.st38{fill:#7C7D7F;}
	.st39{fill:#7D7E80;}
	.st40{fill:#7E7F81;}
	.st41{fill:#7F8082;}
	.st42{fill:#808183;}
	.st43{fill:#818284;}
	.st44{fill:#828385;}
	.st45{fill:#838486;}
	.st46{fill:#848587;}
	.st47{fill:#858688;}
	.st48{fill:#868789;}
	.st49{fill:#87888A;}
	.st50{fill:#88898B;}
	.st51{fill:#898A8C;}
	.st52{fill:#8A8B8D;}
	.st53{fill:#8B8C8E;}
	.st54{fill:#8C8D8F;}
	.st55{fill:#8D8E90;}
	.st56{fill:#8E8F91;}
	.st57{fill:#8F9092;}
	.st58{fill:#909193;}
	.st59{fill:#919294;}
	.st60{fill:#929395;}
	.st61{fill:#939496;}
	.st62{fill:#949597;}
	.st63{fill:#959698;}
	.st64{fill:#969799;}
	.st65{fill:#97989A;}
	.st66{fill:#98999B;}
	.st67{fill:#999A9C;}
	.st68{fill:#9A9B9D;}
	.st69{fill:#9B9C9E;}
	.st70{fill:#9C9D9F;}
	.st71{fill:#9D9EA0;}
	.st72{fill:#9E9FA1;}
	.st73{fill:#9FA0A2;}
	.st74{fill:#A0A1A3;}
	.st75{fill:#A1A2A4;}
	.st76{fill:#A2A3A5;}
	.st77{fill:#A3A4A6;}
	.st78{fill:#A4A5A7;}
	.st79{fill:#A5A6A8;}
	.st80{fill:#A6A7A9;}
	.st81{fill:#A7A8AA;}
	.st82{fill:#A8A9AB;}
	.st83{fill:#A9AAAC;}
	.st84{fill:#AAABAD;}
	.st85{fill:#ABACAE;}
	.st86{fill:#ACADAF;}
	.st87{fill:#ADAEB0;}
	.st88{fill:#AEAFB1;}
	.st89{fill:#AFB0B2;}
	.st90{fill:#B0B1B3;}
	.st91{fill:#B1B2B4;}
	.st92{fill:#B2B3B5;}
	.st93{fill:#B3B4B6;}
	.st94{fill:#B4B5B7;}
	.st95{fill:#B5B6B8;}
	.st96{fill:#B6B7B9;}
	.st97{fill:#B7B8BA;}
	.st98{fill:#B8B9BB;}
	.st99{fill:#B9BABC;}
	.st100{fill:#BABBBD;}
	.st101{fill:#BBBCBE;}
	.st102{fill:#BCBDBF;}
	.st103{fill:#BDBEC0;}
	.st104{fill:#BEBFC1;}
	.st105{fill:#BFC0C2;}
	.st106{fill:#C0C1C3;}
	.st107{fill:#C1C2C4;}
	.st108{fill:#C2C3C5;}
	.st109{fill:#C3C4C6;}
	.st110{fill:#C4C5C7;}
	.st111{fill:#C5C6C8;}
	.st112{fill:#C6C7C9;}
	.st113{fill:#C7C8CA;}
	.st114{fill:#C8C9CB;}
	.st115{fill:#9C212D;}
	.st116{fill:#939698;}
	.st117{fill:#1C3F84;}
	.st118{fill-rule:evenodd;clip-rule:evenodd;fill:#020202;}
	.st119{fill-rule:evenodd;clip-rule:evenodd;fill:#E1242C;}
	.st120{fill-rule:evenodd;clip-rule:evenodd;fill:#C5C6C8;}
	.st121{fill-rule:evenodd;clip-rule:evenodd;fill:#1B1918;}
	.st122{fill:#1280AC;}
	.st123{fill:none;stroke:#1280AC;stroke-width:1.0977;stroke-miterlimit:10;}
	.st124{fill:#F2E632;}
	.st125{fill:#8B8A8D;}
	.st126{fill:#1C171C;}
	.st127{fill:#159947;}
	.st128{fill:#003E92;}
	.st129{fill:#1C1C1C;}
	.st130{fill:#E9580C;}
</style>
<g>
	<rect x="61.15" y="32.52" class="st15" width="147.7" height="94.95"/>
	<g>
		<g>
			<path class="st23" d="M131.82,121.28c-22.76,0-41.28-18.52-41.28-41.28c0-22.76,18.52-41.28,41.28-41.28
				c22.76,0,41.28,18.52,41.28,41.28C173.1,102.76,154.58,121.28,131.82,121.28L131.82,121.28z"/>
			<path class="st24" d="M131.82,38.81c22.71,0,41.19,18.48,41.19,41.19c0,22.71-18.48,41.19-41.19,41.19
				c-22.71,0-41.19-18.48-41.19-41.19C90.63,57.29,109.11,38.81,131.82,38.81z"/>
			<path class="st25" d="M131.82,38.89c22.67,0,41.11,18.44,41.11,41.11c0,22.66-18.44,41.11-41.11,41.11
				c-22.67,0-41.1-18.44-41.1-41.11C90.72,57.33,109.15,38.89,131.82,38.89z"/>
			<path class="st26" d="M131.82,38.98c22.62,0,41.02,18.4,41.02,41.02c0,22.62-18.4,41.02-41.02,41.02
				c-22.62,0-41.02-18.4-41.02-41.02C90.8,57.38,109.2,38.98,131.82,38.98z"/>
			<path class="st27" d="M131.82,39.07c22.57,0,40.93,18.36,40.93,40.93c0,22.57-18.36,40.93-40.93,40.93
				c-22.57,0-40.93-18.36-40.93-40.93C90.89,57.43,109.25,39.07,131.82,39.07z"/>
			<path class="st28" d="M131.82,39.16c22.52,0,40.84,18.32,40.84,40.84c0,22.52-18.32,40.84-40.84,40.84
				c-22.52,0-40.84-18.32-40.84-40.84C90.98,57.48,109.3,39.16,131.82,39.16z"/>
			<path class="st29" d="M131.82,39.24c22.47,0,40.76,18.28,40.76,40.76c0,22.47-18.28,40.76-40.76,40.76
				c-22.48,0-40.75-18.28-40.75-40.76C91.07,57.53,109.35,39.24,131.82,39.24z"/>
			<path class="st30" d="M131.82,39.33c22.43,0,40.67,18.24,40.67,40.67c0,22.43-18.24,40.67-40.67,40.67
				c-22.43,0-40.67-18.24-40.67-40.67C91.15,57.57,109.39,39.33,131.82,39.33z"/>
			<path class="st31" d="M131.82,39.42c22.38,0,40.58,18.2,40.58,40.58c0,22.38-18.2,40.58-40.58,40.58
				c-22.38,0-40.58-18.2-40.58-40.58C91.24,57.62,109.44,39.42,131.82,39.42z"/>
			<path class="st32" d="M131.82,39.51c22.33,0,40.49,18.16,40.49,40.49c0,22.33-18.16,40.49-40.49,40.49
				c-22.33,0-40.49-18.16-40.49-40.49C91.33,57.67,109.49,39.51,131.82,39.51z"/>
			<path class="st33" d="M131.82,39.59c22.28,0,40.41,18.12,40.41,40.41c0,22.28-18.12,40.41-40.41,40.41
				c-22.28,0-40.41-18.12-40.41-40.41C91.42,57.72,109.54,39.59,131.82,39.59z"/>
			<path class="st34" d="M131.82,39.68c22.23,0,40.32,18.08,40.32,40.32c0,22.23-18.09,40.32-40.32,40.32
				c-22.24,0-40.32-18.09-40.32-40.32C91.5,57.77,109.59,39.68,131.82,39.68z"/>
			<path class="st35" d="M131.82,39.77c22.19,0,40.23,18.04,40.23,40.23c0,22.19-18.05,40.23-40.23,40.23
				c-22.19,0-40.23-18.05-40.23-40.23C91.59,57.81,109.63,39.77,131.82,39.77z"/>
			<path class="st36" d="M131.82,39.86c22.14,0,40.15,18,40.15,40.14c0,22.14-18.01,40.14-40.15,40.14
				c-22.14,0-40.14-18.01-40.14-40.14C91.68,57.86,109.68,39.86,131.82,39.86z"/>
			<path class="st37" d="M131.82,39.94c22.09,0,40.06,17.97,40.06,40.06c0,22.09-17.97,40.06-40.06,40.06
				c-22.09,0-40.06-17.97-40.06-40.06C91.77,57.91,109.73,39.94,131.82,39.94z"/>
			<path class="st38" d="M131.82,40.03c22.04,0,39.97,17.93,39.97,39.97c0,22.04-17.93,39.97-39.97,39.97
				c-22.04,0-39.97-17.93-39.97-39.97C91.85,57.96,109.78,40.03,131.82,40.03z"/>
			<path class="st39" d="M131.82,40.12c22,0,39.88,17.89,39.88,39.88c0,21.99-17.89,39.88-39.88,39.88
				c-22,0-39.88-17.89-39.88-39.88C91.94,58,109.83,40.12,131.82,40.12z"/>
			<path class="st40" d="M131.82,40.21c21.95,0,39.8,17.85,39.8,39.79c0,21.95-17.85,39.79-39.8,39.79
				c-21.95,0-39.79-17.85-39.79-39.79C92.03,58.05,109.87,40.21,131.82,40.21z"/>
			<path class="st41" d="M131.82,40.29c21.9,0,39.71,17.81,39.71,39.71c0,21.9-17.81,39.71-39.71,39.71
				c-21.9,0-39.71-17.81-39.71-39.71C92.12,58.1,109.92,40.29,131.82,40.29z"/>
			<path class="st42" d="M131.82,40.38c21.85,0,39.62,17.77,39.62,39.62c0,21.85-17.77,39.62-39.62,39.62
				c-21.85,0-39.62-17.77-39.62-39.62C92.2,58.15,109.97,40.38,131.82,40.38z"/>
			<path class="st43" d="M131.82,40.47c21.8,0,39.53,17.73,39.53,39.53c0,21.8-17.73,39.53-39.53,39.53
				c-21.8,0-39.53-17.73-39.53-39.53C92.29,58.2,110.02,40.47,131.82,40.47z"/>
			<path class="st44" d="M131.82,40.56c21.76,0,39.45,17.69,39.45,39.45c0,21.75-17.69,39.44-39.45,39.44
				c-21.76,0-39.44-17.69-39.44-39.44C92.38,58.24,110.06,40.56,131.82,40.56z"/>
			<path class="st45" d="M131.82,40.64c21.71,0,39.36,17.65,39.36,39.36c0,21.71-17.65,39.36-39.36,39.36
				c-21.71,0-39.36-17.65-39.36-39.36C92.47,58.29,110.11,40.64,131.82,40.64z"/>
			<path class="st46" d="M131.82,40.73c21.66,0,39.27,17.61,39.27,39.27c0,21.66-17.61,39.27-39.27,39.27
				c-21.66,0-39.27-17.61-39.27-39.27C92.55,58.34,110.16,40.73,131.82,40.73z"/>
			<path class="st47" d="M131.82,40.82c21.61,0,39.18,17.57,39.18,39.18c0,21.61-17.57,39.18-39.18,39.18
				c-21.61,0-39.18-17.57-39.18-39.18C92.64,58.39,110.21,40.82,131.82,40.82z"/>
			<path class="st48" d="M131.82,40.91c21.56,0,39.1,17.53,39.1,39.1c0,21.56-17.53,39.09-39.1,39.09
				c-21.57,0-39.09-17.53-39.09-39.09C92.73,58.44,110.26,40.91,131.82,40.91z"/>
			<path class="st49" d="M131.82,40.99c21.52,0,39.01,17.49,39.01,39.01c0,21.52-17.49,39.01-39.01,39.01
				c-21.52,0-39.01-17.49-39.01-39.01C92.81,58.48,110.3,40.99,131.82,40.99z"/>
			<path class="st50" d="M131.82,41.08c21.47,0,38.92,17.45,38.92,38.92c0,21.47-17.45,38.92-38.92,38.92
				c-21.47,0-38.92-17.45-38.92-38.92C92.9,58.53,110.35,41.08,131.82,41.08z"/>
			<path class="st51" d="M131.82,41.17c21.42,0,38.83,17.41,38.83,38.83c0,21.42-17.41,38.83-38.83,38.83
				c-21.42,0-38.83-17.41-38.83-38.83C92.99,58.58,110.4,41.17,131.82,41.17z"/>
			<path class="st52" d="M131.82,41.26c21.37,0,38.75,17.37,38.75,38.75c0,21.37-17.37,38.75-38.75,38.75
				c-21.37,0-38.74-17.37-38.74-38.75C93.08,58.63,110.45,41.26,131.82,41.26z"/>
			<path class="st53" d="M131.82,41.34c21.32,0,38.66,17.33,38.66,38.66c0,21.32-17.33,38.66-38.66,38.66
				c-21.33,0-38.66-17.33-38.66-38.66C93.16,58.67,110.5,41.34,131.82,41.34z"/>
			<path class="st54" d="M131.82,41.43c21.28,0,38.57,17.29,38.57,38.57c0,21.28-17.29,38.57-38.57,38.57
				c-21.28,0-38.57-17.29-38.57-38.57C93.25,58.72,110.54,41.43,131.82,41.43z"/>
			<path class="st55" d="M131.82,41.52c21.23,0,38.48,17.25,38.48,38.48c0,21.23-17.26,38.48-38.48,38.48
				c-21.23,0-38.48-17.25-38.48-38.48C93.34,58.77,110.59,41.52,131.82,41.52z"/>
			<path class="st56" d="M131.82,41.6c21.18,0,38.4,17.21,38.4,38.4c0,21.18-17.22,38.4-38.4,38.4c-21.18,0-38.39-17.22-38.39-38.4
				C93.43,58.82,110.64,41.6,131.82,41.6z"/>
			<path class="st57" d="M131.82,41.69c21.13,0,38.31,17.17,38.31,38.31c0,21.13-17.18,38.31-38.31,38.31
				c-21.13,0-38.31-17.18-38.31-38.31C93.51,58.87,110.69,41.69,131.82,41.69z"/>
			<path class="st58" d="M131.82,41.78c21.09,0,38.22,17.13,38.22,38.22c0,21.08-17.14,38.22-38.22,38.22
				c-21.09,0-38.22-17.14-38.22-38.22C93.6,58.91,110.74,41.78,131.82,41.78z"/>
			<path class="st59" d="M131.82,41.87c21.04,0,38.13,17.09,38.13,38.13c0,21.04-17.1,38.13-38.13,38.13
				c-21.04,0-38.13-17.1-38.13-38.13C93.69,58.96,110.78,41.87,131.82,41.87z"/>
			<path class="st60" d="M131.82,41.95c20.99,0,38.05,17.06,38.05,38.05c0,20.99-17.06,38.05-38.05,38.05
				c-20.99,0-38.05-17.06-38.05-38.05C93.78,59.01,110.83,41.95,131.82,41.95z"/>
			<path class="st61" d="M131.82,42.04c20.94,0,37.96,17.02,37.96,37.96c0,20.94-17.02,37.96-37.96,37.96
				c-20.94,0-37.96-17.02-37.96-37.96C93.86,59.06,110.88,42.04,131.82,42.04z"/>
			<path class="st62" d="M131.82,42.13c20.89,0,37.87,16.98,37.87,37.87c0,20.89-16.98,37.87-37.87,37.87
				c-20.89,0-37.87-16.98-37.87-37.87C93.95,59.11,110.93,42.13,131.82,42.13z"/>
			<path class="st63" d="M131.82,42.22c20.85,0,37.78,16.94,37.78,37.78c0,20.85-16.94,37.78-37.78,37.78
				c-20.85,0-37.78-16.94-37.78-37.78C94.04,59.15,110.98,42.22,131.82,42.22z"/>
			<path class="st64" d="M131.82,42.3c20.8,0,37.7,16.9,37.7,37.7c0,20.8-16.9,37.7-37.7,37.7c-20.8,0-37.7-16.9-37.7-37.7
				C94.13,59.2,111.02,42.3,131.82,42.3z"/>
			<path class="st65" d="M131.82,42.39c20.75,0,37.61,16.86,37.61,37.61c0,20.75-16.86,37.61-37.61,37.61
				c-20.75,0-37.61-16.86-37.61-37.61C94.21,59.25,111.07,42.39,131.82,42.39z"/>
			<path class="st66" d="M131.82,42.48c20.7,0,37.52,16.82,37.52,37.52c0,20.7-16.82,37.52-37.52,37.52
				c-20.7,0-37.52-16.82-37.52-37.52C94.3,59.3,111.12,42.48,131.82,42.48z"/>
			<path class="st67" d="M131.82,42.57c20.65,0,37.44,16.78,37.44,37.43c0,20.65-16.78,37.43-37.44,37.43
				c-20.65,0-37.43-16.78-37.43-37.43C94.39,59.34,111.17,42.57,131.82,42.57z"/>
			<path class="st68" d="M131.82,42.65c20.61,0,37.35,16.74,37.35,37.35c0,20.61-16.74,37.35-37.35,37.35
				c-20.61,0-37.35-16.74-37.35-37.35C94.48,59.39,111.21,42.65,131.82,42.65z"/>
			<path class="st68" d="M131.82,42.74c20.56,0,37.26,16.7,37.26,37.26c0,20.56-16.7,37.26-37.26,37.26
				c-20.56,0-37.26-16.7-37.26-37.26C94.56,59.44,111.26,42.74,131.82,42.74z"/>
			<path class="st69" d="M131.82,42.83c20.51,0,37.17,16.66,37.17,37.17c0,20.51-16.66,37.17-37.17,37.17
				c-20.51,0-37.17-16.66-37.17-37.17C94.65,59.49,111.31,42.83,131.82,42.83z"/>
			<path class="st70" d="M131.82,42.92c20.46,0,37.09,16.62,37.09,37.08c0,20.46-16.62,37.08-37.09,37.08
				c-20.46,0-37.08-16.62-37.08-37.08C94.74,59.54,111.36,42.92,131.82,42.92z"/>
			<path class="st71" d="M131.82,43c20.41,0,37,16.58,37,37c0,20.41-16.58,37-37,37c-20.42,0-37-16.58-37-37
				C94.83,59.58,111.41,43,131.82,43z"/>
			<path class="st72" d="M131.82,43.09c20.37,0,36.91,16.54,36.91,36.91c0,20.37-16.54,36.91-36.91,36.91
				c-20.37,0-36.91-16.54-36.91-36.91C94.91,59.63,111.45,43.09,131.82,43.09z"/>
			<path class="st73" d="M131.82,43.18c20.32,0,36.82,16.5,36.82,36.82c0,20.32-16.5,36.82-36.82,36.82
				C111.5,116.82,95,100.32,95,80C95,59.68,111.5,43.18,131.82,43.18z"/>
			<path class="st74" d="M131.82,43.27c20.27,0,36.74,16.46,36.74,36.73c0,20.27-16.46,36.73-36.74,36.73
				c-20.27,0-36.73-16.46-36.73-36.73C95.09,59.73,111.55,43.27,131.82,43.27z"/>
			<path class="st75" d="M131.82,43.35c20.22,0,36.65,16.42,36.65,36.65c0,20.22-16.42,36.65-36.65,36.65
				c-20.22,0-36.65-16.42-36.65-36.65C95.17,59.78,111.6,43.35,131.82,43.35z"/>
			<path class="st76" d="M131.82,43.44c20.18,0,36.56,16.38,36.56,36.56c0,20.17-16.39,36.56-36.56,36.56
				c-20.18,0-36.56-16.38-36.56-36.56C95.26,59.82,111.65,43.44,131.82,43.44z"/>
			<path class="st77" d="M131.82,43.53c20.13,0,36.47,16.34,36.47,36.47c0,20.13-16.35,36.47-36.47,36.47
				c-20.13,0-36.47-16.34-36.47-36.47C95.35,59.87,111.69,43.53,131.82,43.53z"/>
			<path class="st78" d="M131.82,43.62c20.08,0,36.39,16.3,36.39,36.38c0,20.08-16.31,36.38-36.39,36.38
				c-20.08,0-36.38-16.31-36.38-36.38C95.44,59.92,111.74,43.62,131.82,43.62z"/>
			<path class="st79" d="M131.82,43.7c20.03,0,36.3,16.26,36.3,36.3c0,20.03-16.27,36.3-36.3,36.3c-20.03,0-36.3-16.27-36.3-36.3
				C95.52,59.97,111.79,43.7,131.82,43.7z"/>
			<path class="st80" d="M131.82,43.79c19.98,0,36.21,16.22,36.21,36.21c0,19.98-16.23,36.21-36.21,36.21
				c-19.98,0-36.21-16.23-36.21-36.21C95.61,60.01,111.84,43.79,131.82,43.79z"/>
			<path class="st81" d="M131.82,43.88c19.94,0,36.12,16.18,36.12,36.12c0,19.94-16.19,36.12-36.12,36.12
				c-19.94,0-36.12-16.19-36.12-36.12C95.7,60.06,111.89,43.88,131.82,43.88z"/>
			<path class="st82" d="M131.82,43.97c19.89,0,36.04,16.15,36.04,36.04c0,19.89-16.15,36.03-36.04,36.03
				c-19.89,0-36.04-16.15-36.04-36.03C95.79,60.11,111.93,43.97,131.82,43.97z"/>
			<path class="st83" d="M131.82,44.05c19.84,0,35.95,16.11,35.95,35.95c0,19.84-16.11,35.95-35.95,35.95
				c-19.84,0-35.95-16.11-35.95-35.95C95.87,60.16,111.98,44.05,131.82,44.05z"/>
			<path class="st84" d="M131.82,44.14c19.79,0,35.86,16.07,35.86,35.86c0,19.79-16.07,35.86-35.86,35.86
				c-19.79,0-35.86-16.07-35.86-35.86C95.96,60.21,112.03,44.14,131.82,44.14z"/>
			<path class="st85" d="M131.82,44.23c19.74,0,35.77,16.03,35.77,35.77c0,19.74-16.03,35.77-35.77,35.77
				c-19.74,0-35.77-16.03-35.77-35.77C96.05,60.25,112.08,44.23,131.82,44.23z"/>
			<path class="st86" d="M131.82,44.32c19.7,0,35.69,15.99,35.69,35.69c0,19.7-15.99,35.68-35.69,35.68
				c-19.7,0-35.69-15.99-35.69-35.68C96.14,60.3,112.12,44.32,131.82,44.32z"/>
			<path class="st87" d="M131.82,44.4c19.65,0,35.6,15.95,35.6,35.6c0,19.65-15.95,35.6-35.6,35.6c-19.65,0-35.6-15.95-35.6-35.6
				C96.22,60.35,112.17,44.4,131.82,44.4z"/>
			<path class="st88" d="M131.82,44.49c19.6,0,35.51,15.91,35.51,35.51c0,19.6-15.91,35.51-35.51,35.51
				c-19.6,0-35.51-15.91-35.51-35.51C96.31,60.4,112.22,44.49,131.82,44.49z"/>
			<path class="st89" d="M131.82,44.58c19.55,0,35.42,15.87,35.42,35.42c0,19.55-15.87,35.42-35.42,35.42
				c-19.55,0-35.42-15.87-35.42-35.42C96.4,60.45,112.27,44.58,131.82,44.58z"/>
			<path class="st90" d="M131.82,44.66c19.5,0,35.34,15.83,35.34,35.34c0,19.5-15.83,35.33-35.34,35.33
				c-19.51,0-35.34-15.83-35.34-35.33C96.49,60.49,112.32,44.66,131.82,44.66z"/>
			<path class="st91" d="M131.82,44.75c19.46,0,35.25,15.79,35.25,35.25c0,19.46-15.79,35.25-35.25,35.25
				c-19.46,0-35.25-15.79-35.25-35.25C96.57,60.54,112.36,44.75,131.82,44.75z"/>
			<path class="st92" d="M131.82,44.84c19.41,0,35.16,15.75,35.16,35.16c0,19.41-15.75,35.16-35.16,35.16
				c-19.41,0-35.16-15.75-35.16-35.16C96.66,60.59,112.41,44.84,131.82,44.84z"/>
			<path class="st93" d="M131.82,44.93c19.36,0,35.07,15.71,35.07,35.07c0,19.36-15.71,35.07-35.07,35.07
				c-19.36,0-35.07-15.71-35.07-35.07C96.75,60.64,112.46,44.93,131.82,44.93z"/>
			<path class="st94" d="M131.82,45.01c19.31,0,34.99,15.67,34.99,34.99c0,19.31-15.67,34.99-34.99,34.99
				c-19.31,0-34.99-15.67-34.99-34.99C96.84,60.68,112.51,45.01,131.82,45.01z"/>
			<path class="st95" d="M131.82,45.1c19.27,0,34.9,15.63,34.9,34.9c0,19.26-15.63,34.9-34.9,34.9c-19.27,0-34.9-15.63-34.9-34.9
				C96.92,60.73,112.56,45.1,131.82,45.1z"/>
			<path class="st96" d="M131.82,45.19c19.22,0,34.81,15.59,34.81,34.81c0,19.22-15.59,34.81-34.81,34.81
				c-19.22,0-34.81-15.59-34.81-34.81C97.01,60.78,112.6,45.19,131.82,45.19z"/>
			<path class="st97" d="M131.82,45.28c19.17,0,34.72,15.55,34.72,34.72c0,19.17-15.56,34.72-34.72,34.72
				c-19.17,0-34.72-15.55-34.72-34.72C97.1,60.83,112.65,45.28,131.82,45.28z"/>
			<path class="st98" d="M131.82,45.36c19.12,0,34.64,15.51,34.64,34.64c0,19.12-15.52,34.64-34.64,34.64
				c-19.12,0-34.64-15.51-34.64-34.64C97.19,60.88,112.7,45.36,131.82,45.36z"/>
			<path class="st99" d="M131.82,45.45c19.07,0,34.55,15.47,34.55,34.55c0,19.07-15.48,34.55-34.55,34.55
				c-19.07,0-34.55-15.47-34.55-34.55C97.27,60.92,112.75,45.45,131.82,45.45z"/>
			<path class="st100" d="M131.82,45.54c19.03,0,34.46,15.43,34.46,34.46c0,19.03-15.44,34.46-34.46,34.46
				c-19.03,0-34.46-15.44-34.46-34.46C97.36,60.97,112.8,45.54,131.82,45.54z"/>
			<path class="st101" d="M131.82,45.63c18.98,0,34.38,15.39,34.38,34.37c0,18.98-15.4,34.37-34.38,34.37
				c-18.98,0-34.37-15.4-34.37-34.37C97.45,61.02,112.84,45.63,131.82,45.63z"/>
			<path class="st102" d="M131.82,45.71c18.93,0,34.29,15.35,34.29,34.29c0,18.93-15.36,34.29-34.29,34.29
				c-18.93,0-34.29-15.36-34.29-34.29C97.53,61.07,112.89,45.71,131.82,45.71z"/>
			<path class="st103" d="M131.82,45.8c18.88,0,34.2,15.31,34.2,34.2c0,18.88-15.32,34.2-34.2,34.2c-18.88,0-34.2-15.32-34.2-34.2
				C97.62,61.12,112.94,45.8,131.82,45.8z"/>
			<path class="st104" d="M131.82,45.89c18.83,0,34.11,15.27,34.11,34.11c0,18.83-15.28,34.11-34.11,34.11
				c-18.83,0-34.11-15.28-34.11-34.11C97.71,61.16,112.99,45.89,131.82,45.89z"/>
			<path class="st105" d="M131.82,45.98c18.79,0,34.03,15.24,34.03,34.02c0,18.79-15.24,34.02-34.03,34.02
				c-18.79,0-34.02-15.24-34.02-34.02C97.8,61.21,113.03,45.98,131.82,45.98z"/>
			<path class="st106" d="M131.82,46.06c18.74,0,33.94,15.2,33.94,33.94c0,18.74-15.2,33.94-33.94,33.94
				c-18.74,0-33.94-15.2-33.94-33.94C97.88,61.26,113.08,46.06,131.82,46.06z"/>
			<path class="st107" d="M131.82,46.15c18.69,0,33.85,15.16,33.85,33.85c0,18.69-15.16,33.85-33.85,33.85
				c-18.69,0-33.85-15.16-33.85-33.85C97.97,61.31,113.13,46.15,131.82,46.15z"/>
			<path class="st108" d="M131.82,46.24c18.64,0,33.76,15.12,33.76,33.76c0,18.64-15.12,33.76-33.76,33.76
				c-18.64,0-33.76-15.12-33.76-33.76C98.06,61.36,113.18,46.24,131.82,46.24z"/>
			<path class="st109" d="M131.82,46.33c18.59,0,33.68,15.08,33.68,33.67c0,18.59-15.08,33.67-33.68,33.67
				c-18.6,0-33.68-15.08-33.68-33.67C98.15,61.4,113.23,46.33,131.82,46.33z"/>
			<path class="st110" d="M131.82,46.41c18.55,0,33.59,15.04,33.59,33.59c0,18.55-15.04,33.59-33.59,33.59
				c-18.55,0-33.59-15.04-33.59-33.59C98.23,61.45,113.27,46.41,131.82,46.41z"/>
			<path class="st111" d="M131.82,46.5c18.5,0,33.5,15,33.5,33.5c0,18.5-15,33.5-33.5,33.5c-18.5,0-33.5-15-33.5-33.5
				C98.32,61.5,113.32,46.5,131.82,46.5z"/>
			<path class="st112" d="M131.82,46.59c18.45,0,33.41,14.96,33.41,33.41c0,18.45-14.96,33.41-33.41,33.41
				c-18.45,0-33.41-14.96-33.41-33.41C98.41,61.55,113.37,46.59,131.82,46.59z"/>
			<path class="st113" d="M131.82,46.68c18.4,0,33.33,14.92,33.33,33.32c0,18.4-14.92,33.32-33.33,33.32
				c-18.4,0-33.33-14.92-33.33-33.32C98.5,61.59,113.42,46.68,131.82,46.68z"/>
			<path class="st114" d="M165.06,80c0,18.35-14.88,33.24-33.24,33.24c-18.36,0-33.24-14.88-33.24-33.24
				c0-18.36,14.88-33.24,33.24-33.24C150.18,46.76,165.06,61.64,165.06,80z"/>
		</g>
		<path class="st2" d="M165.57,80c0,18.35-14.88,33.24-33.24,33.24c-18.35,0-33.24-14.88-33.24-33.24
			c0-18.36,14.88-33.24,33.24-33.24C150.69,46.76,165.57,61.64,165.57,80z"/>
		<polygon class="st115" points="128.78,52.62 170.84,75.25 100.53,117.48 149.42,75.77 		"/>
		<polygon class="st116" points="141.3,86.79 141.11,76.07 133.46,86.79 129.26,86.79 127.19,76.44 123.09,86.79 114.86,86.79 
			123.93,63.71 130.66,63.71 134.26,74.06 140.42,63.71 149.42,63.71 149.42,86.79 		"/>
		<path class="st2" d="M148.62,85.98h-6.52l-0.22-12.36l-8.83,12.36h-3.13l-2.47-12.36l-4.9,12.36h-6.5l8.44-21.47h5.61l3.99,11.45
			l6.8-11.45h7.74V85.98z"/>
		<path class="st2" d="M173.76,102.53c-2.19,0-3.92-0.73-5.14-2.17c-0.09-0.1-0.17-0.2-0.24-0.3c-0.8,0.83-1.75,1.43-2.83,1.78
			c-0.68,0.22-1.36,0.33-2.05,0.33h-6.99l-0.54-1.77h-2.27l-0.87,1.77h-6.09l-3.12-4.23l-0.34,4.23h-5.01l0.08-0.95
			c-1.24,0.87-2.72,1.31-4.43,1.31c-2.2,0-3.93-0.73-5.14-2.17c-0.09-0.1-0.17-0.2-0.25-0.3c-0.8,0.83-1.75,1.43-2.83,1.78
			c-0.68,0.22-1.37,0.33-2.05,0.33h-12.4l-0.54-1.77h-2.27l-0.87,1.77h-6.27l-0.07-4.71l-2.3,4.71H95.7l-0.63-4.51l-1.46,4.51H88.8
			l4.57-14.24h4.79l0.54,4.89l2.65-4.89h5v5.53l1.77-3.67h4.54l1.02,3.23l0.26-3.23h5.01l-0.63,7.93h0.39l0.63-7.93h5.11
			c1.21,0,2.33,0.33,3.32,0.97c0.5,0.33,0.94,0.72,1.31,1.17c0.1-0.12,0.21-0.23,0.32-0.34c1.4-1.4,3.2-2.1,5.37-2.1
			c1.78,0,3.25,0.48,4.4,1.42l0.09-1.12h4.36l3.12,4.23l0.33-4.23h5.02l-0.26,3.23l1.56-3.23h4.54l1.02,3.24l0.26-3.24h5.11
			c1.21,0,2.33,0.33,3.32,0.97c0.5,0.33,0.94,0.72,1.31,1.17c0.1-0.12,0.21-0.23,0.32-0.34c1.4-1.4,3.21-2.1,5.37-2.1
			c2.2,0,3.93,0.73,5.15,2.17c1.07,1.27,1.54,2.76,1.41,4.44c-0.13,1.64-0.82,3.1-2.05,4.33
			C177.72,101.83,175.92,102.53,173.76,102.53L173.76,102.53z M174.41,94.29c-0.42,0-0.79,0.11-1.16,0.34
			c-0.35,0.22-0.62,0.52-0.78,0.88c-0.09,0.2-0.15,0.4-0.16,0.6c-0.03,0.4,0.07,0.72,0.32,1.04c0.33,0.4,0.73,0.58,1.33,0.58
			c0.63,0,1.13-0.21,1.57-0.66c0.34-0.34,0.51-0.71,0.54-1.15c0.04-0.42-0.06-0.74-0.31-1.04C175.42,94.48,175,94.29,174.41,94.29
			L174.41,94.29z M134.55,94.29c-0.41,0-0.81,0.11-1.16,0.34c-0.35,0.22-0.61,0.52-0.78,0.88c-0.09,0.2-0.15,0.4-0.16,0.6
			c-0.03,0.4,0.07,0.72,0.33,1.04c0.32,0.4,0.73,0.58,1.33,0.58c0.63,0,1.13-0.21,1.57-0.66c0.34-0.34,0.51-0.71,0.54-1.15
			c0.04-0.42-0.06-0.74-0.31-1.04C135.56,94.48,135.15,94.29,134.55,94.29L134.55,94.29z M123.72,97.67
			c0.45-0.08,0.8-0.28,1.07-0.59c0.3-0.35,0.45-0.72,0.49-1.19c0.04-0.44-0.05-0.78-0.26-1.09c-0.14-0.2-0.4-0.45-1.02-0.53
			L123.72,97.67z M163.58,97.67c0.45-0.08,0.8-0.28,1.07-0.59c0.3-0.34,0.45-0.72,0.49-1.19c0.04-0.44-0.05-0.78-0.26-1.09
			c-0.14-0.2-0.4-0.45-1.02-0.53L163.58,97.67z"/>
		<path class="st115" d="M179.15,92.18c-1.06-1.25-2.58-1.89-4.54-1.89c-1.94,0-3.56,0.63-4.8,1.87c-0.35,0.35-0.66,0.74-0.92,1.18
			c-0.4-0.77-0.98-1.41-1.73-1.9c-0.86-0.56-1.82-0.84-2.88-0.84h-4.37l-0.52,6.62l-2.08-6.62h-3.44l-3.2,6.65l0.53-6.65h-3.4
			l-0.45,5.63l-4.16-5.63h-3.21l-0.18,2.29c-0.15-0.24-0.32-0.48-0.51-0.71c-1.06-1.25-2.58-1.89-4.53-1.89
			c-1.94,0-3.56,0.63-4.8,1.87c-0.35,0.35-0.65,0.74-0.92,1.19c-0.4-0.78-0.98-1.42-1.73-1.9c-0.86-0.56-1.82-0.84-2.88-0.84h-4.36
			l-0.63,7.93h-2.01l0.63-7.93h-3.4l-0.53,6.62l-2.08-6.62h-3.44l-3.08,6.38v-8.25h-3.72l-3.65,6.74l-0.74-6.74h-3.49l-4.05,12.64
			h3.12l2.35-7.27l1.02,7.27h2.01l3.56-7.27l0.11,7.27h1.35h2.11h1.51l0.87-1.76h3.36l0.54,1.76h11.81c0.6,0,1.21-0.1,1.8-0.29
			c1.12-0.36,2.08-1.03,2.85-1.97c0.12-0.14,0.23-0.29,0.33-0.45c0.2,0.42,0.45,0.81,0.76,1.18c1.06,1.25,2.58,1.89,4.53,1.89
			c1.94,0,3.56-0.63,4.8-1.87c0.22-0.22,0.42-0.45,0.6-0.69l-0.17,2.19h3.4l0.45-5.64l4.16,5.64h5.18l0.87-1.76h3.37l0.54,1.76h6.4
			c0.6,0,1.21-0.1,1.8-0.29c1.12-0.36,2.07-1.03,2.85-1.97c0.12-0.14,0.23-0.29,0.33-0.45c0.2,0.42,0.45,0.81,0.76,1.18
			c1.06,1.25,2.58,1.89,4.53,1.89c1.94,0,3.56-0.63,4.8-1.87c1.09-1.09,1.7-2.37,1.82-3.82C180.49,94.58,180.08,93.28,179.15,92.18z
			 M109.13,96.96l0.85-1.94l0.53,1.94H109.13z M126.08,95.95c-0.05,0.64-0.28,1.18-0.68,1.65c-0.53,0.62-1.28,0.92-2.27,0.92h-0.28
			l0.41-5.09h0.33c0.98,0,1.66,0.29,2.09,0.9C126,94.8,126.13,95.33,126.08,95.95z M136.25,97.63c-0.59,0.61-1.29,0.9-2.14,0.9
			c-0.84,0-1.48-0.29-1.96-0.88c-0.39-0.48-0.55-1-0.5-1.61c0.02-0.29,0.1-0.59,0.24-0.87c0.23-0.51,0.6-0.92,1.08-1.22
			c0.49-0.31,1.02-0.46,1.59-0.46c0.83,0,1.47,0.29,1.97,0.88c0.38,0.46,0.55,0.99,0.5,1.62C136.97,96.62,136.72,97.16,136.25,97.63
			z M154.4,96.96l0.85-1.94l0.53,1.94H154.4z M165.94,95.95c-0.05,0.64-0.27,1.18-0.68,1.65c-0.54,0.62-1.28,0.92-2.27,0.92h-0.28
			l0.4-5.09h0.33c0.98,0,1.66,0.29,2.09,0.9C165.85,94.8,165.99,95.33,165.94,95.95z M176.1,97.63c-0.59,0.61-1.29,0.9-2.14,0.9
			c-0.84,0-1.48-0.29-1.96-0.88c-0.38-0.48-0.55-1-0.5-1.61c0.02-0.29,0.1-0.59,0.24-0.87c0.24-0.51,0.6-0.92,1.08-1.22
			c0.49-0.31,1.01-0.46,1.59-0.46c0.83,0,1.47,0.29,1.97,0.88c0.38,0.46,0.54,0.99,0.49,1.62C176.83,96.62,176.57,97.16,176.1,97.63
			z"/>
		<path class="st2" d="M149.3,102.64l-0.55,3.22l-1.97-3.22h-3.11l-0.62,3.68l-0.76-3.68h-3.29l-3.31,5.97h-0.86l1.01-5.97h-3.61
			l-0.08,0.49c-0.5-0.33-1.13-0.49-1.9-0.49h-3.83l-1.57,9.23h3.61l0.43-2.53h0.56c0.64,0,1.21-0.11,1.7-0.33l-0.49,2.86h7.14
			l0.75-1.33h1.61l0.26,1.33h5.29l0.55-3.23l1.97,3.23h3.11l1.57-9.23H149.3z M129.51,106.08c-0.01,0.01-0.04,0.02-0.08,0.03
			l0.04-0.26c0.05,0,0.1,0.01,0.13,0.01C129.59,105.96,129.56,106.04,129.51,106.08z"/>
		<path class="st115" d="M132.46,105.96c0.12-0.7,0.01-1.28-0.31-1.73c-0.37-0.53-1.01-0.79-1.91-0.79h-3.16l-1.29,7.62h1.98
			l0.43-2.53h1.24c0.97,0,1.72-0.29,2.24-0.88C132.09,107.21,132.34,106.64,132.46,105.96z M130.4,105.98
			c-0.05,0.29-0.16,0.51-0.34,0.68c-0.19,0.19-0.5,0.28-0.93,0.28h-0.66l0.32-1.9h0.67c0.4,0,0.67,0.08,0.8,0.26
			C130.41,105.47,130.45,105.69,130.4,105.98z M149.98,103.45l-0.79,4.66l-2.85-4.66h-1.98l-1.22,7.22l-1.49-7.22h-2.16l-3.31,5.97
			h-2.28l1.01-5.97h-1.98l-1.29,7.62h3.63h0.73h1.36l0.75-1.33h2.74l0.27,1.33h1.96h0.15h1.83l0.79-4.67l2.86,4.67h1.98l1.3-7.62
			H149.98z M138.89,108.23l1.25-2.43l0.41,2.43H138.89z"/>
	</g>
</g>
</svg>
