<?xml version="1.0" encoding="utf-8"?>
<!-- Generator: Adobe Illustrator 27.8.1, SVG Export Plug-In . SVG Version: 6.00 Build 0)  -->
<svg version="1.1" id="Capa_1" xmlns="http://www.w3.org/2000/svg" xmlns:xlink="http://www.w3.org/1999/xlink" x="0px" y="0px"
	 viewBox="0 0 270 160" style="enable-background:new 0 0 270 160;" xml:space="preserve">
<style type="text/css">
	.st0{fill:#D10A11;}
	.st1{fill-rule:evenodd;clip-rule:evenodd;}
	.st2{fill:#FFFFFF;}
	.st3{fill:#2A4270;}
	.st4{fill:#B6ABB1;}
	.st5{fill:#E41D29;}
	.st6{fill:#F4D624;}
	.st7{fill:#282626;}
	.st8{fill:#DC292C;}
	.st9{fill:#666666;}
	.st10{fill:#F1B426;}
	.st11{fill:#0890A0;}
	.st12{fill-rule:evenodd;clip-rule:evenodd;fill:#1D1D1B;}
	.st13{fill-rule:evenodd;clip-rule:evenodd;fill:#FFFFFF;}
	.st14{fill-rule:evenodd;clip-rule:evenodd;fill:#179AD7;}
	.st15{fill:none;}
	.st16{fill-rule:evenodd;clip-rule:evenodd;fill:#272526;}
	
		.st17{clip-path:url(#SVGID_00000121990175982296191120000017687724267551122819_);fill:url(#SVGID_00000179640692926953501690000002487323781810587040_);}
	
		.st18{clip-path:url(#SVGID_00000173124262975476861380000010479579047888433325_);fill:url(#SVGID_00000042706380354975055080000003889635284393249962_);}
	
		.st19{clip-path:url(#SVGID_00000093896960400073459470000017337955974079503796_);fill:url(#SVGID_00000129188646914032508290000001543349516476564146_);}
	
		.st20{clip-path:url(#SVGID_00000078044650303956519160000013452172185911251355_);fill:url(#SVGID_00000073697535509744734540000012087591737286390944_);}
	.st21{fill-rule:evenodd;clip-rule:evenodd;fill:#E5282D;}
	.st22{fill-rule:evenodd;clip-rule:evenodd;fill:#FFEC08;}
	.st23{fill:#6D6E70;}
	.st24{fill:#6E6F71;}
	.st25{fill:#6F7072;}
	.st26{fill:#707173;}
	.st27{fill:#717274;}
	.st28{fill:#727375;}
	.st29{fill:#737476;}
	.st30{fill:#747577;}
	.st31{fill:#757678;}
	.st32{fill:#767779;}
	.st33{fill:#77787A;}
	.st34{fill:#78797B;}
	.st35{fill:#797A7C;}
	.st36{fill:#7A7B7D;}
	.st37{fill:#7B7C7E;}
	.st38{fill:#7C7D7F;}
	.st39{fill:#7D7E80;}
	.st40{fill:#7E7F81;}
	.st41{fill:#7F8082;}
	.st42{fill:#808183;}
	.st43{fill:#818284;}
	.st44{fill:#828385;}
	.st45{fill:#838486;}
	.st46{fill:#848587;}
	.st47{fill:#858688;}
	.st48{fill:#868789;}
	.st49{fill:#87888A;}
	.st50{fill:#88898B;}
	.st51{fill:#898A8C;}
	.st52{fill:#8A8B8D;}
	.st53{fill:#8B8C8E;}
	.st54{fill:#8C8D8F;}
	.st55{fill:#8D8E90;}
	.st56{fill:#8E8F91;}
	.st57{fill:#8F9092;}
	.st58{fill:#909193;}
	.st59{fill:#919294;}
	.st60{fill:#929395;}
	.st61{fill:#939496;}
	.st62{fill:#949597;}
	.st63{fill:#959698;}
	.st64{fill:#969799;}
	.st65{fill:#97989A;}
	.st66{fill:#98999B;}
	.st67{fill:#999A9C;}
	.st68{fill:#9A9B9D;}
	.st69{fill:#9B9C9E;}
	.st70{fill:#9C9D9F;}
	.st71{fill:#9D9EA0;}
	.st72{fill:#9E9FA1;}
	.st73{fill:#9FA0A2;}
	.st74{fill:#A0A1A3;}
	.st75{fill:#A1A2A4;}
	.st76{fill:#A2A3A5;}
	.st77{fill:#A3A4A6;}
	.st78{fill:#A4A5A7;}
	.st79{fill:#A5A6A8;}
	.st80{fill:#A6A7A9;}
	.st81{fill:#A7A8AA;}
	.st82{fill:#A8A9AB;}
	.st83{fill:#A9AAAC;}
	.st84{fill:#AAABAD;}
	.st85{fill:#ABACAE;}
	.st86{fill:#ACADAF;}
	.st87{fill:#ADAEB0;}
	.st88{fill:#AEAFB1;}
	.st89{fill:#AFB0B2;}
	.st90{fill:#B0B1B3;}
	.st91{fill:#B1B2B4;}
	.st92{fill:#B2B3B5;}
	.st93{fill:#B3B4B6;}
	.st94{fill:#B4B5B7;}
	.st95{fill:#B5B6B8;}
	.st96{fill:#B6B7B9;}
	.st97{fill:#B7B8BA;}
	.st98{fill:#B8B9BB;}
	.st99{fill:#B9BABC;}
	.st100{fill:#BABBBD;}
	.st101{fill:#BBBCBE;}
	.st102{fill:#BCBDBF;}
	.st103{fill:#BDBEC0;}
	.st104{fill:#BEBFC1;}
	.st105{fill:#BFC0C2;}
	.st106{fill:#C0C1C3;}
	.st107{fill:#C1C2C4;}
	.st108{fill:#C2C3C5;}
	.st109{fill:#C3C4C6;}
	.st110{fill:#C4C5C7;}
	.st111{fill:#C5C6C8;}
	.st112{fill:#C6C7C9;}
	.st113{fill:#C7C8CA;}
	.st114{fill:#C8C9CB;}
	.st115{fill:#9C212D;}
	.st116{fill:#939698;}
	.st117{fill:#1C3F84;}
	.st118{fill-rule:evenodd;clip-rule:evenodd;fill:#020202;}
	.st119{fill-rule:evenodd;clip-rule:evenodd;fill:#E1242C;}
	.st120{fill-rule:evenodd;clip-rule:evenodd;fill:#C5C6C8;}
	.st121{fill-rule:evenodd;clip-rule:evenodd;fill:#1B1918;}
	.st122{fill:#1280AC;}
	.st123{fill:none;stroke:#1280AC;stroke-width:1.0977;stroke-miterlimit:10;}
	.st124{fill:#F2E632;}
	.st125{fill:#8B8A8D;}
	.st126{fill:#1C171C;}
	.st127{fill:#159947;}
	.st128{fill:#003E92;}
	.st129{fill:#1C1C1C;}
	.st130{fill:#E9580C;}
</style>
<g>
	<path class="st118" d="M58.96,110.05c-4.92-0.23,109.07-0.91,152.23,0C211.19,110.05,102.12,111,58.96,110.05L58.96,110.05z"/>
	<path class="st118" d="M58.96,91.78c-4.92-0.23,109.07-0.91,152.23,0C211.19,91.78,102.12,92.73,58.96,91.78L58.96,91.78z"/>
	<g>
		<polygon class="st119" points="102.32,50.39 113.4,50.39 110.01,65.65 121.46,50.39 132.35,50.39 119.14,78.03 111.63,78.03 
			118.62,63.39 107.59,78.03 100.52,78.03 103.8,63.12 96.62,78.03 89.11,78.03 102.32,50.39 		"/>
		<path class="st120" d="M206.54,50.39l-12.59,23.22c-4.38,8.14-14.28,11.12-34.81,11.05l-95.68-0.21l1.21-1.98l93.43,0.03
			c9.53,0,15.34-3.45,17.99-8.31l13.14-23.8H206.54L206.54,50.39z"/>
		<path class="st119" d="M71.45,64.14c1.58-3.25,3.16-6.22,4.45-8.07c1.25-1.88,2.98-3.59,5.11-4.79c2.43-1.37,5.85-1.81,8.46-1.74
			c3.24,0.1,5.04,0.75,5.96,2.02s1.18,2.98,0.63,4.82c-0.55,1.85-1.32,4.07-2.91,7.32s-2.8,5.81-4.05,7.66
			c-1.21,1.85-2.98,3.52-5.11,4.79c-2.17,1.27-4.93,1.92-8.24,1.92s-5.48-0.82-6.4-2.09c-0.88-1.27-1.1-3.08-0.66-4.82
			C69.24,69.31,69.9,67.36,71.45,64.14L71.45,64.14z M71.45,64.14L71.45,64.14L71.45,64.14z M86.06,62.36
			c1.62-3.56,1.88-4.28,2.24-5.71c0.29-1.2,0.18-1.81-1.32-1.81s-3.02,0.92-4.08,2.57c-0.96,1.44-1.99,3.11-3.61,6.57
			c-1.62,3.42-2.58,5.75-2.8,7.01c-0.26,1.3-0.11,1.74,1.44,1.74c1.47,0,2.54-0.82,3.61-2.15C82.64,69.27,84.51,65.85,86.06,62.36
			L86.06,62.36z"/>
		<path class="st119" d="M122.12,78.03l12.99-27.74h11.04c2.8,0,4.42,0.44,5.85,1.4c1.29,0.86,1.69,3.15,0.37,5.99
			c-1.62,3.42-2.91,4.55-6.07,6.02c1.25,0.79,1.44,1.71,1.55,2.57c0.11,0.82-0.18,2.33-1.18,4.41c-1.47,3.11-3.46,5.06-5.85,5.99
			c-2.43,0.96-5,1.37-7.36,1.37H122.12L122.12,78.03z M122.12,78.03L122.12,78.03L122.12,78.03z M136.88,61.37h2.69
			c0.99,0.03,1.8-0.34,2.47-0.75c0.7-0.41,1.4-1.3,1.84-2.26c0.33-0.75,0.37-1.27,0.15-1.74c-0.22-0.51-1.1-0.55-1.77-0.55h-2.83
			L136.88,61.37L136.88,61.37z M136.88,61.37L136.88,61.37L136.88,61.37z M131.39,72.9h2.54c1.07-0.03,1.95-0.31,2.69-0.75
			s1.44-1.16,1.95-2.09c0.52-0.92,0.99-2.12,0.74-2.67c-0.26-0.55-1.36-0.58-2.17-0.58h-2.87L131.39,72.9L131.39,72.9z"/>
		<path class="st119" d="M179.71,50.26l-9.27,19.32c-1.03,2.46-3.13,4.79-5.45,6.36c-2.36,1.54-5.63,2.43-8.98,2.43
			c-3.2,0-5.85-0.72-6.99-2.6c-0.85-1.47-1.07-3.35,0.44-6.64l9.02-18.88h7.69l-9.09,18.95c-0.74,1.54-0.99,2.39-0.77,3.15
			c0.11,0.41,0.55,0.72,1.69,0.72c1.69-0.03,3.64-1.09,4.97-3.86l9.05-18.95H179.71L179.71,50.26z"/>
	</g>
	<path class="st121" d="M54.61,106.92h3.05l0.96-3.97h0.47c1.34,0,2.44-0.19,3.33-0.53c2.02-0.76,2.93-2.29,2.93-4.13
		c0-1.46-0.85-2.53-2.19-3.08c-0.68-0.28-1.48-0.4-2.52-0.4h-3.18L54.61,106.92L54.61,106.92z M54.61,106.92L54.61,106.92
		L54.61,106.92z M59.15,100.67L60,97.05h0.51c0.47,0,0.83,0.09,1.1,0.23c0.49,0.23,0.68,0.69,0.68,1.21c0,0.77-0.36,1.39-1,1.78
		c-0.44,0.26-1.04,0.4-1.72,0.4H59.15L59.15,100.67z M59.15,100.67L59.15,100.67L59.15,100.67z M65.98,106.92h7.45l0.59-2.37h-4.43
		l2.31-9.74h-3.05L65.98,106.92L65.98,106.92z M65.98,106.92L65.98,106.92L65.98,106.92z M73.91,106.92h3.39l1.7-2.88h3.94
		l0.53,2.88h3.22l-2.61-12.17h-2.63L73.91,106.92L73.91,106.92z M73.91,106.92L73.91,106.92L73.91,106.92z M80.36,101.8l1.25-2.36
		c0.13-0.26,0.32-0.67,0.45-0.98h0.04c0.02,0.37,0.08,0.7,0.13,0.98l0.32,2.36H80.36L80.36,101.8z M80.36,101.8L80.36,101.8
		L80.36,101.8z M88.25,106.92h3.07l1.59-6.66c0.11-0.47,0.23-0.98,0.28-1.37h0.04c0.25,0.47,0.57,1.02,0.85,1.49l3.97,6.54h2.67
		l2.88-12.12h-3.07l-1.49,6.3c-0.08,0.33-0.23,1.02-0.32,1.49h-0.06c-0.25-0.51-0.55-1.06-0.83-1.55l-3.8-6.24h-2.89L88.25,106.92
		L88.25,106.92z M88.25,106.92L88.25,106.92L88.25,106.92z M106.83,106.92h4.54c1.51,0,2.82-0.25,3.99-0.7
		c2.65-1.04,4.52-3.24,4.52-6.35c0-2.27-1.1-3.66-2.78-4.38c-1.14-0.47-2.52-0.69-4.01-0.69h-3.41L106.83,106.92L106.83,106.92z
		 M106.83,106.92L106.83,106.92L106.83,106.92z M110.44,104.54l1.76-7.37h0.91c1.02,0,1.82,0.16,2.38,0.46
		c0.81,0.42,1.17,1.11,1.17,2.04c0,2.25-1.04,3.62-2.5,4.33c-0.78,0.39-1.66,0.55-2.71,0.55H110.44L110.44,104.54z M110.44,104.54
		L110.44,104.54L110.44,104.54z M121.68,106.92h7.68l0.57-2.37h-4.64l0.62-2.55h4.07l0.55-2.39h-4.07l0.59-2.43h4.09l0.98-2.37
		h-7.57L121.68,106.92L121.68,106.92z M121.68,106.92L121.68,106.92L121.68,106.92z M133.73,106.92h3.42l1.7-2.88h3.94l0.53,2.88
		h3.2l-2.61-12.17h-2.63L133.73,106.92L133.73,106.92z M133.73,106.92L133.73,106.92L133.73,106.92z M140.22,101.8l1.25-2.36
		c0.13-0.26,0.3-0.67,0.45-0.98h0.04c0.02,0.37,0.08,0.7,0.11,0.98l0.34,2.36H140.22L140.22,101.8z M140.22,101.8L140.22,101.8
		L140.22,101.8z M148.09,106.92h3.07l1.17-4.96h5.75l-1.17,4.96h3.07l2.88-12.12h-3.07l-1.14,4.75h-5.75l1.14-4.75h-3.07
		L148.09,106.92L148.09,106.92z M148.09,106.92L148.09,106.92L148.09,106.92z M169.32,107.11c4.5,0,7.57-3.24,7.57-7.44
		c0-3.09-2.16-4.99-5.54-4.99c-4.5,0-7.57,3.22-7.57,7.42C163.78,105.19,165.91,107.11,169.32,107.11L169.32,107.11z M169.32,107.11
		L169.32,107.11L169.32,107.11z M169.57,104.77c-1.63,0-2.59-1-2.59-2.78c0-2.51,1.72-4.99,4.12-4.99c1.63,0,2.59,1,2.59,2.78
		C173.69,102.29,171.97,104.77,169.57,104.77L169.57,104.77z M169.57,104.77L169.57,104.77L169.57,104.77z M177.85,106.92h3.07
		l1.06-4.43h0.85c0.23,0.23,0.42,0.67,0.68,1.25l1.34,3.18h3.25l-1.78-3.78c-0.25-0.53-0.47-0.95-0.74-1.35v-0.05
		c1.7-0.4,3.25-1.6,3.25-3.68c0-1.85-1.21-3.25-4.64-3.25h-3.48L177.85,106.92L177.85,106.92z M177.85,106.92L177.85,106.92
		L177.85,106.92z M182.51,100.22l0.74-3.17h0.78c1.25,0,1.76,0.49,1.76,1.27c0,1.21-1.1,1.9-2.54,1.9H182.51L182.51,100.22z
		 M182.51,100.22L182.51,100.22L182.51,100.22z M189.64,106.92h3.06l1.04-4.43h0.87c0.21,0.23,0.42,0.67,0.66,1.25l1.34,3.18h3.27
		l-1.78-3.78c-0.26-0.53-0.47-0.95-0.76-1.35v-0.05c1.72-0.4,3.25-1.6,3.25-3.68c0-1.85-1.19-3.25-4.64-3.25h-3.48L189.64,106.92
		L189.64,106.92z M189.64,106.92L189.64,106.92L189.64,106.92z M194.28,100.22l0.76-3.17h0.78c1.23,0,1.76,0.49,1.76,1.27
		c0,1.21-1.12,1.9-2.54,1.9H194.28L194.28,100.22z M194.28,100.22L194.28,100.22L194.28,100.22z M207.82,107.11
		c4.5,0,7.57-3.24,7.57-7.44c0-3.09-2.16-4.99-5.56-4.99c-4.5,0-7.57,3.22-7.57,7.42C202.26,105.19,204.42,107.11,207.82,107.11
		L207.82,107.11z M207.82,107.11L207.82,107.11L207.82,107.11z M208.05,104.77c-1.63,0-2.59-1-2.59-2.78c0-2.51,1.72-4.99,4.14-4.99
		c1.61,0,2.57,1,2.57,2.78C212.17,102.29,210.47,104.77,208.05,104.77L208.05,104.77z"/>
</g>
</svg>
