<?xml version="1.0" encoding="utf-8"?>
<!-- Generator: Adobe Illustrator 27.8.1, SVG Export Plug-In . SVG Version: 6.00 Build 0)  -->
<svg version="1.1" id="Capa_1" xmlns="http://www.w3.org/2000/svg" xmlns:xlink="http://www.w3.org/1999/xlink" x="0px" y="0px"
	 viewBox="0 0 270 160" style="enable-background:new 0 0 270 160;" xml:space="preserve">
<style type="text/css">
	.st0{fill:#D10A11;}
	.st1{fill-rule:evenodd;clip-rule:evenodd;}
	.st2{fill:#FFFFFF;}
	.st3{fill:#2A4270;}
	.st4{fill:#B6ABB1;}
	.st5{fill:#E41D29;}
	.st6{fill:#F4D624;}
	.st7{fill:#282626;}
	.st8{fill:#DC292C;}
	.st9{fill:#666666;}
	.st10{fill:#F1B426;}
	.st11{fill:#0890A0;}
	.st12{fill-rule:evenodd;clip-rule:evenodd;fill:#1D1D1B;}
	.st13{fill-rule:evenodd;clip-rule:evenodd;fill:#FFFFFF;}
	.st14{fill-rule:evenodd;clip-rule:evenodd;fill:#179AD7;}
	.st15{fill:none;}
	.st16{fill-rule:evenodd;clip-rule:evenodd;fill:#272526;}
	
		.st17{clip-path:url(#SVGID_00000017515718295617592160000015164915276535125157_);fill:url(#SVGID_00000015322365791681395570000002310612453198706364_);}
	
		.st18{clip-path:url(#SVGID_00000173866240426919572770000014358119559560521857_);fill:url(#SVGID_00000137119683272102593100000012974956556123370645_);}
	
		.st19{clip-path:url(#SVGID_00000052801078866474194610000007233954464269055619_);fill:url(#SVGID_00000011751452411105357050000004548761011610864037_);}
	
		.st20{clip-path:url(#SVGID_00000104676107973222282690000016667180463582455214_);fill:url(#SVGID_00000178203176311046252500000004123078721602544780_);}
	.st21{fill-rule:evenodd;clip-rule:evenodd;fill:#E5282D;}
	.st22{fill-rule:evenodd;clip-rule:evenodd;fill:#FFEC08;}
	.st23{fill:#6D6E70;}
	.st24{fill:#6E6F71;}
	.st25{fill:#6F7072;}
	.st26{fill:#707173;}
	.st27{fill:#717274;}
	.st28{fill:#727375;}
	.st29{fill:#737476;}
	.st30{fill:#747577;}
	.st31{fill:#757678;}
	.st32{fill:#767779;}
	.st33{fill:#77787A;}
	.st34{fill:#78797B;}
	.st35{fill:#797A7C;}
	.st36{fill:#7A7B7D;}
	.st37{fill:#7B7C7E;}
	.st38{fill:#7C7D7F;}
	.st39{fill:#7D7E80;}
	.st40{fill:#7E7F81;}
	.st41{fill:#7F8082;}
	.st42{fill:#808183;}
	.st43{fill:#818284;}
	.st44{fill:#828385;}
	.st45{fill:#838486;}
	.st46{fill:#848587;}
	.st47{fill:#858688;}
	.st48{fill:#868789;}
	.st49{fill:#87888A;}
	.st50{fill:#88898B;}
	.st51{fill:#898A8C;}
	.st52{fill:#8A8B8D;}
	.st53{fill:#8B8C8E;}
	.st54{fill:#8C8D8F;}
	.st55{fill:#8D8E90;}
	.st56{fill:#8E8F91;}
	.st57{fill:#8F9092;}
	.st58{fill:#909193;}
	.st59{fill:#919294;}
	.st60{fill:#929395;}
	.st61{fill:#939496;}
	.st62{fill:#949597;}
	.st63{fill:#959698;}
	.st64{fill:#969799;}
	.st65{fill:#97989A;}
	.st66{fill:#98999B;}
	.st67{fill:#999A9C;}
	.st68{fill:#9A9B9D;}
	.st69{fill:#9B9C9E;}
	.st70{fill:#9C9D9F;}
	.st71{fill:#9D9EA0;}
	.st72{fill:#9E9FA1;}
	.st73{fill:#9FA0A2;}
	.st74{fill:#A0A1A3;}
	.st75{fill:#A1A2A4;}
	.st76{fill:#A2A3A5;}
	.st77{fill:#A3A4A6;}
	.st78{fill:#A4A5A7;}
	.st79{fill:#A5A6A8;}
	.st80{fill:#A6A7A9;}
	.st81{fill:#A7A8AA;}
	.st82{fill:#A8A9AB;}
	.st83{fill:#A9AAAC;}
	.st84{fill:#AAABAD;}
	.st85{fill:#ABACAE;}
	.st86{fill:#ACADAF;}
	.st87{fill:#ADAEB0;}
	.st88{fill:#AEAFB1;}
	.st89{fill:#AFB0B2;}
	.st90{fill:#B0B1B3;}
	.st91{fill:#B1B2B4;}
	.st92{fill:#B2B3B5;}
	.st93{fill:#B3B4B6;}
	.st94{fill:#B4B5B7;}
	.st95{fill:#B5B6B8;}
	.st96{fill:#B6B7B9;}
	.st97{fill:#B7B8BA;}
	.st98{fill:#B8B9BB;}
	.st99{fill:#B9BABC;}
	.st100{fill:#BABBBD;}
	.st101{fill:#BBBCBE;}
	.st102{fill:#BCBDBF;}
	.st103{fill:#BDBEC0;}
	.st104{fill:#BEBFC1;}
	.st105{fill:#BFC0C2;}
	.st106{fill:#C0C1C3;}
	.st107{fill:#C1C2C4;}
	.st108{fill:#C2C3C5;}
	.st109{fill:#C3C4C6;}
	.st110{fill:#C4C5C7;}
	.st111{fill:#C5C6C8;}
	.st112{fill:#C6C7C9;}
	.st113{fill:#C7C8CA;}
	.st114{fill:#C8C9CB;}
	.st115{fill:#9C212D;}
	.st116{fill:#939698;}
	.st117{fill:#1C3F84;}
	.st118{fill-rule:evenodd;clip-rule:evenodd;fill:#020202;}
	.st119{fill-rule:evenodd;clip-rule:evenodd;fill:#E1242C;}
	.st120{fill-rule:evenodd;clip-rule:evenodd;fill:#C5C6C8;}
	.st121{fill-rule:evenodd;clip-rule:evenodd;fill:#1B1918;}
	.st122{fill:#1280AC;}
	.st123{fill:none;stroke:#1280AC;stroke-width:1.0977;stroke-miterlimit:10;}
	.st124{fill:#F2E632;}
	.st125{fill:#8B8A8D;}
	.st126{fill:#1C171C;}
	.st127{fill:#159947;}
	.st128{fill:#003E92;}
	.st129{fill:#1C1C1C;}
	.st130{fill:#E9580C;}
</style>
<g>
	<path class="st3" d="M218.54,67.97l-14.36,14.48c-2.09,2.11-5.22,2.44-6.95,0.73c-1.73-1.71-1.42-4.84,0.67-6.95l9.66-9.74
		c-12.12,0.22-21.84,6.18-21.84,13.51c0,5.12,4.75,9.58,11.75,11.88l14.64-14.76c2.1-2.11,5.22-2.44,6.95-0.73
		c1.73,1.71,1.42,4.84-0.67,6.95l-10.09,10.17c12.42-0.02,22.47-6.06,22.47-13.52C230.76,74.76,225.79,70.22,218.54,67.97z"/>
	<g>
		<g>
			<path class="st3" d="M39.24,73.03h4.33l3.58,10.76l3.58-10.76h4.31v14.02h-2.89l0.24-10.92l-3.6,10.92h-3.13l-3.71-11.04
				l0.3,11.04h-3V73.03z"/>
			<path class="st3" d="M62.08,84.78h2.18v-8.02h2.72v10.02c0,1.36-0.32,2.37-0.95,3.02c-0.64,0.66-1.61,0.98-2.92,0.98h-5.33v-2.09
				h4.87c0.52,0,0.92-0.13,1.2-0.38c0.28-0.25,0.42-0.62,0.42-1.09v-0.17h-2.4c-1.54,0-2.64-0.3-3.29-0.91
				c-0.65-0.61-0.98-1.62-0.98-3.04v-6.34h2.69v6.13c0,0.78,0.12,1.28,0.35,1.53C60.86,84.66,61.34,84.78,62.08,84.78z"/>
			<path class="st3" d="M81.56,75.53h-7.29c-0.78,0-1.36,0.15-1.72,0.44C72.18,76.26,72,76.72,72,77.36c0,0.51,0.16,0.89,0.47,1.14
				c0.31,0.25,0.78,0.38,1.39,0.38h3.9c1.62,0,2.77,0.31,3.45,0.92c0.68,0.61,1.03,1.63,1.03,3.05c0,1.44-0.39,2.5-1.18,3.18
				s-2.03,1.02-3.72,1.02h-7.85v-2.5h7.38c0.84,0,1.43-0.12,1.77-0.37c0.34-0.24,0.52-0.65,0.52-1.22c0-0.59-0.16-1-0.47-1.25
				c-0.31-0.25-0.85-0.37-1.62-0.37h-3.48c-1.62,0-2.8-0.32-3.54-0.97c-0.75-0.65-1.12-1.66-1.12-3.06c0-1.49,0.39-2.58,1.18-3.26
				c0.79-0.69,2.03-1.03,3.74-1.03h7.72V75.53z"/>
			<path class="st3" d="M96.03,73.03h3.13l5.98,14.02h-3.28l-1.29-3.34h-6.1l-1.25,3.34H90.1L96.03,73.03z M97.48,75.81l-2.05,5.4
				h4.18L97.48,75.81z"/>
			<path class="st3" d="M109.07,73.03v5.69h5.41v-5.69h2.95v14.02h-2.95v-5.86h-5.41v5.86h-2.95V73.03H109.07z"/>
			<path class="st3" d="M119.42,79.9c0-2.41,0.58-4.2,1.73-5.38c1.15-1.18,2.91-1.76,5.27-1.76c2.38,0,4.14,0.59,5.28,1.78
				c1.14,1.19,1.71,3.02,1.71,5.5c0,2.48-0.57,4.32-1.71,5.51c-1.14,1.2-2.9,1.79-5.28,1.79c-2.4,0-4.17-0.6-5.3-1.8
				C119.99,84.34,119.42,82.46,119.42,79.9z M126.42,75.16c-1.26,0-2.21,0.39-2.83,1.18c-0.63,0.79-0.94,1.98-0.94,3.58
				c0,1.73,0.3,3,0.91,3.8c0.61,0.8,1.56,1.21,2.86,1.21c1.28,0,2.23-0.4,2.85-1.2c0.62-0.8,0.93-2.03,0.93-3.69
				c0-1.67-0.31-2.9-0.93-3.69C128.66,75.55,127.7,75.16,126.42,75.16z"/>
			<path class="st3" d="M135.43,73.03h7.26c1.69,0,2.93,0.34,3.72,1.02c0.79,0.68,1.18,1.75,1.18,3.2c0,1.07-0.24,1.95-0.73,2.63
				c-0.49,0.68-1.19,1.12-2.1,1.32l3.5,5.86h-3.32l-3.09-5.51h-3.47v5.51h-2.95V73.03z M141.99,75.53h-3.62v3.53h3.62
				c0.98,0,1.66-0.13,2.04-0.4s0.57-0.73,0.57-1.37c0-0.64-0.19-1.1-0.56-1.36C143.68,75.66,142.99,75.53,141.99,75.53z"/>
			<path class="st3" d="M150.08,73.03h7.26c1.69,0,2.93,0.34,3.72,1.02c0.79,0.68,1.18,1.75,1.18,3.2c0,1.07-0.24,1.95-0.73,2.63
				c-0.49,0.68-1.19,1.12-2.1,1.32l3.5,5.86h-3.32l-3.09-5.51h-3.47v5.51h-2.95V73.03z M156.65,75.53h-3.62v3.53h3.62
				c0.98,0,1.66-0.13,2.04-0.4s0.57-0.73,0.57-1.37c0-0.64-0.19-1.1-0.56-1.36C158.33,75.66,157.65,75.53,156.65,75.53z"/>
			<path class="st3" d="M163.83,79.9c0-2.41,0.58-4.2,1.73-5.38c1.15-1.18,2.91-1.76,5.27-1.76c2.38,0,4.14,0.59,5.28,1.78
				c1.14,1.19,1.71,3.02,1.71,5.5c0,2.48-0.57,4.32-1.71,5.51c-1.14,1.2-2.9,1.79-5.28,1.79c-2.4,0-4.17-0.6-5.3-1.8
				C164.4,84.34,163.83,82.46,163.83,79.9z M170.83,75.16c-1.26,0-2.21,0.39-2.83,1.18c-0.63,0.79-0.94,1.98-0.94,3.58
				c0,1.73,0.3,3,0.91,3.8c0.61,0.8,1.56,1.21,2.86,1.21c1.28,0,2.23-0.4,2.85-1.2c0.62-0.8,0.93-2.03,0.93-3.69
				c0-1.67-0.31-2.9-0.93-3.69C173.06,75.55,172.11,75.16,170.83,75.16z"/>
		</g>
	</g>
	<path class="st4" d="M215.02,71.52l-10.84,10.92c-2.09,2.11-5.22,2.44-6.95,0.73c-1.73-1.71-1.42-4.84,0.67-6.95l4.93-4.97
		c-7.58,1.3-12.79,5.19-12.79,8.74c0,3.25,4.36,6.78,10.91,8.36l11.15-11.24c2.1-2.11,5.22-2.44,6.95-0.73
		c1.73,1.71,1.42,4.84-0.67,6.95l-5.47,5.51c7.98-1.17,13.52-5.2,13.52-8.86C226.43,76.66,221.85,73.03,215.02,71.52z"/>
</g>
</svg>
