<?xml version="1.0" encoding="utf-8"?>
<!-- Generator: Adobe Illustrator 27.8.1, SVG Export Plug-In . SVG Version: 6.00 Build 0)  -->
<svg version="1.1" id="Capa_1" xmlns="http://www.w3.org/2000/svg" xmlns:xlink="http://www.w3.org/1999/xlink" x="0px" y="0px"
	 viewBox="0 0 270 160" style="enable-background:new 0 0 270 160;" xml:space="preserve">
<style type="text/css">
	.st0{fill:#D10A11;}
	.st1{fill-rule:evenodd;clip-rule:evenodd;}
	.st2{fill:#FFFFFF;}
	.st3{fill:#2A4270;}
	.st4{fill:#B6ABB1;}
	.st5{fill:#E41D29;}
	.st6{fill:#F4D624;}
	.st7{fill:#282626;}
	.st8{fill:#DC292C;}
	.st9{fill:#666666;}
	.st10{fill:#F1B426;}
	.st11{fill:#0890A0;}
	.st12{fill-rule:evenodd;clip-rule:evenodd;fill:#1D1D1B;}
	.st13{fill-rule:evenodd;clip-rule:evenodd;fill:#FFFFFF;}
	.st14{fill-rule:evenodd;clip-rule:evenodd;fill:#179AD7;}
	.st15{fill:none;}
	.st16{fill-rule:evenodd;clip-rule:evenodd;fill:#272526;}
	
		.st17{clip-path:url(#SVGID_00000029728394629183641560000000670692550034161818_);fill:url(#SVGID_00000164507166622806112500000015141123729753916546_);}
	
		.st18{clip-path:url(#SVGID_00000083083054215768893080000011729119650318685598_);fill:url(#SVGID_00000142875544918761722280000011807837575503590553_);}
	
		.st19{clip-path:url(#SVGID_00000020364145112153728680000016832495103119959168_);fill:url(#SVGID_00000065754838106868968130000006192293097724358072_);}
	
		.st20{clip-path:url(#SVGID_00000003827323570184673790000001380646739900936117_);fill:url(#SVGID_00000148641932116922748400000005110751735565283237_);}
	.st21{fill-rule:evenodd;clip-rule:evenodd;fill:#E5282D;}
	.st22{fill-rule:evenodd;clip-rule:evenodd;fill:#FFEC08;}
	.st23{fill:#6D6E70;}
	.st24{fill:#6E6F71;}
	.st25{fill:#6F7072;}
	.st26{fill:#707173;}
	.st27{fill:#717274;}
	.st28{fill:#727375;}
	.st29{fill:#737476;}
	.st30{fill:#747577;}
	.st31{fill:#757678;}
	.st32{fill:#767779;}
	.st33{fill:#77787A;}
	.st34{fill:#78797B;}
	.st35{fill:#797A7C;}
	.st36{fill:#7A7B7D;}
	.st37{fill:#7B7C7E;}
	.st38{fill:#7C7D7F;}
	.st39{fill:#7D7E80;}
	.st40{fill:#7E7F81;}
	.st41{fill:#7F8082;}
	.st42{fill:#808183;}
	.st43{fill:#818284;}
	.st44{fill:#828385;}
	.st45{fill:#838486;}
	.st46{fill:#848587;}
	.st47{fill:#858688;}
	.st48{fill:#868789;}
	.st49{fill:#87888A;}
	.st50{fill:#88898B;}
	.st51{fill:#898A8C;}
	.st52{fill:#8A8B8D;}
	.st53{fill:#8B8C8E;}
	.st54{fill:#8C8D8F;}
	.st55{fill:#8D8E90;}
	.st56{fill:#8E8F91;}
	.st57{fill:#8F9092;}
	.st58{fill:#909193;}
	.st59{fill:#919294;}
	.st60{fill:#929395;}
	.st61{fill:#939496;}
	.st62{fill:#949597;}
	.st63{fill:#959698;}
	.st64{fill:#969799;}
	.st65{fill:#97989A;}
	.st66{fill:#98999B;}
	.st67{fill:#999A9C;}
	.st68{fill:#9A9B9D;}
	.st69{fill:#9B9C9E;}
	.st70{fill:#9C9D9F;}
	.st71{fill:#9D9EA0;}
	.st72{fill:#9E9FA1;}
	.st73{fill:#9FA0A2;}
	.st74{fill:#A0A1A3;}
	.st75{fill:#A1A2A4;}
	.st76{fill:#A2A3A5;}
	.st77{fill:#A3A4A6;}
	.st78{fill:#A4A5A7;}
	.st79{fill:#A5A6A8;}
	.st80{fill:#A6A7A9;}
	.st81{fill:#A7A8AA;}
	.st82{fill:#A8A9AB;}
	.st83{fill:#A9AAAC;}
	.st84{fill:#AAABAD;}
	.st85{fill:#ABACAE;}
	.st86{fill:#ACADAF;}
	.st87{fill:#ADAEB0;}
	.st88{fill:#AEAFB1;}
	.st89{fill:#AFB0B2;}
	.st90{fill:#B0B1B3;}
	.st91{fill:#B1B2B4;}
	.st92{fill:#B2B3B5;}
	.st93{fill:#B3B4B6;}
	.st94{fill:#B4B5B7;}
	.st95{fill:#B5B6B8;}
	.st96{fill:#B6B7B9;}
	.st97{fill:#B7B8BA;}
	.st98{fill:#B8B9BB;}
	.st99{fill:#B9BABC;}
	.st100{fill:#BABBBD;}
	.st101{fill:#BBBCBE;}
	.st102{fill:#BCBDBF;}
	.st103{fill:#BDBEC0;}
	.st104{fill:#BEBFC1;}
	.st105{fill:#BFC0C2;}
	.st106{fill:#C0C1C3;}
	.st107{fill:#C1C2C4;}
	.st108{fill:#C2C3C5;}
	.st109{fill:#C3C4C6;}
	.st110{fill:#C4C5C7;}
	.st111{fill:#C5C6C8;}
	.st112{fill:#C6C7C9;}
	.st113{fill:#C7C8CA;}
	.st114{fill:#C8C9CB;}
	.st115{fill:#9C212D;}
	.st116{fill:#939698;}
	.st117{fill:#1C3F84;}
	.st118{fill-rule:evenodd;clip-rule:evenodd;fill:#020202;}
	.st119{fill-rule:evenodd;clip-rule:evenodd;fill:#E1242C;}
	.st120{fill-rule:evenodd;clip-rule:evenodd;fill:#C5C6C8;}
	.st121{fill-rule:evenodd;clip-rule:evenodd;fill:#1B1918;}
	.st122{fill:#1280AC;}
	.st123{fill:none;stroke:#1280AC;stroke-width:1.0977;stroke-miterlimit:10;}
	.st124{fill:#F2E632;}
	.st125{fill:#8B8A8D;}
	.st126{fill:#1C171C;}
	.st127{fill:#159947;}
	.st128{fill:#003E92;}
	.st129{fill:#1C1C1C;}
	.st130{fill:#E9580C;}
</style>
<g>
	<path class="st117" d="M44.09,100.27h1.95l-0.95-3.04h-0.02L44.09,100.27z M43.13,103.18h-1.69l2.73-7.68h1.85l2.7,7.68h-1.74
		l-0.49-1.59h-2.83L43.13,103.18z"/>
	<path class="st117" d="M55.35,100.5c0,2.02-1.22,2.89-3.15,2.89c-0.7,0-1.75-0.17-2.43-0.93c-0.42-0.47-0.58-1.09-0.6-1.86V95.5
		h1.63v4.98c0,1.07,0.62,1.54,1.37,1.54c1.1,0,1.55-0.54,1.55-1.47V95.5h1.63V100.5z"/>
	<polygon class="st117" points="60.17,103.18 58.57,103.18 58.57,96.86 56.26,96.86 56.26,95.5 62.49,95.5 62.49,96.86 60.17,96.86 
			"/>
	<path class="st117" d="M66.35,102.03c0.86,0,2.08-0.53,2.08-2.69c0-2.15-1.22-2.69-2.08-2.69c-0.86,0-2.08,0.54-2.08,2.69
		C64.27,101.49,65.49,102.03,66.35,102.03 M66.35,95.3c1.01,0,3.68,0.44,3.68,4.04c0,3.6-2.67,4.04-3.68,4.04
		c-1.01,0-3.68-0.44-3.68-4.04C62.67,95.74,65.34,95.3,66.35,95.3"/>
	<polygon class="st117" points="78.67,103.18 77.17,103.18 77.17,96.77 77.15,96.77 75.72,103.18 74.15,103.18 72.75,96.77 
		72.73,96.77 72.73,103.18 71.24,103.18 71.24,95.5 73.58,95.5 74.96,101.56 74.98,101.56 76.35,95.5 78.67,95.5 	"/>
	<path class="st117" d="M83.54,102.03c0.87,0,2.08-0.53,2.08-2.69c0-2.15-1.21-2.69-2.08-2.69c-0.86,0-2.08,0.54-2.08,2.69
		C81.46,101.49,82.68,102.03,83.54,102.03 M83.54,95.3c1.01,0,3.68,0.44,3.68,4.04c0,3.6-2.67,4.04-3.68,4.04
		c-1.02,0-3.68-0.44-3.68-4.04C79.86,95.74,82.53,95.3,83.54,95.3"/>
	<polygon class="st117" points="91.33,103.18 89.73,103.18 89.73,96.86 87.41,96.86 87.41,95.5 93.65,95.5 93.65,96.86 91.33,96.86 
			"/>
	<path class="st117" d="M97.51,102.03c0.87,0,2.08-0.53,2.08-2.69c0-2.15-1.22-2.69-2.08-2.69c-0.86,0-2.08,0.54-2.08,2.69
		C95.43,101.49,96.64,102.03,97.51,102.03 M97.51,95.3c1.02,0,3.69,0.44,3.69,4.04c0,3.6-2.67,4.04-3.69,4.04
		c-1.01,0-3.68-0.44-3.68-4.04C93.82,95.74,96.49,95.3,97.51,95.3"/>
	<path class="st117" d="M105.92,98.88c0.83,0,1.24-0.29,1.24-1.05c0-0.41-0.18-1.01-1.12-1.01h-2v2.06H105.92z M102.47,95.5h3.87
		c2.04,0,2.41,1.51,2.41,2.17c0,0.84-0.43,1.57-1.18,1.83c0.63,0.28,0.97,0.51,0.97,1.95c0,1.12,0,1.4,0.34,1.53v0.2h-1.77
		c-0.11-0.36-0.17-0.76-0.17-1.55c0-1.05-0.07-1.46-1.25-1.46h-1.66v3.01h-1.57V95.5z"/>
	<polygon class="st117" points="115.81,96.86 111.74,96.86 111.74,98.48 115.48,98.48 115.48,99.84 111.74,99.84 111.74,101.82 
		115.99,101.82 115.99,103.18 110.17,103.18 110.17,95.5 115.81,95.5 	"/>
	<path class="st117" d="M118.43,100.82c0.01,0.43,0.22,1.24,1.62,1.24c0.76,0,1.6-0.18,1.6-0.99c0-0.6-0.58-0.76-1.39-0.95
		l-0.82-0.19c-1.24-0.29-2.43-0.57-2.43-2.26c0-0.86,0.46-2.36,2.95-2.36c2.35,0,2.98,1.54,2.99,2.48h-1.54
		c-0.04-0.34-0.17-1.16-1.57-1.16c-0.61,0-1.33,0.23-1.33,0.92c0,0.6,0.49,0.73,0.81,0.8l1.87,0.46c1.05,0.26,2.01,0.68,2.01,2.07
		c0,2.31-2.35,2.51-3.02,2.51c-2.8,0-3.28-1.62-3.28-2.57H118.43z"/>
	<polygon class="st117" points="133.01,96.86 128.94,96.86 128.94,98.48 132.68,98.48 132.68,99.84 128.94,99.84 128.94,101.82 
		133.19,101.82 133.19,103.18 127.37,103.18 127.37,95.5 133.01,95.5 	"/>
	<polygon class="st117" points="136.09,101.79 139.9,101.79 139.9,103.18 134.49,103.18 134.49,95.5 136.09,95.5 	"/>
	<polygon class="st117" points="146.16,103.18 144.56,103.18 144.56,96.86 142.24,96.86 142.24,95.5 148.48,95.5 148.48,96.86 
		146.16,96.86 	"/>
	<path class="st117" d="M152.87,98.88c0.83,0,1.24-0.29,1.24-1.05c0-0.41-0.18-1.01-1.12-1.01h-2v2.06H152.87z M149.43,95.5h3.87
		c2.04,0,2.41,1.51,2.41,2.17c0,0.84-0.43,1.57-1.19,1.83c0.63,0.28,0.97,0.51,0.97,1.95c0,1.12,0,1.4,0.34,1.53v0.2h-1.77
		c-0.11-0.36-0.17-0.76-0.17-1.55c0-1.05-0.06-1.46-1.25-1.46H151v3.01h-1.57V95.5z"/>
	<rect x="157" y="95.5" class="st117" width="1.6" height="7.68"/>
	<path class="st117" d="M162.15,100.27h1.95l-0.95-3.04h-0.02L162.15,100.27z M161.19,103.18h-1.69l2.73-7.68h1.85l2.7,7.68h-1.74
		l-0.49-1.59h-2.83L161.19,103.18z"/>
	<polygon class="st117" points="172.47,95.5 173.97,95.5 173.97,103.18 172.37,103.18 169.24,97.71 169.22,97.71 169.22,103.18 
		167.72,103.18 167.72,95.5 169.41,95.5 172.45,100.85 172.47,100.85 	"/>
	<path class="st117" d="M179.1,99.04h3.2v4.14h-1.07l-0.16-0.96c-0.41,0.47-0.99,1.17-2.39,1.17c-1.85,0-3.52-1.33-3.52-4.02
		c0-2.1,1.16-4.08,3.75-4.07c2.35,0,3.28,1.53,3.36,2.59h-1.6c0-0.3-0.55-1.26-1.68-1.26c-1.14,0-2.2,0.79-2.2,2.76
		c0,2.1,1.14,2.64,2.23,2.64c0.35,0,1.53-0.14,1.86-1.69h-1.78V99.04z"/>
	<path class="st117" d="M189.94,100.5c0,2.02-1.22,2.89-3.15,2.89c-0.71,0-1.75-0.17-2.43-0.93c-0.42-0.47-0.58-1.09-0.6-1.86V95.5
		h1.63v4.98c0,1.07,0.62,1.54,1.36,1.54c1.1,0,1.55-0.54,1.55-1.47V95.5h1.63V100.5z"/>
	<polygon class="st117" points="193.11,101.79 196.92,101.79 196.92,103.18 191.51,103.18 191.51,95.5 193.11,95.5 	"/>
	<path class="st117" d="M201.37,102.03c0.87,0,2.08-0.53,2.08-2.69c0-2.15-1.22-2.69-2.08-2.69c-0.86,0-2.08,0.54-2.08,2.69
		C199.29,101.49,200.5,102.03,201.37,102.03 M201.37,95.3c1.02,0,3.68,0.44,3.68,4.04c0,3.6-2.67,4.04-3.68,4.04
		c-1.01,0-3.68-0.44-3.68-4.04C197.68,95.74,200.35,95.3,201.37,95.3"/>
	<path class="st117" d="M210.44,100.82c0.01,0.43,0.23,1.24,1.62,1.24c0.76,0,1.6-0.18,1.6-0.99c0-0.6-0.58-0.76-1.39-0.95
		l-0.82-0.19c-1.24-0.29-2.43-0.57-2.43-2.26c0-0.86,0.46-2.36,2.94-2.36c2.35,0,2.98,1.54,2.99,2.48h-1.53
		c-0.04-0.34-0.17-1.16-1.57-1.16c-0.61,0-1.33,0.23-1.33,0.92c0,0.6,0.49,0.73,0.81,0.8l1.87,0.46c1.05,0.26,2.01,0.68,2.01,2.07
		c0,2.31-2.35,2.51-3.02,2.51c-2.8,0-3.28-1.62-3.28-2.57H210.44z"/>
	<rect x="216.29" y="101.62" class="st117" width="1.6" height="1.56"/>
	<path class="st117" d="M221.43,100.27h1.95l-0.95-3.04h-0.02L221.43,100.27z M220.47,103.18h-1.69l2.73-7.68h1.85l2.7,7.68h-1.74
		l-0.49-1.59H221L220.47,103.18z"/>
	<rect x="226.95" y="101.62" class="st117" width="1.6" height="1.56"/>
	<path class="st8" d="M52.41,91.81c-6.06,0-10.97-4.92-10.97-10.99V56.61h66.92c6.06,0,10.97,4.92,10.97,10.99v24.21H52.41z"/>
	<path class="st117" d="M132.16,67.77h-0.06l-1.55,9.26h3.17L132.16,67.77z M128.56,63.31h7.13l5.3,21.81h-6.03l-0.58-3.82h-4.51
		l-0.58,3.82h-6.03L128.56,63.31z"/>
	<path class="st117" d="M150.42,69.6v-0.52c0-1.31-0.52-2.35-1.62-2.35c-1.22,0-1.77,0.95-1.77,1.92c0,4.31,9.27,2.2,9.27,10.17
		c0,4.64-2.71,6.72-7.71,6.72c-4.69,0-7.32-1.62-7.32-6.14v-0.76h5.49v0.52c0,1.86,0.76,2.54,1.86,2.54c1.19,0,1.83-0.92,1.83-2.11
		c0-4.31-8.9-2.17-8.9-9.9c0-4.43,2.35-6.81,7.13-6.81c4.97,0,7.04,2.05,7.04,6.72H150.42z"/>
	<polygon class="st117" points="161.17,68.13 156.91,68.13 156.91,63.31 171.11,63.31 171.11,68.13 166.84,68.13 166.84,85.12 
		161.17,85.12 	"/>
	<rect x="170.25" y="73.97" class="st117" width="4.76" height="4.64"/>
	<path class="st117" d="M184.15,72.72h1.07c1.43,0,2.19-0.83,2.19-2.66c0-1.77-0.73-2.66-2.19-2.66h-1.07V72.72z M178.48,63.31h8.5
		c4.33,0,6.28,2.93,6.28,6.72c0,4.49-2.5,6.78-7.13,6.78h-1.98v8.31h-5.67V63.31z"/>
	<path class="st117" d="M200.73,72.53h1.13c1.61,0,2.38-1.04,2.38-2.6c0-1.8-0.7-2.54-2.41-2.54h-1.1V72.53z M195.06,63.31h8.87
		c4.33,0,5.97,2.44,5.97,5.8c0,2.93-1.13,4.8-3.72,5.19v0.06c2.71,0.24,3.57,1.99,3.57,4.89v1.86c0,1.13,0,2.57,0.28,3.03
		c0.15,0.24,0.27,0.46,0.64,0.67v0.31h-6.04c-0.55-1.13-0.55-3.27-0.55-4.15V79.5c0-2.47-0.49-3.12-1.86-3.12h-1.49v8.74h-5.67
		V63.31z"/>
	<path class="st117" d="M219.72,67.77h-0.06l-1.55,9.26h3.17L219.72,67.77z M216.12,63.31h7.13l5.3,21.81h-6.03l-0.58-3.82h-4.51
		l-0.58,3.82h-6.03L216.12,63.31z"/>
	<polygon class="st2" points="97.33,63.34 103.67,63.34 107.33,76.78 107.39,76.78 107.39,63.34 112.69,63.34 112.69,85.15 
		106.47,85.15 102.69,71.68 102.63,71.68 102.63,85.15 97.33,85.15 	"/>
	<path class="st2" d="M53.76,72.75h1.07c1.43,0,2.19-0.82,2.19-2.66c0-1.77-0.73-2.66-2.19-2.66h-1.07V72.75z M48.09,63.34h8.5
		c4.33,0,6.28,2.93,6.28,6.72c0,4.49-2.5,6.78-7.13,6.78h-1.98v8.31h-5.67V63.34z"/>
	<polygon class="st2" points="64.67,63.34 70.34,63.34 70.34,80.51 77.32,80.51 77.32,85.15 64.67,85.15 	"/>
	<polygon class="st2" points="87.15,63.51 77.66,85.15 82.17,85.15 87.02,73.9 92.11,85.15 96.82,85.15 	"/>
	<polygon class="st2" points="83.79,85.15 90.7,85.15 87.02,77.35 	"/>
</g>
</svg>
