<?xml version="1.0" encoding="utf-8"?>
<!-- Generator: Adobe Illustrator 27.8.1, SVG Export Plug-In . SVG Version: 6.00 Build 0)  -->
<svg version="1.1" id="Capa_1" xmlns="http://www.w3.org/2000/svg" xmlns:xlink="http://www.w3.org/1999/xlink" x="0px" y="0px"
	 viewBox="0 0 270 160" style="enable-background:new 0 0 270 160;" xml:space="preserve">
<style type="text/css">
	.st0{fill:#D10A11;}
	.st1{fill-rule:evenodd;clip-rule:evenodd;}
	.st2{fill:#FFFFFF;}
	.st3{fill:#2A4270;}
	.st4{fill:#B6ABB1;}
	.st5{fill:#E41D29;}
	.st6{fill:#F4D624;}
	.st7{fill:#282626;}
	.st8{fill:#DC292C;}
	.st9{fill:#666666;}
	.st10{fill:#F1B426;}
	.st11{fill:#0890A0;}
	.st12{fill-rule:evenodd;clip-rule:evenodd;fill:#1D1D1B;}
	.st13{fill-rule:evenodd;clip-rule:evenodd;fill:#FFFFFF;}
	.st14{fill-rule:evenodd;clip-rule:evenodd;fill:#179AD7;}
	.st15{fill:none;}
	.st16{fill-rule:evenodd;clip-rule:evenodd;fill:#272526;}
	
		.st17{clip-path:url(#SVGID_00000150099504178210506150000002356150820698059178_);fill:url(#SVGID_00000049210353566385568410000015806354718576280194_);}
	
		.st18{clip-path:url(#SVGID_00000111162517123374891610000000559198578502341263_);fill:url(#SVGID_00000130624962198832755200000015039104138861635723_);}
	
		.st19{clip-path:url(#SVGID_00000066518086538487170260000001894716029632887685_);fill:url(#SVGID_00000109751179944655852530000000527011096142571691_);}
	
		.st20{clip-path:url(#SVGID_00000124846394892759871920000016806818961628845465_);fill:url(#SVGID_00000075165005907145676080000016550583108387048383_);}
	.st21{fill-rule:evenodd;clip-rule:evenodd;fill:#E5282D;}
	.st22{fill-rule:evenodd;clip-rule:evenodd;fill:#FFEC08;}
	.st23{fill:#6D6E70;}
	.st24{fill:#6E6F71;}
	.st25{fill:#6F7072;}
	.st26{fill:#707173;}
	.st27{fill:#717274;}
	.st28{fill:#727375;}
	.st29{fill:#737476;}
	.st30{fill:#747577;}
	.st31{fill:#757678;}
	.st32{fill:#767779;}
	.st33{fill:#77787A;}
	.st34{fill:#78797B;}
	.st35{fill:#797A7C;}
	.st36{fill:#7A7B7D;}
	.st37{fill:#7B7C7E;}
	.st38{fill:#7C7D7F;}
	.st39{fill:#7D7E80;}
	.st40{fill:#7E7F81;}
	.st41{fill:#7F8082;}
	.st42{fill:#808183;}
	.st43{fill:#818284;}
	.st44{fill:#828385;}
	.st45{fill:#838486;}
	.st46{fill:#848587;}
	.st47{fill:#858688;}
	.st48{fill:#868789;}
	.st49{fill:#87888A;}
	.st50{fill:#88898B;}
	.st51{fill:#898A8C;}
	.st52{fill:#8A8B8D;}
	.st53{fill:#8B8C8E;}
	.st54{fill:#8C8D8F;}
	.st55{fill:#8D8E90;}
	.st56{fill:#8E8F91;}
	.st57{fill:#8F9092;}
	.st58{fill:#909193;}
	.st59{fill:#919294;}
	.st60{fill:#929395;}
	.st61{fill:#939496;}
	.st62{fill:#949597;}
	.st63{fill:#959698;}
	.st64{fill:#969799;}
	.st65{fill:#97989A;}
	.st66{fill:#98999B;}
	.st67{fill:#999A9C;}
	.st68{fill:#9A9B9D;}
	.st69{fill:#9B9C9E;}
	.st70{fill:#9C9D9F;}
	.st71{fill:#9D9EA0;}
	.st72{fill:#9E9FA1;}
	.st73{fill:#9FA0A2;}
	.st74{fill:#A0A1A3;}
	.st75{fill:#A1A2A4;}
	.st76{fill:#A2A3A5;}
	.st77{fill:#A3A4A6;}
	.st78{fill:#A4A5A7;}
	.st79{fill:#A5A6A8;}
	.st80{fill:#A6A7A9;}
	.st81{fill:#A7A8AA;}
	.st82{fill:#A8A9AB;}
	.st83{fill:#A9AAAC;}
	.st84{fill:#AAABAD;}
	.st85{fill:#ABACAE;}
	.st86{fill:#ACADAF;}
	.st87{fill:#ADAEB0;}
	.st88{fill:#AEAFB1;}
	.st89{fill:#AFB0B2;}
	.st90{fill:#B0B1B3;}
	.st91{fill:#B1B2B4;}
	.st92{fill:#B2B3B5;}
	.st93{fill:#B3B4B6;}
	.st94{fill:#B4B5B7;}
	.st95{fill:#B5B6B8;}
	.st96{fill:#B6B7B9;}
	.st97{fill:#B7B8BA;}
	.st98{fill:#B8B9BB;}
	.st99{fill:#B9BABC;}
	.st100{fill:#BABBBD;}
	.st101{fill:#BBBCBE;}
	.st102{fill:#BCBDBF;}
	.st103{fill:#BDBEC0;}
	.st104{fill:#BEBFC1;}
	.st105{fill:#BFC0C2;}
	.st106{fill:#C0C1C3;}
	.st107{fill:#C1C2C4;}
	.st108{fill:#C2C3C5;}
	.st109{fill:#C3C4C6;}
	.st110{fill:#C4C5C7;}
	.st111{fill:#C5C6C8;}
	.st112{fill:#C6C7C9;}
	.st113{fill:#C7C8CA;}
	.st114{fill:#C8C9CB;}
	.st115{fill:#9C212D;}
	.st116{fill:#939698;}
	.st117{fill:#1C3F84;}
	.st118{fill-rule:evenodd;clip-rule:evenodd;fill:#020202;}
	.st119{fill-rule:evenodd;clip-rule:evenodd;fill:#E1242C;}
	.st120{fill-rule:evenodd;clip-rule:evenodd;fill:#C5C6C8;}
	.st121{fill-rule:evenodd;clip-rule:evenodd;fill:#1B1918;}
	.st122{fill:#1280AC;}
	.st123{fill:none;stroke:#1280AC;stroke-width:1.0977;stroke-miterlimit:10;}
	.st124{fill:#F2E632;}
	.st125{fill:#8B8A8D;}
	.st126{fill:#1C171C;}
	.st127{fill:#159947;}
	.st128{fill:#003E92;}
	.st129{fill:#1C1C1C;}
	.st130{fill:#E9580C;}
</style>
<g>
	<g>
		<path d="M179.94,99.85c-0.35,0.92-0.7,1.81-1.03,2.69c-0.62,1.61-1.23,3.21-1.84,4.82c-0.06,0.15-0.13,0.21-0.28,0.2
			c-0.82-0.01-1.64-0.01-2.45,0c-0.16,0-0.23-0.06-0.29-0.22c-0.95-2.41-1.9-4.81-2.85-7.21c-0.03-0.08-0.06-0.15-0.11-0.28
			c0,2.59,0,5.13,0,7.68c-1.25,0-2.51,0-3.78,0c0-4,0-7.98,0-11.99c1.7,0,3.39,0,5.1,0c1.03,2.56,2.06,5.13,3.11,7.75
			c0.29-0.71,0.56-1.37,0.83-2.03c0.74-1.84,1.49-3.68,2.22-5.52c0.06-0.15,0.13-0.22,0.29-0.22c1.55,0.01,3.1,0,4.65,0
			c0.06,0,0.12,0,0.2,0c0,4.01,0,8,0,12.01c-1.26,0-2.51,0-3.77,0C179.94,105,179.94,102.45,179.94,99.85z"/>
		<path d="M137.03,107.56c-0.4,0-0.77,0-1.13,0c-0.96,0-1.93-0.01-2.89,0.01c-0.18,0-0.27-0.05-0.36-0.22
			c-0.7-1.32-1.41-2.63-2.11-3.95c-0.07-0.13-0.15-0.2-0.29-0.19c-0.56,0.01-1.12,0-1.69,0c0,1.45,0,2.89,0,4.34
			c-1.29,0-2.57,0-3.85,0c0-3.99,0-7.98,0-12.01c0.07,0,0.14,0,0.21,0c2.77,0,5.53,0,8.3,0c0.92,0,1.79,0.22,2.55,0.83
			c0.92,0.74,1.34,1.77,1.34,3.02c0,1.77-0.98,3.18-2.53,3.63c-0.05,0.02-0.1,0.04-0.17,0.06
			C135.28,104.57,136.14,106.04,137.03,107.56z M128.56,100.49c1.23,0,2.45,0.01,3.66-0.01c0.39-0.01,0.71-0.23,0.83-0.69
			c0.19-0.76-0.11-1.59-1.05-1.58c-1.08,0.02-2.17,0-3.25,0c-0.06,0-0.12,0.01-0.19,0.01C128.56,98.99,128.56,99.73,128.56,100.49z"
			/>
		<path d="M108.75,95.55c0,0.9,0,1.8,0,2.71c-2.49,0-4.96,0-7.45,0c0,0.64,0,1.26,0,1.9c2.12,0,4.24,0,6.37,0c0,0.9,0,1.76,0,2.64
			c-2.12,0-4.23,0-6.36,0c0,0.6,0,1.19,0,1.8c2.61,0,5.22,0,7.85,0c0,0.99,0,1.96,0,2.94c-3.9,0-7.8,0-11.71,0c0-4,0-7.99,0-12
			C101.2,95.55,104.97,95.55,108.75,95.55z"/>
		<path d="M123.91,107.55c-0.08,0-0.14,0.01-0.2,0.01c-1.23,0-2.46,0-3.69,0c-0.14,0-0.21-0.04-0.25-0.19
			c-0.12-0.41-0.26-0.82-0.38-1.23c-0.04-0.12-0.08-0.17-0.21-0.17c-1.51,0.01-3.02,0-4.53,0c-0.11,0-0.16,0.04-0.2,0.15
			c-0.14,0.43-0.28,0.85-0.44,1.28c-0.02,0.07-0.11,0.15-0.17,0.15c-1.29,0.01-2.57,0.01-3.86,0c-0.01,0-0.02-0.01-0.05-0.03
			c0.06-0.15,0.12-0.31,0.18-0.46c1.49-3.77,2.99-7.55,4.47-11.33c0.06-0.16,0.13-0.22,0.29-0.21c1.34,0.01,2.68,0.01,4.02,0
			c0.13,0,0.19,0.04,0.25,0.18c1.56,3.89,3.12,7.77,4.68,11.65C123.87,107.42,123.88,107.47,123.91,107.55z M118.31,103.1
			c-0.48-1.42-0.95-2.81-1.44-4.26c-0.46,1.45-0.91,2.85-1.36,4.26C116.45,103.1,117.36,103.1,118.31,103.1z"/>
		<path d="M152.55,107.55c0.03-0.09,0.05-0.16,0.08-0.22c1.53-3.87,3.06-7.73,4.58-11.6c0.06-0.15,0.13-0.2,0.28-0.2
			c1.34,0.01,2.68,0,4.02,0c0.11,0,0.19,0.01,0.24,0.15c1.57,3.92,3.14,7.83,4.71,11.74c0.01,0.03,0.02,0.07,0.04,0.12
			c-1.36,0-2.7,0-4.07,0c-0.14-0.44-0.29-0.89-0.42-1.35c-0.05-0.17-0.12-0.22-0.28-0.22c-1.47,0.01-2.93,0.01-4.4,0
			c-0.16,0-0.23,0.04-0.28,0.21c-0.14,0.46-0.31,0.91-0.47,1.36C155.24,107.55,153.91,107.55,152.55,107.55z M158.11,103.09
			c0.94,0,1.86,0,2.8,0c-0.48-1.41-0.95-2.81-1.44-4.25C159.01,100.29,158.56,101.68,158.11,103.09z"/>
		<path d="M152.21,104.51c-0.48,1.1-1.22,1.89-2.17,2.44c-0.96,0.55-2,0.81-3.07,0.94c-1.06,0.12-2.12,0.13-3.17-0.05
			c-1.6-0.28-3.08-0.87-4.24-2.21c-0.81-0.94-1.22-2.08-1.33-3.37c-0.09-1.05,0-2.07,0.33-3.06c0.52-1.5,1.51-2.5,2.8-3.15
			c1.55-0.78,3.19-1.02,4.88-0.9c1.14,0.08,2.24,0.34,3.28,0.85c0.91,0.45,1.72,1.05,2.28,2.01c0.05,0.08,0.09,0.16,0.13,0.24
			c0.03,0.06,0.05,0.13,0.09,0.21c-1.21,0.41-2.4,0.81-3.62,1.22c-0.03-0.07-0.07-0.13-0.09-0.2c-0.49-1.16-1.33-1.73-2.46-1.81
			c-0.52-0.03-1.03-0.01-1.53,0.18c-0.81,0.3-1.38,0.88-1.68,1.75c-0.44,1.27-0.47,2.56,0.01,3.82c0.43,1.12,1.24,1.71,2.32,1.88
			c0.53,0.08,1.06,0.04,1.58-0.1c0.82-0.23,1.43-0.77,1.87-1.57c0.05-0.1,0.1-0.17,0.23-0.13c1.17,0.33,2.34,0.65,3.51,0.97
			C152.16,104.46,152.17,104.48,152.21,104.51z"/>
		<path d="M86.29,107.54c0-4.01,0-7.99,0-11.99c1.28,0,2.55,0,3.84,0c0,3.02,0,6.04,0,9.08c2.03,0,4.05,0,6.07,0
			c0,0.98,0,1.94,0,2.91C92.9,107.54,89.6,107.54,86.29,107.54z"/>
	</g>
</g>
</svg>
