<?xml version="1.0" encoding="utf-8"?>
<!-- Generator: Adobe Illustrator 27.8.1, SVG Export Plug-In . SVG Version: 6.00 Build 0)  -->
<svg version="1.1" id="Capa_1" xmlns="http://www.w3.org/2000/svg" xmlns:xlink="http://www.w3.org/1999/xlink" x="0px" y="0px"
	 viewBox="0 0 270 160" style="enable-background:new 0 0 270 160;" xml:space="preserve">
<style type="text/css">
	.st0{fill:#D10A11;}
	.st1{fill-rule:evenodd;clip-rule:evenodd;}
	.st2{fill:#FFFFFF;}
	.st3{fill:#2A4270;}
	.st4{fill:#B6ABB1;}
	.st5{fill:#E41D29;}
	.st6{fill:#F4D624;}
	.st7{fill:#282626;}
	.st8{fill:#DC292C;}
	.st9{fill:#666666;}
	.st10{fill:#F1B426;}
	.st11{fill:#0890A0;}
	.st12{fill-rule:evenodd;clip-rule:evenodd;fill:#1D1D1B;}
	.st13{fill-rule:evenodd;clip-rule:evenodd;fill:#FFFFFF;}
	.st14{fill-rule:evenodd;clip-rule:evenodd;fill:#179AD7;}
	.st15{fill:none;}
	.st16{fill-rule:evenodd;clip-rule:evenodd;fill:#272526;}
	
		.st17{clip-path:url(#SVGID_00000074435367503596650790000015754946762600023739_);fill:url(#SVGID_00000127005186524055261830000000725731044964779178_);}
	
		.st18{clip-path:url(#SVGID_00000008115140118670183790000015482001566367754129_);fill:url(#SVGID_00000165934570028757322340000011907366109604818826_);}
	
		.st19{clip-path:url(#SVGID_00000077308997979831694780000015889543893980658826_);fill:url(#SVGID_00000157272777687269794530000014239763232584732823_);}
	
		.st20{clip-path:url(#SVGID_00000124872397344232194510000011620857077929957266_);fill:url(#SVGID_00000151532550488704358580000001746951186263679638_);}
	.st21{fill-rule:evenodd;clip-rule:evenodd;fill:#E5282D;}
	.st22{fill-rule:evenodd;clip-rule:evenodd;fill:#FFEC08;}
	.st23{fill:#6D6E70;}
	.st24{fill:#6E6F71;}
	.st25{fill:#6F7072;}
	.st26{fill:#707173;}
	.st27{fill:#717274;}
	.st28{fill:#727375;}
	.st29{fill:#737476;}
	.st30{fill:#747577;}
	.st31{fill:#757678;}
	.st32{fill:#767779;}
	.st33{fill:#77787A;}
	.st34{fill:#78797B;}
	.st35{fill:#797A7C;}
	.st36{fill:#7A7B7D;}
	.st37{fill:#7B7C7E;}
	.st38{fill:#7C7D7F;}
	.st39{fill:#7D7E80;}
	.st40{fill:#7E7F81;}
	.st41{fill:#7F8082;}
	.st42{fill:#808183;}
	.st43{fill:#818284;}
	.st44{fill:#828385;}
	.st45{fill:#838486;}
	.st46{fill:#848587;}
	.st47{fill:#858688;}
	.st48{fill:#868789;}
	.st49{fill:#87888A;}
	.st50{fill:#88898B;}
	.st51{fill:#898A8C;}
	.st52{fill:#8A8B8D;}
	.st53{fill:#8B8C8E;}
	.st54{fill:#8C8D8F;}
	.st55{fill:#8D8E90;}
	.st56{fill:#8E8F91;}
	.st57{fill:#8F9092;}
	.st58{fill:#909193;}
	.st59{fill:#919294;}
	.st60{fill:#929395;}
	.st61{fill:#939496;}
	.st62{fill:#949597;}
	.st63{fill:#959698;}
	.st64{fill:#969799;}
	.st65{fill:#97989A;}
	.st66{fill:#98999B;}
	.st67{fill:#999A9C;}
	.st68{fill:#9A9B9D;}
	.st69{fill:#9B9C9E;}
	.st70{fill:#9C9D9F;}
	.st71{fill:#9D9EA0;}
	.st72{fill:#9E9FA1;}
	.st73{fill:#9FA0A2;}
	.st74{fill:#A0A1A3;}
	.st75{fill:#A1A2A4;}
	.st76{fill:#A2A3A5;}
	.st77{fill:#A3A4A6;}
	.st78{fill:#A4A5A7;}
	.st79{fill:#A5A6A8;}
	.st80{fill:#A6A7A9;}
	.st81{fill:#A7A8AA;}
	.st82{fill:#A8A9AB;}
	.st83{fill:#A9AAAC;}
	.st84{fill:#AAABAD;}
	.st85{fill:#ABACAE;}
	.st86{fill:#ACADAF;}
	.st87{fill:#ADAEB0;}
	.st88{fill:#AEAFB1;}
	.st89{fill:#AFB0B2;}
	.st90{fill:#B0B1B3;}
	.st91{fill:#B1B2B4;}
	.st92{fill:#B2B3B5;}
	.st93{fill:#B3B4B6;}
	.st94{fill:#B4B5B7;}
	.st95{fill:#B5B6B8;}
	.st96{fill:#B6B7B9;}
	.st97{fill:#B7B8BA;}
	.st98{fill:#B8B9BB;}
	.st99{fill:#B9BABC;}
	.st100{fill:#BABBBD;}
	.st101{fill:#BBBCBE;}
	.st102{fill:#BCBDBF;}
	.st103{fill:#BDBEC0;}
	.st104{fill:#BEBFC1;}
	.st105{fill:#BFC0C2;}
	.st106{fill:#C0C1C3;}
	.st107{fill:#C1C2C4;}
	.st108{fill:#C2C3C5;}
	.st109{fill:#C3C4C6;}
	.st110{fill:#C4C5C7;}
	.st111{fill:#C5C6C8;}
	.st112{fill:#C6C7C9;}
	.st113{fill:#C7C8CA;}
	.st114{fill:#C8C9CB;}
	.st115{fill:#9C212D;}
	.st116{fill:#939698;}
	.st117{fill:#1C3F84;}
	.st118{fill-rule:evenodd;clip-rule:evenodd;fill:#020202;}
	.st119{fill-rule:evenodd;clip-rule:evenodd;fill:#E1242C;}
	.st120{fill-rule:evenodd;clip-rule:evenodd;fill:#C5C6C8;}
	.st121{fill-rule:evenodd;clip-rule:evenodd;fill:#1B1918;}
	.st122{fill:#1280AC;}
	.st123{fill:none;stroke:#1280AC;stroke-width:1.0977;stroke-miterlimit:10;}
	.st124{fill:#F2E632;}
	.st125{fill:#8B8A8D;}
	.st126{fill:#1C171C;}
	.st127{fill:#159947;}
	.st128{fill:#003E92;}
	.st129{fill:#1C1C1C;}
	.st130{fill:#E9580C;}
</style>
<g>
	<circle class="st0" cx="88.22" cy="80" r="31.77"/>
	<path class="st1" d="M210.16,101.1V85.25c0-2.31-0.41-4.04-1.32-5.12c-0.91-1.07-2.31-1.65-4.37-1.65c-0.91,0-1.98,0.25-3.05,0.83
		c-0.99,0.5-1.9,1.16-2.48,1.98v19.81h-6.35V73.62h4.54l1.24,2.64c1.73-2.06,4.29-3.14,7.68-3.14c3.3,0,5.86,0.99,7.76,2.97
		c1.9,1.98,2.81,4.7,2.81,8.17v16.84H210.16z M186.97,93.09v-5.86c0-5.28-0.99-8.91-2.89-10.81c-1.82-1.82-4.7-2.72-8.5-2.89
		c-0.25,0-0.5,0-0.74,0c-3.05,0-5.61,0.58-7.84,1.65l1.4,4.95c1.57-0.83,3.63-1.24,6.02-1.24c0.41,0,0.83,0,1.16,0.08
		c3.3,0.25,4.95,1.9,4.95,4.79c-0.99-0.25-1.9-0.41-2.64-0.41c-0.83,0-1.57,0.08-2.31,0.08c-3.3,0.33-5.86,1.16-7.84,2.64
		c-2.39,1.82-3.55,4.29-3.55,7.43c0,2.72,0.83,4.87,2.48,6.27c1.73,1.49,4.04,2.23,7.01,2.23c0.66,0,1.24,0,1.9-0.17
		c0.91-0.08,1.73-0.33,2.64-0.74c1.4-0.58,2.39-1.4,2.97-2.31c0.33,0.83,0.83,1.57,1.49,2.23c0.74,0.66,1.57,0.99,2.56,0.99
		c0.83,0,1.57-0.08,2.23-0.33c0.58-0.17,1.24-0.74,1.73-1.65C187.71,99.04,186.97,96.81,186.97,93.09z M180.61,91.2
		c0,3.55-1.65,5.45-5.03,5.69c-0.25,0-0.5,0.08-0.74,0.08c-2.81,0-4.29-1.24-4.29-3.71c0-2.72,1.73-4.29,5.03-4.79
		c0.74-0.17,1.65-0.17,2.56-0.17c0.58,0,1.4,0.08,2.48,0.33V91.2z M153.63,64.62l6.44-1.49V94c0,3.38,0.99,5.36,3.05,6.02
		c-0.99,1.9-2.72,2.81-5.12,2.81c-2.89,0-4.37-1.98-4.37-6.02V64.62z M146.69,66.02c-1.98-1.32-4.79-2.15-8.42-2.48
		c-1.4-0.17-2.97-0.25-4.62-0.25c-0.74,0-3.3,0.08-7.76,0.25v37.55h6.68V87.32c1.24,0.08,2.23,0.17,2.97,0.17
		c0.99,0,1.82-0.08,2.72-0.08c8.34-0.74,12.46-5.03,12.46-12.87C150.74,70.73,149.42,67.84,146.69,66.02z M141.91,80.05
		c-0.91,0.58-2.15,1.07-3.63,1.32c-0.91,0.08-1.9,0.17-3.05,0.17c-0.66,0-1.57-0.08-2.64-0.17V69.33c0.58-0.08,1.32-0.08,1.98-0.08
		c1.4,0,2.64,0.08,3.71,0.25c3.8,0.66,5.69,2.56,5.69,5.61C143.97,77.33,143.31,78.98,141.91,80.05z"/>
	<g>
		<g>
			<path class="st2" d="M71.61,73.38c-0.04,1.22-0.09,2.55-0.12,3.99c-0.03,1.45-0.04,2.94-0.02,4.49c0.02,1.55,0.07,3.12,0.16,4.71
				c0.09,1.6,0.21,3.15,0.34,4.66c0.14,1.51,0.3,2.94,0.47,4.28c0.17,1.34,0.36,2.53,0.54,3.56c0.1,0.53,0.16,0.94,0.19,1.21
				c0.03,0.27-0.04,0.44-0.22,0.51c-0.32,0.12-0.71,0.09-1.18-0.07c-0.48-0.17-0.96-0.42-1.45-0.75c-0.49-0.33-0.94-0.7-1.35-1.1
				c-0.41-0.41-0.7-0.8-0.86-1.17c-0.64-1.49-1.22-3.08-1.71-4.78c-0.49-1.7-0.92-3.45-1.26-5.25c-0.34-1.8-0.61-3.63-0.79-5.49
				c-0.18-1.86-0.31-3.71-0.39-5.55c-0.07-1.84-0.11-3.64-0.13-5.42c-0.02-1.77-0.04-3.49-0.1-5.14c-0.01-0.44-0.02-0.84-0.03-1.19
				c-0.01-0.35,0.03-0.65,0.11-0.89c0.08-0.24,0.25-0.43,0.49-0.58c0.24-0.14,0.6-0.24,1.08-0.3c0.78,0.39,1.72,0.99,2.81,1.82
				c1.08,0.83,2.2,1.75,3.34,2.77c1.14,1.02,2.25,2.07,3.32,3.15c1.07,1.08,2.03,2.06,2.89,2.94c0.85,0.88,1.57,1.6,2.18,2.17
				c0.61,0.57,1.02,0.85,1.27,0.86c0.16-0.09,0.45-0.34,0.89-0.74c0.44-0.4,0.99-0.89,1.66-1.45c0.67-0.57,1.44-1.18,2.34-1.83
				c0.9-0.65,1.87-1.28,2.93-1.89c1.06-0.61,2.17-1.18,3.35-1.69c1.18-0.51,2.35-0.93,3.52-1.26c1.17-0.34,2.3-0.57,3.36-0.7
				c1.07-0.14,2.02-0.16,2.84-0.07c0.41,0.38,0.83,0.79,1.26,1.22c0.43,0.43,0.83,0.87,1.19,1.32c0.36,0.45,0.65,0.91,0.87,1.37
				c0.22,0.46,0.34,0.92,0.35,1.37c-0.79,0.63-1.68,1.41-2.64,2.37c-0.96,0.95-1.94,2.03-2.92,3.24c-0.98,1.21-1.95,2.52-2.89,3.93
				c-0.94,1.41-1.81,2.87-2.6,4.36s-1.51,2.98-2.15,4.45c-0.64,1.47-1.18,2.87-1.64,4.17s-0.82,2.46-1.12,3.47
				c-0.3,1.01-0.51,1.79-0.66,2.32c-0.32,0.05-0.66,0.04-1.03-0.03c-0.37-0.07-0.72-0.2-1.06-0.4c-0.33-0.2-0.62-0.48-0.87-0.84
				c-0.24-0.36-0.39-0.82-0.42-1.37c-0.04-0.57-0.01-1.34,0.09-2.33s0.25-2.08,0.48-3.29c0.22-1.21,0.5-2.48,0.86-3.8
				c0.36-1.32,0.75-2.61,1.19-3.87c1.04-2.95,2.4-6.02,4.22-9.1c-4.57,2.19-6.59,3.58-10.05,6.75c-0.28,0-0.66-0.16-1.16-0.5
				c-0.49-0.34-1.05-0.78-1.69-1.32c-0.64-0.54-1.32-1.15-2.06-1.83c-0.74-0.68-1.49-1.36-2.23-2.04c-0.74-0.68-1.46-1.33-2.13-1.93
				S72.06,73.78,71.61,73.38z"/>
			<path class="st2" d="M110.83,89.39c0.04,0.28,0.1,0.53,0.17,0.77c0.07,0.24,0.15,0.44,0.22,0.6c0.07,0.17,0.12,0.3,0.16,0.41
				c0.04,0.11,0.05,0.17,0.04,0.19c-0.44,0.28-1.05,0.62-1.81,1.04c-0.76,0.42-1.59,0.88-2.46,1.39c-0.88,0.51-1.76,1.05-2.65,1.61
				c-0.88,0.56-1.69,1.1-2.43,1.6c-0.74,0.5-1.38,0.92-1.94,1.24c-0.56,0.33-0.97,0.49-1.25,0.48c-0.18-0.01-0.39-0.07-0.63-0.2
				c-0.24-0.12-0.5-0.27-0.78-0.46c-0.28-0.19-0.55-0.4-0.83-0.63c-0.28-0.23-0.55-0.46-0.79-0.69c-0.25-0.23-0.46-0.45-0.63-0.66
				c-0.17-0.21-0.29-0.38-0.34-0.51c-0.12-0.36-0.18-0.79-0.18-1.26c0-0.48,0.04-1,0.14-1.55c0.13-0.73,0.36-1.57,0.72-2.52
				c0.36-0.95,0.8-1.91,1.33-2.87c0.54-0.96,1.14-1.88,1.82-2.76c0.68-0.88,1.38-1.63,2.1-2.25c0.71-0.63,1.41-1.09,2.08-1.4
				c0.67-0.31,1.24-0.4,1.68-0.27c0.25,0.07,0.48,0.22,0.7,0.45c0.32,0.37,0.57,0.74,0.75,1.1c0.18,0.36,0.31,0.73,0.38,1.1
				c0.08,0.37,0.11,0.74,0.11,1.12c-0.01,0.38-0.03,0.78-0.07,1.19c-0.34,0.16-0.73,0.4-1.16,0.71c-0.43,0.31-0.87,0.68-1.33,1.1
				s-0.91,0.88-1.35,1.37c-0.44,0.49-0.84,1-1.22,1.52c-0.37,0.52-0.7,1.04-0.98,1.55c-0.28,0.51-0.49,0.99-0.63,1.41
				c-0.12,0.35-0.18,0.65-0.2,0.9c0.65-0.25,1.42-0.62,2.34-1.08c0.91-0.46,1.88-0.92,2.9-1.4c1.02-0.47,2.07-0.92,3.13-1.34
				C109,89.98,109.97,89.65,110.83,89.39z M108.48,74.68c0.35,0.11,0.72,0.21,1.07,0.31c0.3,0.09,0.63,0.2,0.98,0.31
				c0.35,0.12,0.68,0.23,0.97,0.34c0.38,0.14,0.74,0.4,1.06,0.75c0.32,0.36,0.56,0.77,0.72,1.24c0.16,0.47,0.23,0.97,0.2,1.5
				c-0.03,0.53-0.19,1.05-0.48,1.56c-0.21,0.37-0.53,0.63-0.95,0.79c-0.42,0.15-0.98,0.1-1.68-0.15c-0.67-0.24-1.26-0.53-1.79-0.88
				c-0.53-0.35-0.96-0.73-1.31-1.16c-0.34-0.42-0.58-0.87-0.7-1.35c-0.12-0.47-0.11-0.94,0.06-1.4c0.14-0.39,0.37-0.74,0.68-1.05
				C107.62,75.21,108.01,74.93,108.48,74.68z"/>
		</g>
	</g>
</g>
</svg>
