<?xml version="1.0" encoding="utf-8"?>
<!-- Generator: Adobe Illustrator 27.8.1, SVG Export Plug-In . SVG Version: 6.00 Build 0)  -->
<svg version="1.1" id="Capa_1" xmlns="http://www.w3.org/2000/svg" xmlns:xlink="http://www.w3.org/1999/xlink" x="0px" y="0px"
	 viewBox="0 0 270 160" style="enable-background:new 0 0 270 160;" xml:space="preserve">
<style type="text/css">
	.st0{fill:#D10A11;}
	.st1{fill-rule:evenodd;clip-rule:evenodd;}
	.st2{fill:#FFFFFF;}
	.st3{fill:#2A4270;}
	.st4{fill:#B6ABB1;}
	.st5{fill:#E41D29;}
	.st6{fill:#F4D624;}
	.st7{fill:#282626;}
	.st8{fill:#DC292C;}
	.st9{fill:#666666;}
	.st10{fill:#F1B426;}
	.st11{fill:#0890A0;}
	.st12{fill-rule:evenodd;clip-rule:evenodd;fill:#1D1D1B;}
	.st13{fill-rule:evenodd;clip-rule:evenodd;fill:#FFFFFF;}
	.st14{fill-rule:evenodd;clip-rule:evenodd;fill:#179AD7;}
	.st15{fill:none;}
	.st16{fill-rule:evenodd;clip-rule:evenodd;fill:#272526;}
	
		.st17{clip-path:url(#SVGID_00000101065304247718266400000008193232187675810470_);fill:url(#SVGID_00000033347271319814676530000014776719027145847999_);}
	
		.st18{clip-path:url(#SVGID_00000136391017324167990980000008548076107506641321_);fill:url(#SVGID_00000053504484108069348690000008224503328866124727_);}
	
		.st19{clip-path:url(#SVGID_00000041999510329680121430000015093829347071010190_);fill:url(#SVGID_00000073003253822333513210000013988884320654042773_);}
	
		.st20{clip-path:url(#SVGID_00000028286732013897049520000002511781577950357395_);fill:url(#SVGID_00000085959540048968845160000014492567530897808049_);}
	.st21{fill-rule:evenodd;clip-rule:evenodd;fill:#E5282D;}
	.st22{fill-rule:evenodd;clip-rule:evenodd;fill:#FFEC08;}
	.st23{fill:#6D6E70;}
	.st24{fill:#6E6F71;}
	.st25{fill:#6F7072;}
	.st26{fill:#707173;}
	.st27{fill:#717274;}
	.st28{fill:#727375;}
	.st29{fill:#737476;}
	.st30{fill:#747577;}
	.st31{fill:#757678;}
	.st32{fill:#767779;}
	.st33{fill:#77787A;}
	.st34{fill:#78797B;}
	.st35{fill:#797A7C;}
	.st36{fill:#7A7B7D;}
	.st37{fill:#7B7C7E;}
	.st38{fill:#7C7D7F;}
	.st39{fill:#7D7E80;}
	.st40{fill:#7E7F81;}
	.st41{fill:#7F8082;}
	.st42{fill:#808183;}
	.st43{fill:#818284;}
	.st44{fill:#828385;}
	.st45{fill:#838486;}
	.st46{fill:#848587;}
	.st47{fill:#858688;}
	.st48{fill:#868789;}
	.st49{fill:#87888A;}
	.st50{fill:#88898B;}
	.st51{fill:#898A8C;}
	.st52{fill:#8A8B8D;}
	.st53{fill:#8B8C8E;}
	.st54{fill:#8C8D8F;}
	.st55{fill:#8D8E90;}
	.st56{fill:#8E8F91;}
	.st57{fill:#8F9092;}
	.st58{fill:#909193;}
	.st59{fill:#919294;}
	.st60{fill:#929395;}
	.st61{fill:#939496;}
	.st62{fill:#949597;}
	.st63{fill:#959698;}
	.st64{fill:#969799;}
	.st65{fill:#97989A;}
	.st66{fill:#98999B;}
	.st67{fill:#999A9C;}
	.st68{fill:#9A9B9D;}
	.st69{fill:#9B9C9E;}
	.st70{fill:#9C9D9F;}
	.st71{fill:#9D9EA0;}
	.st72{fill:#9E9FA1;}
	.st73{fill:#9FA0A2;}
	.st74{fill:#A0A1A3;}
	.st75{fill:#A1A2A4;}
	.st76{fill:#A2A3A5;}
	.st77{fill:#A3A4A6;}
	.st78{fill:#A4A5A7;}
	.st79{fill:#A5A6A8;}
	.st80{fill:#A6A7A9;}
	.st81{fill:#A7A8AA;}
	.st82{fill:#A8A9AB;}
	.st83{fill:#A9AAAC;}
	.st84{fill:#AAABAD;}
	.st85{fill:#ABACAE;}
	.st86{fill:#ACADAF;}
	.st87{fill:#ADAEB0;}
	.st88{fill:#AEAFB1;}
	.st89{fill:#AFB0B2;}
	.st90{fill:#B0B1B3;}
	.st91{fill:#B1B2B4;}
	.st92{fill:#B2B3B5;}
	.st93{fill:#B3B4B6;}
	.st94{fill:#B4B5B7;}
	.st95{fill:#B5B6B8;}
	.st96{fill:#B6B7B9;}
	.st97{fill:#B7B8BA;}
	.st98{fill:#B8B9BB;}
	.st99{fill:#B9BABC;}
	.st100{fill:#BABBBD;}
	.st101{fill:#BBBCBE;}
	.st102{fill:#BCBDBF;}
	.st103{fill:#BDBEC0;}
	.st104{fill:#BEBFC1;}
	.st105{fill:#BFC0C2;}
	.st106{fill:#C0C1C3;}
	.st107{fill:#C1C2C4;}
	.st108{fill:#C2C3C5;}
	.st109{fill:#C3C4C6;}
	.st110{fill:#C4C5C7;}
	.st111{fill:#C5C6C8;}
	.st112{fill:#C6C7C9;}
	.st113{fill:#C7C8CA;}
	.st114{fill:#C8C9CB;}
	.st115{fill:#9C212D;}
	.st116{fill:#939698;}
	.st117{fill:#1C3F84;}
	.st118{fill-rule:evenodd;clip-rule:evenodd;fill:#020202;}
	.st119{fill-rule:evenodd;clip-rule:evenodd;fill:#E1242C;}
	.st120{fill-rule:evenodd;clip-rule:evenodd;fill:#C5C6C8;}
	.st121{fill-rule:evenodd;clip-rule:evenodd;fill:#1B1918;}
	.st122{fill:#1280AC;}
	.st123{fill:none;stroke:#1280AC;stroke-width:1.0977;stroke-miterlimit:10;}
	.st124{fill:#F2E632;}
	.st125{fill:#8B8A8D;}
	.st126{fill:#1C171C;}
	.st127{fill:#159947;}
	.st128{fill:#003E92;}
	.st129{fill:#1C1C1C;}
	.st130{fill:#E9580C;}
</style>
<g>
	<path d="M52.4,52.43H217.6c6.05,0,10.95,4.9,10.95,10.95v33.24c0,6.05-4.9,10.95-10.95,10.95H52.4c-6.05,0-10.95-4.9-10.95-10.95
		V63.38C41.45,57.33,46.35,52.43,52.4,52.43z"/>
	<g>
		<g>
			<path class="st2" d="M159.38,90.36V68.63h8.29c3.88,0,5.07,3.13,5.07,6.17c0,1.85-0.49,3.94-2.03,5.16
				c-1.27,1.01-2.98,1.33-4.55,1.3h-2.72v9.1H159.38z M163.44,78.07h2.17c1.77,0,2.96-0.75,2.96-3.39c0-2.49-0.99-2.87-3.27-2.87
				h-1.85V78.07z"/>
			<path class="st2" d="M175.49,90.36V68.63h4.06v18.54h7.53v3.19H175.49z"/>
			<path class="st2" d="M188.27,90.36l5.19-21.73h5.48l4.93,21.73h-4.35l-1.07-5.51h-4.75l-1.07,5.51H188.27z M194.32,81.67h3.48
				l-1.1-6.17c-0.2-1.01-0.29-2-0.41-3.01c-0.03-0.49-0.09-0.99-0.14-1.45h-0.06c-0.06,0.46-0.12,0.96-0.14,1.45
				c-0.12,1.01-0.2,2-0.41,3.01L194.32,81.67z"/>
			<path class="st2" d="M215.79,68.63h4.06v21.73h-4.23l-3.16-7.74c-1.07-2.58-1.94-5.22-2.9-8.63h-0.06c0.14,1.8,0.32,4,0.43,6.2
				c0.12,2.17,0.2,4.35,0.2,6.08v4.09h-4.06V68.63h4.2l3.16,7.91c1.04,2.52,1.91,5.1,2.9,8.63h0.06c-0.14-1.97-0.29-4.09-0.41-6.17
				c-0.12-2.09-0.2-4.17-0.2-6.11V68.63z"/>
		</g>
		<path class="st5" d="M56.9,68.47h-7.6v23.06h3.33V81.01h3.48c0,0,3.91,0.32,3.91-5.99C60.03,68.71,56.9,68.47,56.9,68.47z
			 M55.07,78.53h-2.45v-7.49c0,0,0.6,0.01,2.29,0.01s1.77,3.38,1.77,3.38C56.68,78.61,55.07,78.53,55.07,78.53z"/>
		<path class="st5" d="M73.38,94.02l-5.29-25.54l-3.86-0.01l-5.15,23.07h3.32l1.53-6.17h4.09l2.59,11.97h150.08v-3.31H73.38z
			 M64.34,82.54l1.53-7.14l1.56,7.14H64.34z"/>
		<path class="st5" d="M71.1,68.48v2.59h3.84c0,0-0.02,20.04,0,20.04s3.3,0,3.3,0V71.07h4.03v-2.6L71.1,68.48z"/>
		<path class="st5" d="M94.76,88.09c0.13-2.6,0.79-7.31-1.98-8.55c0.31-0.25,2.17-0.66,2.17-5.46c0-4.8-2.85-5.61-2.85-5.61
			l-7.95-0.02v22.65h3.13V81.1h2.79c0,0,1.38-0.12,1.38,2.36c0,2.48,0.05,3.73-0.17,5.96c-0.06,0.62,0.09,1.56,0.36,1.68h3.54
			C95.17,91.09,94.63,90.69,94.76,88.09z M90.43,78.34h-2.9v-7.3l2.49,0.03c1.51,0.28,1.49,3.33,1.49,3.33
			C91.52,78.3,90.43,78.34,90.43,78.34z"/>
		<path class="st5" d="M107.46,72.2c0,0-0.21-3.73-5.29-3.73c0,0-4.47-0.35-5.28,3.73c0,0.4,0,15.35,0,15.35s0.38,3.43,5.28,3.75
			c4.9,0.31,5.3-3.54,5.3-3.54L107.46,72.2z M104.31,72.92v13.89c0,0-0.37,1.71-2.14,1.71s-2.1-1.69-2.1-1.69V72.99
			c0-1.86,2.1-1.91,2.1-1.91C104.41,71.08,104.31,72.92,104.31,72.92z"/>
		<polygon class="st5" points="109.81,68.48 109.81,91.29 112.67,91.29 112.67,75.71 116.97,91.31 121.15,91.31 121.15,68.48 
			118.62,68.48 118.62,83.51 114.35,68.43 		"/>
		<polygon class="st5" points="123.48,68.46 123.48,91.24 132.65,91.24 132.65,88.38 126.89,88.38 126.89,81.15 132.65,81.15 
			132.65,78.44 126.89,78.44 126.89,71.07 132.6,71.07 132.6,68.48 		"/>
		<polygon class="st5" points="135.15,68.43 135.15,91.11 142.4,91.11 142.4,88.46 138.37,88.46 138.37,68.46 		"/>
		<polygon class="st5" points="144.57,68.43 144.57,91.11 151.82,91.11 151.82,88.46 147.79,88.46 147.79,68.46 		"/>
		<rect x="153.59" y="68.46" class="st5" width="2.97" height="22.55"/>
	</g>
</g>
</svg>
